<?xml version="1.0" encoding="utf-8"?>
<!-- Generator: Adobe Illustrator 25.3.1, SVG Export Plug-In . SVG Version: 6.00 Build 0)  -->
<svg version="1.1" id="레이어_1" xmlns="http://www.w3.org/2000/svg" xmlns:xlink="http://www.w3.org/1999/xlink" x="0px"
	 y="0px" viewBox="0 0 64 64" style="enable-background:new 0 0 64 64;" xml:space="preserve">
<style type="text/css">
	.st0{fill:#FFFFFF;}
</style>
<path d="M14,4C8.5,4,4,8.5,4,14v32c0,5.5,4.5,10,10,10h32c5.5,0,10-4.5,10-10V14c0-5.5-4.5-10-10-10H14z M32.9,52H14
	c-3.3,0-6-2.7-6-6V14c0-3.3,2.7-6,6-6h32c3.3,0,6,2.7,6,6v32c0,3.3-2.7,6-6,6h-6.4"/>
<path d="M41.2,19.4c-4-0.3-17.1-0.3-21.2,0c-4.4,0.3-4.9,3.2-4.9,10.6c0,7.5,0.5,10.3,4.9,10.6c4,0.3,17.1,0.3,21.2,0
	c4.4-0.3,4.9-3.2,4.9-10.6C46,22.5,45.5,19.7,41.2,19.4z"/>
<polygon class="st0" points="26.3,24.1 26.3,35.9 36.5,29.1 "/>
</svg>
