<svg width="22" height="22" viewBox="0 0 22 22" fill="none" xmlns="http://www.w3.org/2000/svg">
<circle cx="11" cy="11" r="10.5" fill="white" fill-opacity="0.2" stroke="#F8F8F8"/>
<mask id="mask0_49_93" style="mask-type:alpha" maskUnits="userSpaceOnUse" x="5" y="5" width="13" height="13">
<rect x="5" y="5" width="13" height="13" fill="#D9D9D9"/>
</mask>
<g mask="url(#mask0_49_93)">
<path d="M8.87292 16.4292C8.73751 16.2938 8.6698 16.1335 8.6698 15.9482C8.6698 15.7634 8.73751 15.6032 8.87292 15.4678L12.8406 11.5001L8.85938 7.51883C8.73299 7.39244 8.6698 7.23446 8.6698 7.04487C8.6698 6.85529 8.73751 6.69279 8.87292 6.55737C9.00834 6.42196 9.16867 6.35425 9.35392 6.35425C9.53881 6.35425 9.69897 6.42196 9.83438 6.55737L14.3844 11.1209C14.4386 11.1751 14.477 11.2338 14.4998 11.297C14.5221 11.3602 14.5333 11.4279 14.5333 11.5001C14.5333 11.5723 14.5221 11.64 14.4998 11.7032C14.477 11.7664 14.4386 11.8251 14.3844 11.8792L9.82084 16.4428C9.69445 16.5692 9.53881 16.6324 9.35392 16.6324C9.16867 16.6324 9.00834 16.5647 8.87292 16.4292Z" fill="white"/>
</g>
</svg>
