<svg width="30" height="30" viewBox="0 0 30 30" fill="none" xmlns="http://www.w3.org/2000/svg">
<path d="M20.7578 20.9225C20.4397 20.6052 9.38823 9.56259 9.08049 9.25461C9.00445 9.17522 8.9133 9.11181 8.81239 9.0681C8.71149 9.02439 8.60286 9.00125 8.49289 9.00005C8.38292 8.99885 8.27381 9.01961 8.17198 9.0611C8.07014 9.1026 7.97763 9.164 7.89986 9.24171C7.82209 9.31941 7.76064 9.41185 7.71911 9.51361C7.67758 9.61536 7.6568 9.72438 7.65801 9.83427C7.65921 9.94415 7.68236 10.0527 7.72611 10.1535C7.76986 10.2543 7.83332 10.3454 7.91277 10.4214L8.71249 11.221L3.79607 25.1524C3.74489 25.2991 3.73615 25.4572 3.77087 25.6087C3.80558 25.7601 3.88234 25.8986 3.99232 26.0084C4.1023 26.1182 4.24105 26.1948 4.39262 26.2293C4.5442 26.2639 4.70245 26.255 4.8492 26.2037L18.7899 21.2912L19.5901 22.0903C19.7451 22.245 19.9552 22.3319 20.1743 22.3318C20.3934 22.3317 20.6034 22.2447 20.7583 22.0898C20.9132 21.935 21.0001 21.725 21 21.5061C20.9999 21.2872 20.9128 21.0773 20.7578 20.9225V20.9225ZM5.92752 24.075L6.96485 21.1422L8.86513 23.0404L5.92752 24.075ZM10.5896 22.4324L7.57144 19.4167L8.4828 16.8294L13.1755 21.5183L10.5896 22.4324ZM14.9043 20.9112L9.09383 15.1039L10.0072 12.5161L17.4957 19.9986L14.9043 20.9112Z" fill="white"/>
<path d="M22.2596 7.74042C22.1834 7.6642 22.093 7.60374 21.9934 7.56249C21.8939 7.52123 21.7872 7.5 21.6795 7.5C21.5717 7.5 21.465 7.52123 21.3655 7.56249C21.2659 7.60374 21.1755 7.6642 21.0993 7.74042L15.9778 12.8619C15.8295 13.0169 15.7477 13.2238 15.75 13.4383C15.7524 13.6529 15.8387 13.8579 15.9904 14.0096C16.1421 14.1613 16.3471 14.2476 16.5616 14.25C16.7762 14.2523 16.9831 14.1705 17.1381 14.0222L22.2596 8.90067C22.3358 8.82451 22.3963 8.73407 22.4375 8.63453C22.4788 8.53499 22.5 8.4283 22.5 8.32055C22.5 8.2128 22.4788 8.1061 22.4375 8.00656C22.3963 7.90702 22.3358 7.81658 22.2596 7.74042V7.74042Z" fill="white"/>
<path d="M21.7029 15.0002H18.8391C18.7299 14.9978 18.6212 15.0154 18.5196 15.0519C18.4179 15.0885 18.3252 15.1434 18.247 15.2132C18.1688 15.2831 18.1067 15.3666 18.0643 15.4588C18.0219 15.5509 18 15.65 18 15.75C18 15.85 18.0219 15.9491 18.0643 16.0412C18.1067 16.1334 18.1688 16.2169 18.247 16.2868C18.3252 16.3566 18.4179 16.4115 18.5196 16.4481C18.6212 16.4846 18.7299 16.5022 18.8391 16.4998H21.701C21.9147 16.495 22.1178 16.4139 22.2671 16.2738C22.4164 16.1337 22.5 15.9457 22.5 15.75C22.5 15.5543 22.4164 15.3663 22.2671 15.2262C22.1178 15.0861 21.9147 15.005 21.701 15.0002H21.7029Z" fill="white"/>
<path d="M14.2502 7.5C14.1518 7.49994 14.0542 7.52098 13.9632 7.56192C13.8723 7.60287 13.7896 7.66291 13.7199 7.73863C13.6503 7.81434 13.595 7.90424 13.5573 8.00319C13.5196 8.10214 13.5002 8.2082 13.5002 8.31531V11.1643C13.4978 11.273 13.5154 11.3812 13.5519 11.4825C13.5885 11.5838 13.6434 11.6761 13.7132 11.754C13.7831 11.8318 13.8666 11.8937 13.9588 11.936C14.0509 11.9782 14.15 12 14.25 12C14.35 12 14.4491 11.9782 14.5412 11.936C14.6334 11.8937 14.7169 11.8318 14.7868 11.754C14.8566 11.6761 14.9115 11.5838 14.9481 11.4825C14.9846 11.3812 15.0022 11.273 14.9998 11.1643V8.31384C14.9994 8.09787 14.9203 7.89086 14.7798 7.73828C14.6392 7.5857 14.4488 7.5 14.2502 7.5V7.5Z" fill="white"/>
<path d="M25.125 12.75C25.7463 12.75 26.25 12.2463 26.25 11.625C26.25 11.0037 25.7463 10.5 25.125 10.5C24.5037 10.5 24 11.0037 24 11.625C24 12.2463 24.5037 12.75 25.125 12.75Z" fill="white"/>
<path d="M18.375 6C18.9963 6 19.5 5.49632 19.5 4.875C19.5 4.25368 18.9963 3.75 18.375 3.75C17.7537 3.75 17.25 4.25368 17.25 4.875C17.25 5.49632 17.7537 6 18.375 6Z" fill="white"/>
<path d="M24.375 21C24.9963 21 25.5 20.4963 25.5 19.875C25.5 19.2537 24.9963 18.75 24.375 18.75C23.7537 18.75 23.25 19.2537 23.25 19.875C23.25 20.4963 23.7537 21 24.375 21Z" fill="white"/>
<path d="M10.125 6.75C10.7463 6.75 11.25 6.24632 11.25 5.625C11.25 5.00368 10.7463 4.5 10.125 4.5C9.50368 4.5 9 5.00368 9 5.625C9 6.24632 9.50368 6.75 10.125 6.75Z" fill="white"/>
</svg>
