<svg width="48" height="48" viewBox="0 0 48 48" fill="none" xmlns="http://www.w3.org/2000/svg">
<path d="M12.1715 47.8302C9.31697 47.7004 7.76628 47.2254 6.73487 46.8231C5.36821 46.291 4.39385 45.6576 3.36815 44.6333C2.34244 43.609 1.70761 42.6347 1.17835 41.268C0.776057 40.2366 0.301008 38.6859 0.171189 35.8313C0.0285315 32.7456 0 31.8198 0 24.0021C0 16.1845 0.0313847 15.2601 0.169763 12.1715C0.299581 9.31697 0.777484 7.76913 1.17693 6.73487C1.70904 5.36821 2.34386 4.39385 3.36672 3.36672C4.391 2.34244 5.36535 1.70618 6.73344 1.17693C7.76485 0.774631 9.31554 0.299581 12.1701 0.169763C15.2572 0.0285315 16.1845 0 23.9993 0C31.8169 0 32.7413 0.0313847 35.8299 0.169763C38.6845 0.299581 40.2323 0.777484 41.2666 1.17693C42.6332 1.70618 43.6076 2.34244 44.6333 3.36672C45.659 4.391 46.291 5.36678 46.8231 6.73344C47.2254 7.76485 47.7004 9.31554 47.8302 12.1701C47.9715 15.2587 48 16.1831 48 24.0007C48 31.8155 47.9715 32.7428 47.8302 35.8313C47.7004 38.6859 47.2225 40.2366 46.8231 41.268C46.291 42.6347 45.6576 43.609 44.6333 44.6333C43.609 45.6576 42.6332 46.291 41.2666 46.8231C40.2351 47.2254 38.6845 47.7004 35.8299 47.8302C32.7442 47.9715 31.8169 48 23.9993 48C16.1845 48 15.2572 47.9729 12.1715 47.8302" fill="#D3262C"/>
<path d="M37.8281 14.8026C36.7453 13.5205 34.7461 13 30.9275 13H17.0695C13.1637 13 11.1305 13.556 10.0547 14.9192C9 16.248 9 18.2063 9 20.917V26.083C9 31.3342 10.248 34 17.0695 34H30.9299C34.2416 34 36.0762 33.539 37.2633 32.4095C38.4809 31.2514 39 29.3585 39 26.083V20.917C39 18.0588 38.9186 16.0889 37.8281 14.8026ZM28.2604 24.2134L21.9662 27.4853C21.8187 27.562 21.6538 27.5995 21.4874 27.5943C21.321 27.589 21.1588 27.5412 21.0165 27.4555C20.8741 27.3697 20.7564 27.2488 20.6747 27.1046C20.593 26.9604 20.55 26.7976 20.55 26.632V20.1092C20.55 19.9438 20.5929 19.7813 20.6744 19.6372C20.7559 19.4931 20.8733 19.3723 21.0154 19.2865C21.1574 19.2006 21.3193 19.1526 21.4854 19.1471C21.6516 19.1415 21.8163 19.1786 21.9639 19.2548L28.258 22.5057C28.415 22.5871 28.5465 22.7097 28.6383 22.8602C28.7301 23.0108 28.7786 23.1835 28.7786 23.3595C28.7786 23.5356 28.7301 23.7083 28.6383 23.8588C28.5465 24.0094 28.415 24.132 28.258 24.2134H28.2604Z" fill="white"/>
</svg>
