<svg width="48" height="48" viewBox="0 0 48 48" fill="none" xmlns="http://www.w3.org/2000/svg">
<g clip-path="url(#clip0_66_644)">
<path d="M12.1715 47.8302C9.31697 47.7004 7.76628 47.2254 6.73487 46.8231C5.36821 46.291 4.39385 45.6576 3.36815 44.6333C2.34244 43.609 1.70761 42.6347 1.17835 41.268C0.776057 40.2366 0.301008 38.6859 0.171189 35.8313C0.0285315 32.7456 0 31.8198 0 24.0021C0 16.1845 0.0313847 15.2601 0.169763 12.1715C0.299581 9.31697 0.777484 7.76913 1.17693 6.73487C1.70904 5.36821 2.34386 4.39385 3.36672 3.36672C4.391 2.34244 5.36535 1.70618 6.73344 1.17693C7.76485 0.774631 9.31554 0.299581 12.1701 0.169763C15.2572 0.0285315 16.1845 0 23.9993 0C31.8169 0 32.7413 0.0313847 35.8299 0.169763C38.6845 0.299581 40.2323 0.777484 41.2666 1.17693C42.6332 1.70618 43.6076 2.34244 44.6333 3.36672C45.659 4.391 46.291 5.36678 46.8231 6.73344C47.2254 7.76485 47.7004 9.31554 47.8302 12.1701C47.9715 15.2587 48 16.1831 48 24.0007C48 31.8155 47.9715 32.7428 47.8302 35.8313C47.7004 38.6859 47.2225 40.2366 46.8231 41.268C46.291 42.6347 45.6576 43.609 44.6333 44.6333C43.609 45.6576 42.6332 46.291 41.2666 46.8231C40.2351 47.2254 38.6845 47.7004 35.8299 47.8302C32.7442 47.9715 31.8169 48 23.9993 48C16.1845 48 15.2572 47.9729 12.1715 47.8302Z" fill="url(#paint0_radial_66_644)"/>
<path d="M12.1715 47.8302C9.31697 47.7004 7.76628 47.2254 6.73487 46.8231C5.36821 46.291 4.39385 45.6576 3.36815 44.6333C2.34244 43.609 1.70761 42.6347 1.17835 41.268C0.776057 40.2366 0.301008 38.6859 0.171189 35.8313C0.0285315 32.7456 0 31.8198 0 24.0021C0 16.1845 0.0313847 15.2601 0.169763 12.1715C0.299581 9.31697 0.777484 7.76913 1.17693 6.73487C1.70904 5.36821 2.34386 4.39385 3.36672 3.36672C4.391 2.34244 5.36535 1.70618 6.73344 1.17693C7.76485 0.774631 9.31554 0.299581 12.1701 0.169763C15.2572 0.0285315 16.1845 0 23.9993 0C31.8169 0 32.7413 0.0313847 35.8299 0.169763C38.6845 0.299581 40.2323 0.777484 41.2666 1.17693C42.6332 1.70618 43.6076 2.34244 44.6333 3.36672C45.659 4.391 46.291 5.36678 46.8231 6.73344C47.2254 7.76485 47.7004 9.31554 47.8302 12.1701C47.9715 15.2587 48 16.1831 48 24.0007C48 31.8155 47.9715 32.7428 47.8302 35.8313C47.7004 38.6859 47.2225 40.2366 46.8231 41.268C46.291 42.6347 45.6576 43.609 44.6333 44.6333C43.609 45.6576 42.6332 46.291 41.2666 46.8231C40.2351 47.2254 38.6845 47.7004 35.8299 47.8302C32.7442 47.9715 31.8169 48 23.9993 48C16.1845 48 15.2572 47.9729 12.1715 47.8302Z" fill="url(#paint1_radial_66_644)"/>
<path d="M18.1068 24.1023C18.1068 20.8196 20.7672 18.1578 24.0499 18.1578C27.3326 18.1578 29.9945 20.8196 29.9945 24.1023C29.9945 27.385 27.3326 30.0469 24.0499 30.0469C20.7672 30.0469 18.1068 27.385 18.1068 24.1023ZM14.8933 24.1023C14.8933 29.1596 18.9927 33.259 24.0499 33.259C29.1072 33.259 33.2066 29.1596 33.2066 24.1023C33.2066 19.0451 29.1072 14.9457 24.0499 14.9457C18.9927 14.9457 14.8935 19.0448 14.8935 24.1023M31.4293 14.5827C31.4292 15.0059 31.5545 15.4197 31.7895 15.7716C32.0245 16.1236 32.3586 16.398 32.7495 16.5602C33.1405 16.7223 33.5707 16.7648 33.9858 16.6824C34.401 16.6 34.7823 16.3964 35.0817 16.0972C35.3811 15.7981 35.585 15.4169 35.6678 15.0018C35.7505 14.5868 35.7083 14.1565 35.5465 13.7654C35.3847 13.3743 35.1106 13.04 34.7588 12.8048C34.4069 12.5695 33.9933 12.4438 33.5701 12.4436H33.5692C33.0019 12.4439 32.4579 12.6693 32.0567 13.0704C31.6555 13.4714 31.4298 14.0154 31.4293 14.5827ZM16.8457 38.6175C15.1072 38.5383 14.1622 38.2487 13.5342 38.004C12.7017 37.6799 12.1076 37.2939 11.4831 36.6702C10.8585 36.0465 10.4719 35.453 10.1492 34.6205C9.90444 33.9928 9.61485 33.0475 9.53582 31.309C9.44937 29.4293 9.4321 28.8647 9.4321 24.1026C9.4321 19.3406 9.45079 18.7775 9.53582 16.8963C9.61499 15.1577 9.90673 14.2143 10.1492 13.5848C10.4734 12.7522 10.8594 12.1582 11.4831 11.5336C12.1068 10.9091 12.7002 10.5225 13.5342 10.2001C14.1619 9.95527 15.1072 9.66568 16.8457 9.58665C18.7254 9.50019 19.29 9.48293 24.0499 9.48293C28.8099 9.48293 29.3751 9.50105 31.2563 9.58665C32.9949 9.66582 33.9383 9.95756 34.5678 10.2001C35.4004 10.5228 35.9944 10.9102 36.6189 11.5339C37.2435 12.1576 37.6287 12.7525 37.9528 13.5851C38.1976 14.2127 38.4872 15.158 38.5662 16.8966C38.6527 18.7778 38.6699 19.3409 38.6699 24.1029C38.6699 28.865 38.6527 29.428 38.5662 31.3093C38.487 33.0478 38.196 33.9928 37.9528 34.6208C37.6287 35.4533 37.2426 36.0473 36.6189 36.6705C35.9952 37.2936 35.4004 37.6802 34.5678 38.0043C33.9401 38.2491 32.9949 38.5387 31.2563 38.6177C29.3766 38.7042 28.812 38.7215 24.0499 38.7215C19.2879 38.7215 18.7248 38.7042 16.8457 38.6177M16.6981 6.37813C14.7997 6.46458 13.5026 6.76559 12.3697 7.2064C11.1972 7.66162 10.2033 8.27234 9.21084 9.26324C8.21837 10.2541 7.60923 11.2482 7.154 12.4221C6.71319 13.5557 6.41219 14.8521 6.32573 16.7505C6.23786 18.6518 6.21774 19.2597 6.21774 24.1023C6.21774 28.945 6.23786 29.5529 6.32573 31.4542C6.41219 33.3527 6.71319 34.6497 7.154 35.7826C7.60923 36.9551 8.21852 37.951 9.21084 38.9414C10.2032 39.9319 11.1958 40.5418 12.3697 40.9983C13.5047 41.4391 14.7997 41.7401 16.6981 41.8265C18.6004 41.913 19.2073 41.9345 24.0499 41.9345C28.8926 41.9345 29.5005 41.9144 31.4018 41.8265C33.3003 41.7401 34.5973 41.4391 35.7302 40.9983C36.9027 40.5418 37.8966 39.9323 38.889 38.9414C39.8815 37.9505 40.4894 36.9551 40.9459 35.7826C41.3867 34.649 41.6891 33.3525 41.7742 31.4542C41.8606 29.5514 41.8807 28.945 41.8807 24.1023C41.8807 19.2597 41.8606 18.6518 41.7742 16.7505C41.6877 14.852 41.3867 13.555 40.9459 12.4221C40.4894 11.2496 39.8799 10.2557 38.889 9.26324C37.8981 8.27077 36.9027 7.66162 35.7316 7.2064C34.5966 6.76559 33.3001 6.46316 31.4032 6.37813C29.5016 6.29126 28.894 6.27014 24.0521 6.27014C19.2101 6.27014 18.6011 6.29026 16.6988 6.37813" fill="white"/>
</g>
<defs>
<radialGradient id="paint0_radial_66_644" cx="0" cy="0" r="1" gradientUnits="userSpaceOnUse" gradientTransform="translate(3.10651 46.9485) scale(60.9422)">
<stop offset="0.09" stop-color="#FA8F21"/>
<stop offset="0.78" stop-color="#D82D7E"/>
</radialGradient>
<radialGradient id="paint1_radial_66_644" cx="0" cy="0" r="1" gradientUnits="userSpaceOnUse" gradientTransform="translate(33.2479 45.4072) scale(53.6297)">
<stop offset="0.64" stop-color="#8C3AAA" stop-opacity="0"/>
<stop offset="1" stop-color="#8C3AAA"/>
</radialGradient>
<clipPath id="clip0_66_644">
<rect width="48" height="48" fill="white"/>
</clipPath>
</defs>
</svg>
