<svg width="48" height="48" viewBox="0 0 48 48" fill="none" xmlns="http://www.w3.org/2000/svg">
<g clip-path="url(#clip0_66_649)">
<path d="M12.1715 47.8302C9.31697 47.7004 7.76628 47.2254 6.73487 46.8231C5.36821 46.291 4.39385 45.6576 3.36815 44.6333C2.34244 43.609 1.70761 42.6347 1.17835 41.268C0.776057 40.2366 0.301008 38.6859 0.171189 35.8313C0.0285315 32.7456 0 31.8198 0 24.0021C0 16.1845 0.0313847 15.2601 0.169763 12.1715C0.299581 9.31697 0.777484 7.76913 1.17693 6.73487C1.70904 5.36821 2.34386 4.39385 3.36672 3.36672C4.391 2.34244 5.36535 1.70618 6.73344 1.17693C7.76485 0.774631 9.31554 0.299581 12.1701 0.169763C15.2572 0.0285315 16.1845 0 23.9993 0C31.8169 0 32.7413 0.0313847 35.8299 0.169763C38.6845 0.299581 40.2323 0.777484 41.2666 1.17693C42.6332 1.70618 43.6076 2.34244 44.6333 3.36672C45.659 4.391 46.291 5.36678 46.8231 6.73344C47.2254 7.76485 47.7004 9.31554 47.8302 12.1701C47.9715 15.2587 48 16.1831 48 24.0007C48 31.8155 47.9715 32.7428 47.8302 35.8313C47.7004 38.6859 47.2225 40.2366 46.8231 41.268C46.291 42.6347 45.6576 43.609 44.6333 44.6333C43.609 45.6576 42.6332 46.291 41.2666 46.8231C40.2351 47.2254 38.6845 47.7004 35.8299 47.8302C32.7442 47.9715 31.8169 48 23.9993 48C16.1845 48 15.2572 47.9729 12.1715 47.8302Z" fill="#5AAF33"/>
<g clip-path="url(#clip1_66_649)">
<path d="M34.9452 12H13.0548C12.3895 12.0009 11.7309 12.1333 11.1167 12.3897C10.5025 12.6461 9.94476 13.0214 9.4753 13.4942C9.00583 13.967 8.63388 14.528 8.38074 15.145C8.12759 15.7621 7.99821 16.4232 7.99999 17.0905V29.1584C7.9991 29.8251 8.12914 30.4854 8.38268 31.1017C8.63623 31.718 9.00831 32.2782 9.47769 32.7503C9.94707 33.2223 10.5045 33.5971 11.1183 33.853C11.7321 34.109 12.3901 34.2412 13.0548 34.2421H20.5929L23.1711 38.4434C23.191 38.4885 23.2185 38.5298 23.2523 38.5656C23.3277 38.6967 23.4362 38.8056 23.5668 38.8812C23.6975 38.9569 23.8457 38.9968 23.9966 38.9968C24.1475 38.9968 24.2957 38.9569 24.4264 38.8812C24.557 38.8056 24.6655 38.6967 24.7409 38.5656C24.7775 38.528 24.8072 38.4844 24.8289 38.4366L27.4003 34.2353H34.9452C35.6099 34.2344 36.2679 34.1022 36.8817 33.8462C37.4954 33.5903 38.0529 33.2156 38.5223 32.7435C38.9917 32.2714 39.3637 31.7113 39.6173 31.095C39.8708 30.4787 40.0009 29.8183 40 29.1516V17.0905C40.0018 15.7434 39.4704 14.4506 38.5227 13.4962C37.5749 12.5417 36.2882 12.0036 34.9452 12Z" fill="white"/>
<path d="M15.1051 20.8438C14.4736 20.8907 13.8813 21.1685 13.4405 21.6244V18.5022H11.4849V26.6877H13.4608V26.0497C13.6383 26.3216 13.8832 26.5428 14.1714 26.6915C14.4596 26.8402 14.7813 26.9114 15.1051 26.8981C15.4874 26.8808 15.8624 26.7876 16.2086 26.624C16.5547 26.4604 16.8651 26.2296 17.1218 25.945C17.3786 25.6603 17.5765 25.3275 17.7042 24.9657C17.8319 24.6039 17.8869 24.2203 17.8659 23.837C17.8659 23.837 17.7644 20.8438 15.1051 20.8438ZM14.672 25.1606C14.4228 25.1606 14.1792 25.0863 13.9721 24.9473C13.765 24.8083 13.6036 24.6107 13.5086 24.3797C13.4135 24.1486 13.389 23.8944 13.4381 23.6493C13.4872 23.4043 13.6078 23.1793 13.7845 23.003C13.9612 22.8268 14.1861 22.7071 14.4307 22.6591C14.6752 22.6112 14.9285 22.6371 15.1584 22.7337C15.3882 22.8303 15.5843 22.9932 15.7218 23.2017C15.8593 23.4102 15.932 23.655 15.9306 23.9049C15.9306 24.0704 15.898 24.2342 15.8347 24.387C15.7714 24.5398 15.6786 24.6785 15.5616 24.7952C15.4446 24.9119 15.3058 25.0042 15.1532 25.0669C15.0005 25.1296 14.837 25.1615 14.672 25.1606Z" fill="#F27629"/>
<path d="M18.4952 18.319V20.2126C18.4952 20.2126 19.3884 20.1719 19.3884 21.8484V26.6877H21.2764V21.3936C21.2764 21.3936 21.3576 18.319 18.4952 18.319Z" fill="#F27629"/>
<path d="M25.8981 20.8711C25.8981 20.8711 22.6568 20.8711 22.6568 23.905C22.6568 23.905 22.5553 26.8982 25.8981 26.8982C25.8981 26.8982 29.207 26.8982 29.207 23.905C29.207 23.905 29.3153 20.8711 25.8981 20.8711ZM25.8981 25.1607C25.6489 25.1607 25.4053 25.0864 25.1981 24.9474C24.991 24.8084 24.8297 24.6108 24.7346 24.3798C24.6396 24.1487 24.615 23.8945 24.6642 23.6494C24.7133 23.4044 24.8338 23.1794 25.0105 23.0032C25.1872 22.8269 25.4121 22.7072 25.6567 22.6592C25.9013 22.6113 26.1546 22.6372 26.3844 22.7338C26.6143 22.8304 26.8104 22.9933 26.9479 23.2018C27.0854 23.4103 27.158 23.6551 27.1567 23.905C27.1567 24.0705 27.1241 24.2343 27.0608 24.3871C26.9974 24.5399 26.9046 24.6786 26.7877 24.7953C26.6707 24.912 26.5319 25.0043 26.3792 25.067C26.2266 25.1297 26.063 25.1616 25.8981 25.1607Z" fill="#F27629"/>
<path d="M34.6137 21.0951V21.6517C34.4114 21.4129 34.1592 21.2216 33.8751 21.0914C33.5909 20.9613 33.2817 20.8953 32.9693 20.8982C32.9693 20.8982 30.195 20.7829 30.195 23.9118C30.195 23.9118 30.195 26.8236 32.9017 26.8236C33.2259 26.831 33.5479 26.7682 33.8457 26.6393C34.1435 26.5105 34.4101 26.3187 34.6272 26.077V26.525C34.6272 26.525 34.7625 27.9639 33.3753 27.9639H32.9017V29.7014H33.6663C34.0602 29.7054 34.4506 29.6272 34.8127 29.4718C35.1749 29.3164 35.5008 29.0872 35.77 28.7988C36.0391 28.5103 36.2455 28.1688 36.3761 27.7961C36.5067 27.4234 36.5587 27.0275 36.5286 26.6336V21.0951H34.6137ZM33.443 25.1675C33.1938 25.1675 32.9502 25.0933 32.7431 24.9542C32.5359 24.8152 32.3746 24.6177 32.2796 24.3866C32.1845 24.1555 32.16 23.9013 32.2091 23.6562C32.2582 23.4112 32.3788 23.1862 32.5554 23.0099C32.7321 22.8337 32.9571 22.714 33.2016 22.666C33.4462 22.6181 33.6995 22.6441 33.9294 22.7407C34.1592 22.8372 34.3553 23.0001 34.4928 23.2086C34.6303 23.4171 34.703 23.6619 34.7016 23.9118C34.7016 24.0773 34.669 24.2411 34.6057 24.3939C34.5424 24.5467 34.4495 24.6854 34.3326 24.8021C34.2156 24.9188 34.0768 25.0112 33.9242 25.0739C33.7715 25.1366 33.608 25.1684 33.443 25.1675Z" fill="#F27629"/>
</g>
</g>
<defs>
<clipPath id="clip0_66_649">
<rect width="48" height="48" fill="white"/>
</clipPath>
<clipPath id="clip1_66_649">
<rect width="32" height="27" fill="white" transform="translate(8 12)"/>
</clipPath>
</defs>
</svg>
