<svg width="29" height="20" viewBox="0 0 29 20" fill="none" xmlns="http://www.w3.org/2000/svg">
<path d="M27.8672 1.71681C26.8205 0.495671 24.8879 0 21.1966 0H7.80055C4.02488 0 2.05945 0.529529 1.01953 1.82782C0 3.09336 0 4.95837 0 7.53996V12.46C0 17.4611 1.20645 20 7.80055 20H21.1989C24.4002 20 26.1736 19.5609 27.3212 18.4852C28.4982 17.3823 29 15.5795 29 12.46V7.53996C29 4.81794 28.9213 2.94183 27.8672 1.71681ZM18.6183 10.6794L12.534 13.7955C12.3914 13.8685 12.232 13.9043 12.0712 13.8993C11.9103 13.8943 11.7536 13.8488 11.6159 13.7671C11.4783 13.6854 11.3645 13.5703 11.2855 13.433C11.2065 13.2956 11.165 13.1406 11.165 12.9829V6.77065C11.165 6.61319 11.2064 6.45839 11.2852 6.32116C11.364 6.18393 11.4775 6.06889 11.6149 5.98714C11.7522 5.90538 11.9087 5.85965 12.0693 5.85436C12.2298 5.84907 12.3891 5.88439 12.5317 5.95693L18.6161 9.05306C18.7678 9.13056 18.895 9.24734 18.9837 9.39071C19.0724 9.53408 19.1193 9.69855 19.1193 9.86623C19.1193 10.0339 19.0724 10.1984 18.9837 10.3418C18.895 10.4851 18.7678 10.6019 18.6161 10.6794H18.6183Z" fill="white"/>
</svg>
