<svg width="36" height="36" viewBox="0 0 36 36" fill="none" xmlns="http://www.w3.org/2000/svg">
<path opacity="0.9" d="M14.1642 11.5668V24.4515C14.1642 25.2062 15.0195 25.648 15.6199 25.1878L24.1177 18.7455C24.609 18.3773 24.609 17.6411 24.1177 17.2729L15.6199 10.8306C15.0195 10.3704 14.1642 10.8122 14.1642 11.5668ZM15.9839 1.86651C15.9839 0.68848 14.9103 -0.213449 13.7821 0.0442451C11.7441 0.522819 9.81525 1.33271 8.10478 2.43712C7.14037 3.06294 6.9948 4.46185 7.81364 5.29016C8.39593 5.87917 9.32395 6.02643 10.0154 5.58466C11.4165 4.68274 12.9632 4.02009 14.6373 3.65196C15.438 3.46789 15.9839 2.71322 15.9839 1.86651ZM5.24794 7.90391C4.4109 7.07561 3.04616 7.20445 2.42748 8.19842C1.33569 9.92865 0.535045 11.8798 0.0619363 13.9413C-0.192815 15.0825 0.680617 16.1685 1.84519 16.1685C2.66403 16.1685 3.42829 15.6163 3.59206 14.8064C3.95598 13.1314 4.62925 11.5484 5.50269 10.1495C5.97579 9.43167 5.83022 8.49292 5.24794 7.90391ZM1.84519 19.8499C0.680617 19.8499 -0.211011 20.9359 0.0437398 22.0771C0.516849 24.1386 1.31749 26.0713 2.40928 27.82C3.02796 28.8139 4.4109 28.9428 5.22974 28.1145C5.81203 27.5255 5.9576 26.5867 5.50269 25.8873C4.61106 24.4884 3.95598 22.9238 3.59206 21.2304C3.42829 20.4021 2.68223 19.8499 1.84519 19.8499ZM8.10478 33.5629C9.83345 34.6673 11.7441 35.4772 13.7821 35.9557C14.9103 36.2134 15.9839 35.3115 15.9839 34.1519C15.9839 33.3236 15.438 32.5505 14.6373 32.3848C12.9814 32.0167 11.4165 31.3356 10.0336 30.4521C9.32395 30.0104 8.41412 30.1392 7.83184 30.7466C6.9948 31.5565 7.12217 32.937 8.10478 33.5629ZM36 18.0092C36 26.7156 29.9952 34.0414 21.9341 35.9373C20.8059 36.2134 19.7141 35.3115 19.7141 34.1335C19.7141 33.2868 20.2782 32.5505 21.0789 32.348C27.5386 30.8387 32.3607 24.9853 32.3607 18.0092C32.3607 11.033 27.5386 5.17972 21.0789 3.67037C20.2782 3.4863 19.7141 2.73162 19.7141 1.88492C19.7141 0.706886 20.8059 -0.195042 21.9341 0.0810585C29.9952 1.97695 36 9.30282 36 18.0092Z" fill="white"/>
</svg>
