<svg width="58" height="58" viewBox="0 0 58 58" fill="none" xmlns="http://www.w3.org/2000/svg">
<circle cx="29" cy="29" r="27.5" stroke="#5C2C64" stroke-width="3"/>
<path d="M10.872 39H22.152V35.544H18.936V21.12H15.792C14.544 21.912 13.296 22.392 11.376 22.752V25.392H14.664V35.544H10.872V39ZM29.945 39.336C33.713 39.336 36.257 36.12 36.257 29.976C36.257 23.856 33.713 20.808 29.945 20.808C26.177 20.808 23.609 23.832 23.609 29.976C23.609 36.12 26.177 39.336 29.945 39.336ZM29.945 36.024C28.673 36.024 27.641 34.872 27.641 29.976C27.641 25.104 28.673 24.072 29.945 24.072C31.217 24.072 32.225 25.104 32.225 29.976C32.225 34.872 31.217 36.024 29.945 36.024Z" fill="#5C2C64"/>
<path d="M47.744 35.774H49.186V26.436H47.744V27.976H44.384V29.124H47.744V30.37H44.384V31.518H47.744V35.774ZM45.784 32.386C44.034 32.694 42.508 32.792 40.87 32.806V27.304H39.428V33.996H40.408C42.284 33.996 43.964 33.912 45.924 33.562L45.784 32.386ZM42.424 37.664V34.948H40.982V38.84H49.508V37.664H42.424Z" fill="#5C2C64"/>
</svg>
