<svg width="414" height="114" viewBox="0 0 414 114" fill="none" xmlns="http://www.w3.org/2000/svg">
<g clip-path="url(#clip0_162_671)">
<path d="M49.9733 108.278L20.3112 59.2762C17.2977 54.1197 14.5672 48.8116 12.1314 43.3743C12.6274 51.3727 12.9933 72.9176 12.9933 85.824V108.278H-0.0163574V26.8718H17.8719L47.038 74.7038C50.144 80.007 53.242 85.7687 55.73 91.2221C55.2747 81.9355 54.8519 60.351 54.8519 47.4209V26.8718H67.8616V108.278H49.9733Z" fill="#672666"/>
<path d="M117.022 108.278C116.967 104.58 117.174 100.883 117.64 97.2131L117.51 97.0945C114.542 104.208 106.858 109.511 97.0521 109.511C86.4817 109.511 79.8062 103.125 79.8062 93.3561C79.8062 79.8491 93.946 72.0167 116.144 72.0167V68.6103C116.144 61.1336 112.891 57.2688 103.248 57.2688C96.9977 57.4302 90.8603 58.925 85.2702 61.6473L83.4001 51.0329C90.3911 48.5125 97.7837 47.207 105.24 47.176C124.21 47.176 129.414 55.119 129.414 67.409V98.2326C132.39 98.7147 136.61 99.1968 140.204 99.4418V107.393C132.509 108.233 124.761 108.529 117.022 108.278ZM116.144 80.6157C97.6619 80.6157 92.5638 85.6819 92.5638 91.2301C92.5638 95.9722 95.8162 99.3075 101.004 99.3075C110.062 99.3075 116.127 90.8665 116.127 82.3071L116.144 80.6157Z" fill="#672666"/>
<path d="M168.069 109.329C154.921 109.329 150.953 104.389 150.953 91.0086V58.3277H139.171V48.3219H150.953V29.2428L164.231 25.7732V48.3219H180.363V58.3277H164.231V87.0253C164.231 95.9483 166.085 98.3589 172.297 98.3589C174.841 98.3415 177.376 98.0606 179.859 97.5211L180.981 107.89C176.739 108.8 172.412 109.282 168.069 109.329Z" fill="#672666"/>
<path d="M233.906 108.278C233.905 104.311 234.195 100.349 234.776 96.4225H234.524C230.93 104.136 223.473 109.44 213.18 109.44C199.17 109.44 194.698 100.746 194.698 90.2736V58.3277C191.722 57.8456 187.51 57.3634 183.908 57.1263V49.1675C191.857 48.3367 199.856 48.0541 207.846 48.3218V86.7802C207.846 94.2649 209.968 98.7224 217.156 98.7224C226.336 98.7224 233.28 89.2382 233.28 77.138V48.3218H246.427V98.2403C249.411 98.7224 253.632 99.2045 257.225 99.4495V107.4C249.484 108.242 241.69 108.535 233.906 108.278Z" fill="#672666"/>
<path d="M275.886 109.448C271.281 109.478 266.693 108.912 262.242 107.764L263.226 96.7942C267.564 98.3203 272.143 99.0934 276.756 99.0783C283.7 99.0783 288.538 96.067 288.538 91.2459C288.538 78.9481 261.502 86.4248 261.502 65.6781C261.502 55.1902 269.69 47.1128 286.709 47.1128C290.634 47.1497 294.547 47.5547 298.393 48.322L297.58 58.6914C293.8 57.5735 289.871 57.0036 285.92 57.0001C278.602 57.0001 275.13 59.8927 275.13 64.4768C275.13 76.332 302.426 69.78 302.426 89.9181C302.458 101.252 292.254 109.448 275.886 109.448Z" fill="#672666"/>
<path d="M322.184 21.624C322.184 30.1676 327.226 30.8157 334.885 30.8157H396.063C408.26 30.8157 410.154 28.0811 412.577 17.3798V17.2138L412.382 17.1348L409.569 16.131C407.091 15.3243 404.663 14.3769 402.299 13.2937L401.991 13.1435V13.4913C401.991 21.1814 399.177 21.4975 392.233 21.4975H337.089C335.462 21.4975 334.446 21.2209 333.885 20.6518C333.324 20.0828 333.413 17.8145 333.413 16.7001H335.584C344.106 16.7001 373.857 16.3602 398.649 12.0212L398.901 11.9738L396.063 3.81739L396.006 3.6277H395.811C374.865 7.57945 336.812 8.03785 333.438 8.07737L333.942 0.521631L321.875 0L322.184 12.78V21.624Z" fill="#672666"/>
<path d="M338.381 78.5528H402.145L402.421 35.2258H338.381V78.5528ZM350.358 42.4812H390.274V47.8161H350.35L350.358 42.4812ZM350.358 54.21H390.274V59.5133H350.35L350.358 54.21ZM350.358 65.9625H390.274V71.2658H350.35L350.358 65.9625Z" fill="#672666"/>
<path d="M414 83.3977H329.535V54.2971L330.153 35.2892V35.0837L316.81 34.4751L317.452 54.2813V92.6922H343.553C335.723 96.2251 323.941 100.872 318.005 102.414L317.753 102.477L324.054 113.81L324.16 113.984L324.355 113.905C331.486 111.139 345.667 104.034 352.912 100.201L353.107 100.098L347.927 92.6764H384.305L379.037 99.8686L378.923 100.058L379.118 100.193C387.664 105.614 399.226 111.352 405.95 113.542L406.145 113.613L406.235 113.439C408.258 109.309 410.731 105.4 413.61 101.781L413.837 101.52L413.471 101.441C406.65 100.098 396.396 96.3358 389.16 92.6685H414V83.3977Z" fill="#672666"/>
</g>
<defs>
<clipPath id="clip0_162_671">
<rect width="414" height="114" fill="white"/>
</clipPath>
</defs>
</svg>
