<?xml version="1.0" encoding="utf-8"?>
<!-- Generator: Adobe Illustrator 25.4.1, SVG Export Plug-In . SVG Version: 6.00 Build 0)  -->
<svg version="1.1" id="레이어_1" xmlns="http://www.w3.org/2000/svg" xmlns:xlink="http://www.w3.org/1999/xlink" x="0px"
	 y="0px" viewBox="0 0 512 512" style="enable-background:new 0 0 512 512;" xml:space="preserve">
<style type="text/css">
	.st0{fill:#378932;}
	.st1{fill:#6FB22B;}
</style>
<g>
	<path class="st0" d="M98.01,344.53c0,0-0.21,0,0,0.23c0,0.31,0.17,0.41,0.37,0.43c-0.2,0.36-0.37,0.65-0.37,1.04
		c-0.13,0.34,0,0.58,0.08,0.91c0.09,0.13,0.12,0.22,0.29,0.22c-0.5,0.32-2.33,1.42-2.63,1.85c-0.12,0.13-0.12,0.33-0.26,0.48
		c0,0.09,0,0.15,0,0.2c-0.27,1.13-1.24,1.62-1.33,2.77c0,0.12,0,0.17,0,0.28c-0.51,0.46-0.84,1.07-0.58,1.56
		c-0.17,0.19-0.17,0.41-0.26,0.55c-0.26,0.47,0.33,0.47,0.84,0.23c0,0.1,0,0.18,0,0.27v0.17c-0.51,0.34-0.99,0.73-0.58,0.97
		c0.07,0.12,0.07,0.19,0.17,0.19l0,0c-0.1,0.13,0.11,0.65,0.23,1.2c0.01,0.41,0.19,0.79,0.47,1c0.09,0.38,0.23,0.66,0.28,0.72
		c-0.06,0.25-0.2,0.49-0.06,0.58c0.17,0.27,0.17,0.44,0.17,0.57c0,0.24-0.12,0.33-0.17,0.54c-0.14,0-0.23,0.13-0.42,0.19
		c-0.6,0.29-0.84,0.38-0.89,0.97c-0.03,0.46,0.05,0.58,0.39,0.65c0,0.12,0,0.17,0.11,0.27c-0.11,0.16-0.11,0.26-0.11,0.4
		c-0.1,0.15-0.34,0.45-0.39,0.67c-0.03,0.3,0.3,0.3,0.8,0.12v0.05c0,0.09,0,0.14,0,0.14c0.09,0.09,0.14,0.09,0.14,0.09
		c0.14,0.17,0.23,0.19,0.23,0.31c0.14,0.14,0.31,0.29,0.2,0.51c0,0.03,0,0.03-0.06,0.03c-0.23,0.22-0.37,0.47-0.23,0.63
		c0.09,0.4,0.4,0.79,0.49,1.18c0,0.03,0,0.16,0.12,0.16c0,0,0,0,0,0.04c0.07,0.05,0.07,0.26,0.07,0.31c0.1,0.17,0.22,0.17,0.63,0.14
		c-0.41,0.15-0.63,0.44-0.69,0.68c-0.53,0.33-0.81,0.67-0.39,1.07c0.27,0.18,0.67,0.47,0.55,0.9c-0.16,1.07,1.39,0.84,1.9,0.03
		c0.02,0.24,0.08,0.45,0.2,0.66c-0.06,0.03-0.12,0.09-0.12,0.15c-0.08,0-0.08-0.06-0.3,0c-0.67,0-1.83,1.44-0.56,1.32
		c0.28-0.1,0.51,0.28,0.56,0.49c0.06,0.09,0.24,0.1,0.3,0.1c0,0,0,0,0,0.12c-0.06,0.08-0.25,0.27-0.3,0.39
		c0,0.49,0.43,0.56,0.87,0.49c0.05,0.07,0.05,0.26,0.13,0.41c0,0.1,0,0.12,0.13,0.24c-0.13,0.21-0.13,0.39,0.17,0.49
		c0.37,0.23,0.51,0.23,0.58,0.71c0.09,0.18,0.32,0.31,0.65,0.26c-0.33,0.22-0.59,0.46-0.44,0.56c0.27,0.24,0.5,0.6,0.59,0.93
		l1.63,1.77c0,0.06,0,0.17,0.09,0.27c0,0.15,0.23,0.31,0.34,0.31l0.27,0.17c-0.27,0.2-0.27,0.43-0.27,0.62
		c0.27,0.34,0.62,0.33,0.97,0.24l0.3,0.26c0.34,1.16,0.84,2.43,1.38,3.64c-0.34,0.38-0.54,0.76-0.38,1.08l0,0
		c-0.16,0.21-0.16,0.38-0.16,0.55c0.27,0.13,0.37,0.3,0.66,0.39c0.1,0.07,0.17,0.18,0.46,0.17c-0.18,0.15-0.3,0.38-0.3,0.62
		c0.01,0.56,0.26,1.15,0.43,1.74c0,0.1,0.15,0.1,0.2,0.19c-0.37,0.53-0.63,1.11,0.11,1.3c0.48,0.09,0.76,0.09,1.15,0.09
		c-0.13,0.26-0.3,0.56-0.13,0.77c0.13,0.43,0.63,0.33,1.13,0.19c0.1-0.1,0.29-0.13,0.54-0.29c0.13,0.15,0.25,0.29,0.34,0.43
		c-0.59,0.44-1.38,1.29-0.78,1.21c0,0.07,0,0.07,0,0.14c0,0,0.19,0.02,0.4,0c-0.21,0.29-0.24,0.63,0.1,0.78
		c0.38,0.17,0.76,0.41,1.17,0.57c0,0.07,0,0.07,0,0.07c0,0.13,0,0.27,0,0.4c0.09,0.13,0.09,0.16,0.17,0.17
		c0.02,0.34,0.3,0.4,0.54,0.4c-0.2,0.15-1.32,0.82-1.3,1.01c0.07,0.08,0.13,0.28,0.17,0.47c-0.05,0.18,0.08,0.3,0.41,0.43
		c0.47,0.1,0.51,0.42,0.88,0.68c0.14,0.06,0.22,0.06,0.38,0.06c-0.16,0.19-0.38,0.33-0.38,0.56c-0.32,0.35,0,0.81,0.44,0.81
		c0.36,0,0.65,0,0.95,0c0.09,0,0.09-0.08,0.3-0.08c-0.3,0.24-0.44,0.56-0.21,0.76c0.58,0.57,0.8,1.2,0.71,1.93
		c-0.13,0.45,0.79,0.32,1.34-0.04c0,0.04,0,0.16,0,0.16c-0.38,0.32-0.66,0.69-0.38,1.15c0.22,0.53,0.58,1.04,0.68,1.64
		c0.12,0.54,0.71,0.54,1.3,0.3c0,0,0,0.08,0.12,0.16c-0.6,0.17-1.09,0.66-1.02,1c0.14,0.4,0.21,0.82,0.31,1.18
		c0.11,0.37,0.91,0.1,1.5-0.31c0.07,0.31,0.14,0.67,0.33,0.92c0,0-0.19,1.09,0.34,2.28c-0.6,0.3-1.2,0.7-0.91,1.02
		c0.8,1.07,1.42,2.34,1.42,3.72c-0.17,0.22,0.17,0.22,0.45,0.2l0,0c0.13,0.18,0.22,0.18,0.22,0.29c-0.3,0.12-0.67,0.31-0.89,0.72
		c-0.17,0.33-0.03,0.69-0.3,1.05c-0.28,0.81,0.51,1.03,1.18,0.81c0,0.46,0.26,0.8,0.58,1.1c0.22,0.15,0.22,0.15,0.38,0.15
		c0.24,0.15,0.34,0.28,0.42,0.5c0.08,0.26,0.67,0.2,1.12-0.07c0.18,0.09,0.18,0.09,0.18,0.21c-0.63,0.2-1.3,0.71-1.22,1.07
		c0,0.18,0,0.21,0,0.28c0.2,0.38,1.04,0.07,1.55-0.36c0.08,0.08,0.08,0.08,0.08,0.17c-0.41,0.17-1.04,0.47-1.17,0.7
		c-0.17,0.11-0.17,0.24-0.26,0.33c-0.2,0.38-0.06,0.57,0.26,0.57c-0.04,0.6,0,1.1,0.42,1.56c0.34,0.42,1.5-0.09,1.89-0.58
		c0.07,0.25,0.17,0.49,0.3,0.77c-0.69,0.13-1.53,0.8-1.22,1.1c0.62,0.75,0.99,1.47,0.99,2.5c-0.07,0.29,0.23,0.29,0.6,0.18v0.05
		c0.3,0.34,0.72,0.63,0.9,1.07c0.1,0.18,0.1,0.18,0.28,0.18c-0.18,0.22-0.47,0.41-0.38,0.69c0,0.11,0,0.17,0,0.17
		c-0.57,1.01,0.88,0.84,1.57,0.32c0.08,0.12,0.18,0.17,0.18,0.29c-0.7,0.22-1.46,1.01-1.16,1.25c0.2,0,0.2,0.04,0.4,0.1
		c-0.3,0.23-0.61,0.51-0.5,0.72c0,0.13,0.2,0.52,0.2,0.71c0.18,0.69,1.73,0.04,2.01-0.57c0.03,0.25,0.26,0.53,0.35,0.71
		c0.18,0.46,0.37,1.03,0.72,1.53c-0.13,0-0.18,0.05-0.18,0.07c-0.47,0.37-0.74,0.74-0.63,1.31c0.17,0.43,0.81,0.43,1.24,0.21
		c-0.31,0.22-0.43,0.55-0.26,0.86c0.58,0.47,1.06,0.95,1.27,1.63c0.01,0.21,0.4,0.21,0.66,0.16c0.22,0.31,0.54,0.75,0.83,1.13
		c-0.61,0.3-1.09,0.73-0.88,0.93c0.27,0.34,0.59,0.72,0.88,1.05c0.15,0.15,0.66,0.03,1.11-0.3c0.17,0.3,0.36,0.45,0.44,0.73
		c-0.77,0.38-1.39,1.19-0.5,1.38c0.59,0.17,0.83,0.48,1.24,0.84c0.21,0.26,0.67,0.19,1.1-0.05c0.14,0.21,0.28,0.31,0.46,0.51
		c-0.63,0.38-1.06,0.97-0.42,1.21c0.8,0.17,1.47,0.43,2.24,0.67c-0.27,0.13-0.69,0.22-0.93,0.55c-0.22,0.27-0.34,0.92,0.15,0.98
		c0.21,0.07,0.3,0.07,0.51,0.12c0.02,0.03,0.08,0.07,0.4,0.03c0.35,0.04,0.8,0.04,0.98,0.12c0.1,0,0.38-0.03,0.57-0.08
		c0.02,0.35,0.11,0.63,0.19,0.9c0.21,0.38,0.5,0.49,0.94,0.49c0.19,0,0.33,0.09,0.49,0.18c-0.3,0.17-0.64,0.62-0.34,0.73
		c1.08,0.12,1.76,0.45,2.36,1.3c0.09,0.1,0.3,0.1,0.7,0c0,0.07,0,0.1,0.1,0.1c0.2,0,0.2,0,0.28,0.03c-0.28,0.29-0.38,0.59-0.28,0.68
		c0.5,0.43,0.78,0.83,1.24,1.29c0.12,0.3,1.05,0.03,1.44-0.28l0,0c-0.34,0.28-0.81,0.65-0.51,1.14c0,0.1,0.17,0.28,0.25,0.31
		c-0.13,0.26-0.33,0.46,0,0.46c0.24,0.19,0.46,0.37,0.71,0.55c-0.17,0.18-0.25,0.31-0.17,0.59h0.12c-0.51,0.27-1,0.62-0.75,0.92
		c0.24,0.16,1.59-0.65,1.74-0.37c-0.41,0.25-0.86,0.6-0.59,0.88c0.45,0.26,0.45,0.61,0.65,1.07c0.12,0.28,0.58,0.25,0.96,0.03
		c-0.45,0.36-0.84,0.68-0.68,0.71c0.31,0.24,0.68,0.24,1.2,0.32c0.42,0.11,0.9-0.18,1.29-0.35c0-0.02,0.15-0.11,0.15-0.19
		c0,0.17,0.23,0.33,0.27,0.36c-0.61,0.29-1.01,0.7-0.81,0.79c0.2,0.21,0.39,0.25,0.54,0.42c0.33,0.4,2.3-0.51,2.1-0.92
		c-0.06-0.11-0.25-0.19-0.25-0.29c0.19,0,0.27,0,0.36,0c0.21-0.03,0.3-0.03,0.46-0.13c-0.17,0.13-0.24,0.32-0.25,0.53
		c-0.57,0.3-0.78,0.62-0.63,0.81c-0.06,0.07-0.06,0.16-0.16,0.18c-0.23,0.14-0.61,0.63-0.11,0.7c0.58,0.15,1.15-0.14,1.48-0.4
		c0.09-0.09,0.09-0.09,0.09-0.09c0.28,0.09-0.59,1.27-0.3,1.23c0.3-0.1,0.58-0.1,0.76-0.23c0,0.48,0.3,0.78,1.13,0.71h0.08
		c0.38,0.25,0.97,0.44,1.17,0.62c-0.58,0.5-0.97,1.14-0.79,1.29c0.58,0.28,1.01,0.72,1.51,1.08c0.29,0.18,0.87-0.17,1.26-0.55
		c0.29,0.19,0.58,0.49,0.88,0.7c-0.8,0.67-1.27,1.87-0.21,1.87c0.76,0,1.34,0.37,1.88,0.7c0.38,0.25,0.9,0,1.28-0.33
		c0.2,0.12,0.51,0.19,0.66,0.42c-0.63,0.6-0.87,1.51,0,1.51c1.04,0.1,2.05,0.21,3.15,0.42l0.19-0.42c0.92,0.56,6.04,2.72,9.53,1.9
		c5.74-2.35,6.96-8.5,10.09-14.17c3.03-5.6,5.12-7.14,9.6-10.85c2.2-1.6,4.41-4.04,4.58-4.04c0.48,0,1.1-0.43,1.37-0.67
		c0.21-0.16,0.66-0.57,0.1-0.53c-0.1-0.11-0.28-0.19-0.49-0.28c0-0.03,0-0.03-0.1-0.03h0.1c0.66-0.38,2.09-1.01,2.47-1.83
		c0.07-0.3,0.07-0.59,0.43-0.9c0.34-0.39,0.33-0.66,0.13-0.75c0.15-0.05,0.2-0.05,0.2-0.11c0.21,0.06,0.43,0.2,0.74,0.2
		c1.15,0,2.33-10.39,2.82-11.43c0-0.06,0-0.15,0-0.15c0.2-0.06,0.2-0.1,0.29-0.15c0.59-0.28,1.05-0.56,1.39-1.16
		c0.79-1-0.8-0.9-1.43-0.3c0-0.1,0.04-0.15,0-0.23c0.12-0.11,0.3-0.2,0.43-0.2c0.13-0.18,0.3-0.27,0.5-0.42
		c0.7-0.17,1.37-1.01,1.16-1.4c0.39-0.73,0.73-1.6,0.9-2.43c0.53,0,1.63-0.86,1.41-1.51c-0.23-0.4-0.65-0.36-1.16-0.21
		c0.03-0.1,0.03-0.14,0.03-0.18l0,0c0.24-0.2,0.48-0.29,0.71-0.41c0.41-0.18,0.93-0.59,1.21-1c0.76-0.06,1.45-0.74,1.26-1.29
		c0-0.2-0.22-0.33-0.22-0.49c-0.19-0.37-0.53-0.37-0.89-0.29c0.12-0.08,0.28-0.2,0.36-0.31c0.34-0.12,2.63-1.85,1.87-2.17
		c-0.45-0.11-1.04-0.34-1.21-0.89c0.09,0,0.17,0.06,0.17,0c0.5,0.06,1.04-0.2,1.36-0.37c0.44-0.15,0.89-0.5,1.19-0.94
		c0,0,0.13-0.15,0.21-0.16c0.18,0.16,0.25,0.3,0.5,0.44c1.57,0.73,4.71-2.07,3.12-3.04c0.63-0.32,0.92-0.75,1.1-1.21
		c0.17-0.46,0.32-0.94,0.25-1.49c-0.08-0.14-0.25-0.36-0.32-0.43c0.85-0.26,1.64-0.87,2.15-1.43c0.23-0.14,0.47-0.46,0.59-0.71
		c0,0,0.09-0.09,0.09-0.17c1.01-1.65,1.37-3.36,2.05-5.07c1.16-0.53,2.08-1.52,1.72-2.33c-0.15-0.41-0.42-0.71-0.71-0.92
		c0-0.06,0-0.12,0-0.17c0.09-0.11,0.09-0.11,0.15-0.17c0.04-0.17,0.04-0.34,0.14-0.52c0.27-0.66,0.78-1.18,1.4-1.79
		c0.2-0.2-0.23-4.43-0.23-4.71c0.23-0.36,0.43-0.7,0.43-0.97c-0.26-0.47-0.26-0.91-0.2-1.42c0.41-0.1,0.88-0.22,1.27-0.22
		c1.07-0.08,1.45-0.21,1.78-1.04c0.36-0.65,0.12-1.19-0.42-1.33c0.42-0.42,0.78-0.87,0.7-1.17c-0.43-1.02-0.8-1.96-1.09-2.91
		c0.39-0.39,0.59-0.99,0.47-1.53c-0.18-0.29,0.45-1.29,0.33-1.54c-0.21-0.69-0.97-0.8-1.59-0.67c-0.1-0.28-0.1-0.61-0.14-0.92
		c0.35-0.3,0.43-0.68,0.43-0.98c-0.21-0.41-0.39-0.95,0-1.28c0.5-0.61,0.23-0.99-0.48-0.88c0.82-0.65,1.45-1.63,1.07-2.5
		c-0.09-0.45-0.33-0.6-0.8-0.49c0.46-0.47,0.71-1.07,0.46-1.64c-0.16-0.45-0.33-0.91-0.54-1.43c-0.14-0.15-0.19-0.31-0.42-0.37
		c0.1-1.57,0-3.09-0.48-4.6c0-0.07-0.12-0.13-0.16-0.13c0.26-0.19,0.29-0.3,0.29-0.51c0-0.13,0.05-0.22,0.05-0.4
		c0.23-0.21,0.4-0.41,0.52-0.65c0.4-1.19,0.19-2.36,0-3.57c-0.13-0.06-0.23-0.06-0.29-0.17c0.06-0.08,0.16-0.21,0.29-0.36
		c0.4-0.59-0.23-0.6-0.7-0.59c0-0.23,0-0.37-0.21-0.6c-2.04-2.11-3.17-4.36-3.23-7.48c-0.19-0.72-0.86-0.81-1.77-0.53
		c-0.55-1.03-1.37-1.98-2.53-2.8c-0.32-0.27-0.39-0.57-0.7-0.85c0.55-0.42,1-0.92,0.7-1.31c-0.07-0.59-0.39-1.01-0.79-1.42
		c-0.37-0.48-1.31-0.26-2.17,0.21c-0.6-0.8-1.05-1.61-1.44-2.48c0.55-0.31,0.84-0.82,0.84-1.32l0.2-0.11
		c-0.05-0.18-0.2-0.22-0.2-0.34c-0.12-0.21-0.12-0.41-0.17-0.6c-0.03-0.18-0.33-0.3-0.75-0.21c-0.56-0.47-1.02-0.8-1.53-1.22
		c-0.06-0.17-0.06-0.34-0.19-0.44c0-0.09,0-0.26,0-0.29c0.21-0.1,0.21-0.12,0.13-0.07c0.82-0.53,0.57-1.51-0.13-1.51
		c0-0.08,0-0.08,0-0.08c0.21-0.18,0.51-0.34,0.52-0.51c0-0.42,0.26-0.72,0.36-1.13c0.21-0.08,0.44-0.37,0.29-0.5
		c0-0.16,0-0.38,0-0.46c-0.03-0.21-0.38-0.16-0.64,0c0,0,0,0,0-0.12c0.18-0.08,0.26-0.16,0.26-0.26c0-0.3,0.09-0.58,0.09-0.81
		c0-0.14-0.09-0.19-0.22-0.19c0.13-0.1,0.22-0.32,0.13-0.46c-0.08-0.19-0.26-0.29-0.28-0.47c-0.2-0.17-0.37-0.2-0.63-0.17
		c-0.25-0.18-0.43-0.44-0.43-0.68c-0.16-0.69-1.04-0.58-1.53-0.18c-0.53-1.07-0.98-2-1.27-2.91c-0.09-0.31-0.68-0.16-1.37,0.08
		c-0.3-0.39-0.59-0.73-0.93-1.12c0-0.03-0.04-0.03-0.17-0.03c0.51-0.58,0.69-1.2-0.09-1.45c-0.5-0.13-0.89-0.32-1.29-0.43v-0.06
		c0.35-0.28,0.5-0.61,0.4-0.96c-0.23-0.33-0.4-0.53-0.77-0.74c-0.2-0.08-0.51-0.08-0.8-0.01v-0.02c0-0.09-0.05-0.2-0.17-0.28
		c0.37-0.3,0.71-0.63,0.46-1c-0.09-0.4-0.46-0.77-0.68-1.08c-0.1-0.07,0-0.33-0.16-0.41c-0.16-0.15,0.06,1.17-0.16,1.1
		c0-0.08,0.16-0.18,0.08-0.37c-0.08-0.06-0.17-0.21-0.23-0.39c-0.1-0.18-0.25-0.25-0.51-0.25c-0.23-0.24-0.24-0.51-0.28-0.75
		c0-0.27-0.23-0.4-0.4-0.47c-0.05-0.14-0.09-0.22-0.09-0.22c0-0.19,0-0.37,0-0.56c0-0.12-0.3-0.12-0.64-0.04c0,0,0,0,0-0.08
		c0.11-0.02,0.22-0.13,0.34-0.26c0-0.28,0.08-0.57,0.08-0.77c0-0.12-0.08-0.12-0.2-0.12c0.12-0.12,0.2-0.35,0.12-0.46
		c0-0.19-0.23-0.29-0.3-0.44c-0.07-0.23-0.38-0.23-0.53-0.23c-0.27-0.17-0.33-0.51-0.48-0.76c-0.13-0.69-1.02-0.64-1.64-0.31
		c-0.09-0.18-0.18-0.38-0.18-0.67c0-0.13,0-0.38-0.3-0.65c-0.25-0.51-0.43-1.01-0.64-1.55c0-0.1-0.06-0.16-0.27-0.16
		c-0.1-0.28-0.3-0.46-0.6-0.7c-0.16-0.15-0.37-0.15-0.69-0.15l0,0c0-0.11-0.1-0.23-0.1-0.32c0.42-0.17,0.79-0.59,0.63-0.82
		c-0.22-0.48-0.42-0.81-0.63-1.18c0-0.18,0.1-0.29,0-0.47c-1.1-1.23-1.96-2.52-1.96-4.2c0-0.7-1.28,0.12-1.48,0.3l-0.08,0.11
		c0,0,0-0.07,0-0.09c0,0,0-0.02-0.23-0.14c0-0.32-0.08-0.65-0.08-1.07c0.7-0.45,0.96-1.44,1.39-1.87c1.04-1.32,0.37-1.33,0-1.96
		c-0.43-0.62,1.56-2.46,1.56-2.46c0,0.03,0,0.15,0,0.25c-0.38-0.97-0.94-1.58-2.05-1.61c-0.2,0.02-0.2,0.02-0.31,0.02
		c0.38-0.37,0.38-1.03,0.31-1.78c-0.11,0-0.2-0.1-0.31-0.15c0.12-0.1,0.31-0.2,0.38-0.13c1-0.09,1.39-1.29,0.2-1.22
		c-0.2,0.05-0.57,0.05-0.77,0.15c0-0.06,0-0.06,0-0.06c0.2-0.03,0.51-0.16,0.58-0.28c0.52-0.08,0.8-0.31,1.05-0.46
		c0.17-0.55,0.43-1.1,0.79-1.54c0.15,0,0-0.04,0.03-0.04c0.11-0.07,0.17-0.07,0.28-0.18c0.25-0.27,0-0.33-0.28-0.39
		c0,0,0.11-0.06,0.11-0.12c0.05-0.33-0.17-0.4-0.68-0.36c0.08-0.1,0.08-0.18,0.17-0.32c0.17-0.3,0-0.4-0.17-0.59
		c0.51-0.1,0.96-0.38,0.84-0.53c0-0.15-0.04-0.45-0.17-0.68c0.17-0.09,0.28-0.25,0.28-0.46c0-0.21,0-0.32,0-0.48
		c0-0.44-0.28-0.6-0.66-0.55c-0.13-0.37-0.22-0.64-0.22-0.92c0-0.23-0.49-0.1-0.87,0c-0.09-0.28-0.2-0.42-0.32-0.7
		c-0.04-0.63-1.16-0.55-2.14-0.22c0,0-0.01-0.06-0.01-0.22c0.37-0.09,0.77-0.31,1.07-0.67c0.3-0.28-0.3-0.33-0.49-0.33
		c-0.26,0-0.57,0.09-0.9,0.33c-0.06,0-0.17,0-0.29,0.08c-0.09-0.08-0.14-0.08-0.17-0.13c0.39-0.07,0.77-0.28,0.82-0.6
		c0.06,0,0.06-0.14,0.11-0.26c0,0,0,0,0-0.06c0.61-0.18,1.13-0.67,0.61-1.04c-0.28-0.24-0.61-0.39-0.87-0.64
		c-0.22-0.15-0.5-0.15-0.78,0c0,0,0,0,0-0.08c-0.19-0.27-0.59-0.32-0.98-0.24c-0.29-0.25-0.61-0.34-1.1-0.49c-0.08,0-0.39,0-0.7,0
		c0.38-0.39,0.63-0.82,0-1c-0.38-0.24-0.76-0.43-1.17-0.61c0,0,0.08-0.06,0.16-0.15c0.34-0.44-0.56-0.38-0.75-0.44
		c-0.19-0.11-0.19-0.35-0.36-0.51c-0.21-0.22-0.63-0.3-0.95-0.44c-0.03-0.5,0.42-1.05,0.25-1.54c-0.11-0.2-0.28-0.24-0.5-0.38
		c-0.28-0.05-0.58,0-0.63-0.21c-0.17-0.49,0.42-0.87,0.24-1.37c-0.12-0.28-0.24-0.34-0.41-0.4c-0.17-0.24,0-0.44,0-0.68
		c-0.15-0.02-0.17-0.04-0.35-0.08c-0.07-0.26,0.19-0.63-0.23-0.72c0-0.1-0.21,0-0.31,0.02c-0.4-0.44-0.78-0.92-1.23-1.43
		c-0.1-0.05-0.17-0.17-0.24-0.17c-0.07-0.13-0.18-0.18-0.18-0.33c-0.23-0.36-0.8-0.51-1.25-0.36c0,0.03-0.12,0.03-0.12,0.16
		c-0.3,0.07-0.52,0.2-0.67,0.4c-0.14-0.08,0-0.2-0.14-0.2c-0.71-1.29-1.59-2.43-2.65-3.43c-0.53-0.55-1.12-0.4-1.71-0.03
		c-0.04-0.15-0.17-0.31-0.24-0.52c0.67-0.46,1.13-1.15,0.83-1.78c-0.16-0.2-0.3-0.52-0.41-0.76c-0.14-0.18-0.18-0.22-0.35-0.28
		c0.04-0.03,0-0.13,0-0.22c0-0.14-0.07-0.36-0.24-0.57c0.76-0.62,1.33-1.39,1.04-2.36c-0.04-0.34-0.59-0.32-1.13-0.03
		c0-0.09,0.07-0.11,0-0.11c0-0.73-0.16-1.52-0.26-2.16c0.26-0.39,0.34-0.65,0.34-1.04c0.37-0.36,0.41-0.66,0.45-1.26
		c0.14-0.46,0-1.27,0.47-1.54c0.32-0.16,0.67,0,1-0.16c0.32-0.14,0.88-0.46,1.01-0.74c0.25-0.22,0.25-0.38,0.17-0.56
		c0.23-0.38,0.28-1.03-0.2-1.35c-0.43-0.33-0.89-0.66-1.26-1c0-0.1,0-0.18,0-0.33c0-0.12,0.09-0.23,0.09-0.41
		c0.15-0.12,0-0.2-0.13-0.28c0.04-0.42,0.42-0.38,0.33-0.81c0-0.44-0.33-0.8-0.47-1.13c-0.53-0.65-1.27-1.01-2.02-1.46
		c-0.05-0.06-0.18-0.06-0.3-0.06c-0.88-3.46-2.15-6.76-3.77-9.87c-0.5-0.6-1.18-0.66-1.89-0.41c-0.29-0.11-0.72-0.19-1.06-0.23
		c-0.33-0.02-0.65,0.12-0.99,0.18c-0.06-0.06-0.15-0.2-0.3-0.23c0.3-0.18,0.39-0.36,0.39-0.6c0-0.93-0.97-1.04-1.87-0.82
		c-0.5-0.35-0.92-0.73-1.08-0.94c-0.54-1.74-1.38-3.25-1.95-4.87c0.06-0.26,0.19-0.44,0.06-0.66c0-0.47-0.06-0.91-0.25-1.41
		c0-0.68-1.04-0.71-1.7-0.59c-0.15-0.25-0.15-0.47-0.21-0.69c0-0.05,0-0.1,0-0.1l0.06-0.1c0.17-0.85,0.35-1.57,0.35-2.33
		c0-0.28-0.47-0.28-1.14-0.23c-0.55-1.19-0.84-1.58-0.84-1.58c-0.32-0.69-0.59-1.05-1.01-1.61c-0.16-0.62-0.37-1.35-0.46-2.13
		c-0.17-0.3-0.88-0.24-1.66-0.04c-0.18-0.15-0.31-0.3-0.39-0.39c-1.76-1.69-3.77-3.55-6.11-5.04c-0.87-0.59-1.51-0.18-1.51-0.18
		c0.03-0.27-0.63-0.19-1.45-0.1c-0.7-1.28-1.07-1.79-1.07-1.79c-0.66-0.65-0.91-1.08-1.52-1.56c-0.29-0.77-0.57-1.52-0.86-2.33
		c-0.1-0.37-1.05-1.05-2.03-0.73c-0.19-0.08-0.4-0.63-0.71-0.78c-0.65-0.61-1.96-1.45-2.62-1.16c-0.77,0.37-2.18-0.47-3.52-0.61
		c-0.82-0.14-2.14-0.16-2.2,0.53c-0.1-0.07-0.31-0.08-0.37-0.08c0.05-0.09,0.05-0.09,0.05-0.09c0.31-0.3,0.22-0.63-0.23-0.67
		c-0.45-0.11-0.95-0.22-1.32-0.37c-0.62-0.23-2.35,0.68-1.68,1.03c-0.17,0.09-0.29,0.11-0.5,0.17c0.21-0.2,0.33-0.37,0.21-0.53
		c0-0.28-0.17-0.52-0.32-0.81c-0.26-0.69-2.31,0-2.1,0.72l0.07,0.09c-0.07,0.03-0.07,0.06-0.07,0.15c-0.13,0.15-0.2,0.3-0.2,0.38
		c-0.15,0-0.15,0-0.15,0c-0.66,0.08-2.32,1.08-0.87,0.98c0.11,0,0.21,0,0.21,0c0.09,0,0.3,0,0.34-0.15
		c-0.04,0.44,0.14,0.63,0.32,0.72c-0.1,0.13-0.18,0.25-0.27,0.4c-0.09,0.2-0.18,0.26-0.3,0.48c0,0.06,0,0.06,0,0.06
		c-0.09,0.04-0.09,0.22-0.09,0.22c0,0.05-0.04,0.05-0.04,0.05c-0.66,0.13-1.25,0.43-1.42,1.05c-0.13,0.31,0.3,0.44,0.76,0.41
		c-0.1,0.21-0.1,0.65-0.28,1.01c-0.31,0-0.48,0.11-0.61,0.25c-0.8-0.14-1.66,0.31-1.66,0.73c0,0.29,0.02,0.57,0.02,0.79
		c0.08,0.32,0.31,0.42,0.67,0.47c-0.36,0.12-0.59,0.35-0.52,0.61c0,0.06,0,0.18,0,0.2c-0.07,0.27,0.17,0.39,0.48,0.45
		c-0.31,0-0.54,0.2-0.65,0.3c0,0.02,0,0.02,0,0.02c-0.61,0.17-1.12,0.38-1.2,0.69c-0.29-0.01-0.68,0.13-0.96,0.27
		c-0.08,0.02-0.8,0.39-0.59,0.33c-0.32,0.06-0.8,0.57-0.54,0.85c0.22,0.15,0.54,0.15,0.95,0.05c0,0.11,0,0.16-0.24,0.29
		c0,0.01,0,0.15,0,0.15c-0.38,0.41-0.05,0.88,0.42,0.97c0.54,0.15,1.12-0.09,1.47-0.51c-0.17,0.23-0.34,0.57-0.5,0.84
		c-0.58,0.15-1.14,0.41-1.38,0.76c-0.17,0.11-0.38,0.23-0.6,0.47c0,0.08-0.1,0.18-0.1,0.2c-0.56,0.25-0.93,0.67-0.68,0.9
		c-0.25,0.15-0.47,0.28-0.47,0.47c0,0.24,0,0.37,0.05,0.53c0.17,0.42,0.54,0.6,1.1,0.42c-0.26,0.54-0.56,1.01-0.84,1.53
		c-0.47,0.17-0.81,0.33-0.88,0.7c-0.06,0.07-0.25,0.3-0.32,0.52c0,0.22,0,0.31,0.22,0.35c-0.15,0.2-0.24,0.47-0.29,0.57
		c-0.24,0.35-0.59,0.63-1,1.12c-0.09,0-0.29-0.04-0.33-0.04c-0.48,0.04-0.34,1.81-0.63,2.2c-0.54,0.86-1.2,1.93-1.2,1.93
		s0,0.11,0,0.81c0,0.76,0.11,1.35-0.47,2.01c-0.67,0.78-2.26,1.42-2.18,2.67c-0.36,0.29,0.37,0.39,0.58,0.39
		c0.09,0,0.21,0,0.21-0.07c-0.57,0.66-1.15,1.43-1.71,2.35c-0.58,0.03-1.05,0.25-1.43,0.51c-0.4,0.18-0.24,0.44,0.1,0.44
		c0.08,0,0.2-0.08,0.24-0.1c0.23,0.02,0.42-0.05,0.6-0.05c-0.13,0.15-0.28,0.39-0.28,0.58c-0.36,0.05-0.61,0.14-0.86,0.29
		c-0.7,0.28-0.98,0.95-0.61,1.21l-0.09,0.02c-0.09,0.06-1.06,0.58-0.5,0.29c-0.07,0.08-0.93,0.5-0.56,0.66
		c0.35,0.16,0.97-0.11,1.37-0.27c-0.04,0.16-0.1,0.27-0.22,0.37c-0.6-0.02-1.53,0.42-1.46,0.91c0,0.17,0.11,0.2,0.11,0.36
		c0,0.42,0.28,0.45,0.67,0.45c-1.1,2.97-1.6,5-2.27,9.89c-0.19,0.11-0.46,0.25-0.55,0.48c-0.4,0.3-0.46,0.7-0.63,1.2
		c-0.12,0.36,0.05,0.54,0.4,0.57c-0.23,0.18-0.4,0.37-0.35,0.55c0,0.15,0,0.38,0,0.51c0,0.12,0.03,0.18,0.12,0.22
		c-0.09,0.13-0.09,0.19-0.09,0.29c0,0.09,0,0.17,0,0.25c0,0.31,0.32,0.52,0.63,0.52c0,0.5,0,1,0,1.45c-0.63,0.06-1.3,0.38-1.3,0.8
		c0,0.18,0,0.21,0,0.28c0.11,0.46,0.8,2.84,1.2,2.78c-0.32,0.15-0.54,0.38-0.54,0.69c0,0.06,0,0.16,0.09,0.28
		c0,0.43,0.29,0.57,0.7,0.57c0,0.32,0,0.55-0.07,0.91c0,0,0.18,0.89,0.12,2.21c-0.52,0.21-1.04,0.53-1.01,0.78
		c0,0.25,0,0.38,0.09,0.6c-0.09,0.23,0.4,0.25,0.88,0.1c-0.07,0.27-0.16,0.6-0.16,0.94c-0.26,0.11-0.41,0.27-0.5,0.32
		c-0.17,0.12-0.31,0.3-0.39,0.39c-0.3,0.2-0.6,0.41-0.6,0.67c0.03,0.1,0.03,0.3,0.03,0.55c0,0.34,0.35,0.38,0.83,0.38
		c-0.2,0.66-0.5,1.27-0.85,1.87c-1.04,1.6-1.37,3.4-1.29,5.07c-0.5,0.05-1.09,0.22-1.3,0.44c-0.23,0.31-0.4,0.48-0.4,0.89
		c0,0.35,0.32,0.43,0.61,0.43c0,0.09-0.22,0.1-0.3,0.23c-0.59-0.42-2.03,0.09-2.03,0.69c0.23,0.49,0.36,0.83,0.97,1.05
		c0.2,0,0.59,0,0.75-0.18c0.13,0.27,0.17,0.45,0.17,0.7c-0.65,0.06-1.32,0.41-1.32,0.73c-0.21,0.18-0.29,0.24-0.21,0.44
		c0,0.38,0,0.66,0,1.02c0.13,0.21,0.61,0.16,1.09,0.05c0.11,0.19,0.27,0.47,0.41,0.64c-0.24,0.18-0.3,0.39-0.3,0.52
		c0,0.41,0.16,0.57,0.48,0.8l0.08,0.04c-0.23,0.27-0.5,0.37-0.4,0.69c0,0.58-0.16,1.17-0.16,1.78c0,0.35,0.3,0.55,0.56,0.59l0,0
		c0,0.2,0.22,0.2,0.22,0.3c0,0,0,0.11,0,0.15c-0.44,0.06-1.01,0.37-1.01,0.69c0.12,0.19,0.12,0.34,0.12,0.53
		c0,0.22,0.27,0.22,0.67,0.08c0,0.14,0,0.25,0,0.39c-0.17,0.15-0.26,0.43-0.56,0.66c0,0-0.59,0.79-0.32,1.81
		c0.09,0.93,0.21,1.8,0,2.69c0,0.87-1,1.28-1.23,1.66c-0.27,0.88-0.42,1.83-0.96,2.61c-0.24,0.35,0.68,0.25,0.85,0.25
		c0.05,0,0.1-0.09,0.33-0.09c-0.23,0.1-0.23,0.23-0.29,0.38c-0.34,0.07-0.85,0.18-0.9,0.41c-0.24,0.13-0.36,0.25-0.52,0.43
		c0,0.05-0.14,0.05-0.23,0.05c0,0,0.1-0.1,0.1-0.16c0.3-0.48-1.83-0.19-2.05,0.39c-0.54,1-0.95,2.06-1.56,3.04
		c-0.54,0.68,1.67,0.33,2-0.2v-0.05c0.23,0.05,0.37,0.05,0.54,0.05c-0.31,0.3-0.48,0.56-0.6,0.88c-0.6-0.35-2.49,0.37-1.94,0.9
		c0.17,0.16,0.48,0.45,0.66,0.64c-0.01,0.02-0.05,0.02-0.05,0.17c-0.27,0.87-0.22,1.66,0.83,2c0,0,0.23,0,0.33,0
		c0.08,0.1,0.08,0.15,0.23,0.25c-0.44,0.12-0.65,0.38-0.73,0.67c0,0.45-0.26,0.75-0.52,1.11c0,0.13,0,0.24,0,0.24
		c-0.15,0.2-0.28,0.29-0.15,0.35c-0.52,0.11-0.43,0.41-0.43,0.69c0,0.25,0,0.48,0,0.65c-0.17,0.3-0.39,0.6-0.59,0.91
		c-0.13,0.27,0.37,0.31,0.9,0.27c0,0,0,0.04,0,0.07c0.13,0.18,0.18,0.2,0.28,0.24v0.02c0.11,0.16,0.35,0.49,0.26,0.66
		c0,0.07,0,0.07-0.11,0.07c-0.24,0.23-0.43,0.38-0.3,0.52c0.15,0.6,0.5,1.2,0.5,1.81c0.17,0.11,0.34,0.18,0.67,0.18
		c-0.33,0.14-0.72,0.37-0.76,0.56c-0.54,0.27-0.93,0.65-0.54,0.97c0.28,0.22,0.8,0.57,0.57,0.98c-0.3,1.1,1.76,0.89,1.98,0.08
		c0.09-0.07,0.09-0.14,0.09-0.2c0.06,0.2,0.2,0.33,0.32,0.48c0.07,0.09,0.07,0.23,0.07,0.36c-0.19,0.06-0.33,0.16-0.48,0.21
		c-0.12,0-0.22,0-0.22,0c-0.96-0.05-2.21,1.15-0.76,1.19c0.3,0,0.48,0.4,0.48,0.54c0.21,0.12,0.28,0.17,0.37,0.21
		c-0.16,0.23,1.9,0.51,2.04,0.63c0.27,0.32,0.5,0.5,0.55,0.89c0,0.07,0.08,0.16,0.08,0.21c-0.13,0.25-0.13,0.34,0.13,0.49
		c0.37,0.19,0.54,0.34,0.68,0.8c0,0.16,0.28,0.28,0.55,0.28c-0.42,0.15-0.65,0.41-0.48,0.53c0.21,0.26,0.48,0.54,0.48,0.87
		c0,0.28,0.82,0.15,1.28,0c0,0.64,0.13,1.27,0.5,1.94v0.16c0,0,0,0.06-0.08,0.08c-0.24,0.19-0.42,0.38-0.5,0.53
		c0.09,0.35,0.09,0.54-0.1,0.85c-0.28,0.35,0.31,0.46,0.6,0.41c0.08,0,0.08-0.07,0.24-0.07c0.09,0.18,0.09,0.35,0.16,0.53
		c-0.4,0.1-0.82,0.38-0.82,0.6v0.03c-0.12,0.03-0.25,0.06-0.37,0.15c-0.75,0.56-0.92,4.32-0.52,5.15c0.22,0.18,0.64,0.34,0.89,0.22
		c-0.47,0.25-0.89,0.64-0.67,0.87c0.42,0.28,0.67,0.53,0.87,0.79c0,0.12,0.22,0.16,0.3,0.21c0,0.12,0,0.29,0.16,0.35
		c0,0.18-0.16,0.37-0.16,0.57c-0.3,0.21-0.59,0.48-0.59,0.74c0.09,0.55,0.09,1.13,0.21,1.56c0,0.09,0.07,0.14,0.07,0.19
		c0,0.17-0.02,0.38,0,0.47c0.22,0.12,0.22,0.16,0.3,0.23c0,0.09,0.16,0.17,0.25,0.17c-0.25,0.18-0.42,0.37-0.42,0.5
		c0,0.16,0.09,0.29,0.09,0.42c-0.29,0.42-0.5,0.86-0.22,0.86c0.3,0.04,0.55,0.1,0.79,0.22c-0.17,0.1-0.23,0.17-0.23,0.3
		c-0.25,0.11-0.33,0.29-0.55,0.37c0,0,0,0.02-0.02,0.04c-0.17,0.1-0.26,0.25-0.26,0.42c-0.1,0.08-0.16,0.14-0.16,0.33
		c0,0-0.12,0.02-0.12,0.14c-0.1-0.12-0.3-0.14-0.52-0.14C99.47,342.82,98.2,343.38,98.01,344.53z"/>
	<path class="st1" d="M421.05,334.4c0.11-1.01-0.49-1.59-1.31-1.84c0-1.55,0.16-3.03,0.33-4.5c0.62-0.3,1.1-0.58,0.94-0.75
		c-1.03-1.32-1.82-2.77-2.39-4.31c-0.4-0.8-1.45-2.88-0.82-3.79c0.26-0.39-0.25-0.54-0.96-0.54c-0.9-4.22-1.38-8.45-1.8-12.71
		c0-0.09-0.09-0.09-0.17-0.09c0.47-0.3,0.85-0.59,1.07-0.98c0.38-0.92,0.52-1.86,0.9-2.76c0.13-0.31,0-0.61-0.31-0.64
		c0.39-0.26,0.7-0.53,0.76-0.82c0-0.21,0.13-0.35,0.25-0.59c0.25-0.23,0.51-0.47,0.76-0.75c0.88-1.5,0.88-3.18,0.88-4.94
		c0-0.13-0.09-0.3-0.3-0.32c0.21-0.2,0.3-0.37,0.39-0.47c0.92-0.7,0-0.89-0.66-1.02c0.1-0.22,0.1-0.55-0.16-0.86
		c-2.22-3.8-3.12-7.37-2.53-11.8c0.2-0.94-0.9-1.3-2.06-1.3c-0.65-1.62-1.58-3.4-2.75-4.88c-0.34-0.4-0.63-0.94-0.92-1.39
		c0.92-0.42,1.68-0.96,1.59-1.66c-0.08-0.85-0.62-1.59-0.89-2.3c-0.42-0.75-1.78-0.75-3.11-0.46c-0.53-1.32-1.04-2.64-1.36-3.83
		c0.95-0.4,1.62-1,1.62-1.75c0-0.43,0-0.93,0-1.41c0-0.63-1.18-0.81-2.47-0.63c-0.08-1-0.33-1.89-0.45-2.92
		c0.12-0.07,0.12-0.23,0.12-0.32c0.25-0.1,0.43-0.19,0.12-0.1c1.38-0.53,1.26-1.98,0.3-2.18v-0.09c0.37-0.16,0.66-0.34,0.79-0.53
		c0.29-0.55,0.62-1.03,0.91-1.44c0.38-0.2,0.67-0.43,0.67-0.62c0-0.25,0-0.47,0-0.77c0-0.19-0.36-0.19-0.87-0.19c0,0,0,0,0-0.08
		c0.2-0.05,0.38-0.25,0.51-0.4c0.07-0.43,0.24-0.74,0.24-1.1c0.12-0.16,0-0.16-0.17-0.25c0.17-0.16,0.33-0.42,0.29-0.65
		c-0.12-0.32-0.29-0.53-0.36-0.78c-0.13-0.27-0.43-0.41-0.82-0.41c-0.17-0.37-0.28-0.76-0.28-1.19c-0.12-1-1.33-1.16-2.19-0.73
		c-0.38-1.63-0.76-3.21-0.87-4.54c-0.12-0.65-1.77-0.61-3.28-0.15c-0.34-0.49-0.65-0.93-1.15-1.44c1.78-0.71,3.01-1.95,1.37-2.92
		c-0.56-0.32-1.04-0.63-1.57-1.03c0.6-0.23,1.01-0.69,0.9-1.17c-0.2-0.61-0.5-0.97-0.9-1.41c-0.18-0.16-0.61-0.26-1.05-0.26v-0.01
		c0-0.19,0-0.38-0.17-0.49c0.62-0.16,1.12-0.72,0.95-1.3c-0.41-1.21-1-2.24-1.46-3.38c-0.27-0.69-1.33-0.69-2.1-0.39
		c-0.08-0.3-0.25-0.62-0.37-0.88c-0.11-0.68-1.06-0.82-1.97-0.71c-0.24-0.12-0.24-0.34-0.4-0.47c-0.38-0.2-0.98-0.2-1.49-0.13
		c-0.59-0.68-1.26-1.39-1.87-1.9c0-0.15,0-0.27-0.15-0.48c0-0.1-0.09-0.21-0.24-0.37c0.45-0.26,0.83-0.59,0.45-0.82
		c-0.55-0.72-0.83-1.2-0.9-2.17c0-0.23-0.33-0.36-0.8-0.41c0.08-0.08,0.08-0.17,0-0.36c-0.23-0.59-0.41-1.19-0.78-1.7
		c-0.61-0.69-2.29-0.22-2.8,0.52c-0.11,0-0.11,0-0.29,0.08c-0.04-0.26-0.1-0.68-0.26-1.1c0.43-0.07,0.68-0.13,0.96-0.3
		c0.4-0.22,0.89-1.01,0.24-1.25c-0.24-0.13-0.4-0.32-0.53-0.57c-0.12-0.22-0.23-0.22-0.45-0.25c0.04-0.28,0.14-0.51,0.22-0.79
		c0.77-0.04,1.9-0.51,1.9-1.08c0-0.22,0.18-0.44,0.18-0.79l0,0c0.29-0.15,0.6-0.21,0.66-0.42c0.59-0.58,0.87-1.09,0.94-1.82l0,0
		c0-0.13,0-0.19,0-0.19c0-0.08,0-0.09,0-0.18c0-0.13,0-0.21,0-0.38c0-0.12-0.11-0.17-0.23-0.24c0.31-0.3,0.23-0.64-0.07-0.75
		c0,0,0.07,0,0.13-0.04c0.51,0.98,2.91,0.43,2.91-0.58c0-0.5,0-1.04,0-1.55c0-0.26-0.05-0.47-0.38-0.57c0.57-0.28,1-0.88,0.57-1.45
		c-0.19-0.25-0.24-0.48-0.5-0.69c0.5-0.33,0.93-0.64,0.31-0.87c-0.05-0.11-0.38-0.38-0.48-0.64c-0.23-0.31-0.84-0.22-1.45-0.1
		c-0.23,0-0.23-0.05-0.43-0.1c0.5-0.18,0.78-0.46,0.78-0.74c0-0.22,0-0.57,0-0.76c0-0.29-0.58-0.42-1.33-0.24
		c-0.13-3.81,2.27-5.32,3.01-9.41c0.09-0.69-0.41-1.14-1.13-1.34c0-0.02,0-0.13,0-0.21c2.04-0.48,2.04-1.97,1.64-3.9
		c0-0.21,0-0.22-0.3-0.29c0.13-0.24,0.3-0.29,0.7-0.24c1.58-0.05,2.24-2.12,0.28-2.02c-0.5,0.03-0.97,0.1-1.29,0.2
		c0-0.03,0-0.1,0-0.1c0.31-0.07,0.7-0.2,1.01-0.46c0.66-0.07,1.37-0.4,1.58-0.67c0.36-0.93,0.7-1.8,1.36-2.57
		c0.1-0.04,0-0.08,0.1-0.13c0.08,0,0.16-0.07,0.16-0.21c0.43-0.42,0-0.62-0.27-0.63c0.1-0.09,0.1-0.2,0.16-0.28
		c0.05-0.47-0.39-0.6-1.06-0.58c0.09-0.22,0.21-0.32,0.25-0.47c0.25-0.47,0-0.76-0.34-0.92c0.76-0.19,1.58-0.65,1.46-0.87
		c-0.2-0.37-0.25-0.79-0.36-1.2c0.16-0.2,0.48-0.47,0.48-0.76c0-0.28,0-0.52,0-0.78c0-0.64-0.58-0.99-1.24-0.99
		c-0.17-0.49-0.25-1.07-0.34-1.51c-0.11-0.37-0.9-0.33-1.67-0.08c0-0.43-0.28-0.79-0.28-1.16c-0.23-1.03-2.1-1.03-3.74-0.45
		c-0.07-0.09-0.18-0.22-0.18-0.29c0.75-0.24,1.39-0.65,1.88-1.19c0.59-0.4-0.3-0.6-0.71-0.6c-0.42,0-0.99,0.23-1.5,0.5
		c-0.1,0.01-0.24,0.09-0.43,0.1c-0.03-0.08-0.17-0.1-0.37-0.1c0.7-0.2,1.31-0.5,1.31-0.93c0.08-0.1,0.16-0.27,0.33-0.41
		c0-0.13,0-0.16,0.04-0.21c0.83-0.3,1.64-1.06,0.83-1.68c-0.41-0.44-1.05-0.76-1.51-1.2c-0.21-0.24-0.69-0.28-1.18-0.08
		c-0.11-0.02-0.11-0.02-0.11-0.02c-0.18-0.49-0.89-0.54-1.47-0.45c-0.62-0.32-1.17-0.6-1.93-0.78c-0.33-0.09-0.74-0.14-1.13-0.18
		c0.6-0.5,0.92-1.29-0.08-1.7c-0.81-0.3-1.47-0.67-2.1-1.15c0.22,0,0.31-0.03,0.31-0.13c0.49-0.48-0.39-0.65-0.74-0.65
		c-0.22,0-0.45,0-0.8,0.11c-0.29-1.18-0.71-2.24-1.37-3.18c-0.07-0.18-0.25-0.18-0.33-0.18c-0.36-3.13-1.69-5.93-3.84-8.14
		c0.94-0.47,1.48-0.97,1.1-1.39c-0.92-0.86-1.56-1.99-2.18-3.07c-0.09-0.16-0.25-0.21-0.46-0.29c0.16-0.37,0.16-0.68,0-1.07
		c-0.23-0.84-0.5-1.63-0.93-2.34c0.6-0.38,0.93-0.87,0.28-1.27l0,0c0.51-0.38,0.94-0.85,0.65-1.46c-1.03-1.67-2.19-3.01-3.8-4
		c-0.19-0.68-0.26-1.27-0.37-2c0-0.82-0.5-1.33-1.19-1.61c-0.05-0.09-0.1-0.24-0.16-0.37c0.1-0.05,0.26-0.19,0.36-0.33
		c0.3-1-0.1-1.79-0.46-2.78c-0.06-0.41-0.83-0.41-1.41-0.18c-0.22-0.35-0.22-0.74-0.3-1.04c0.08-0.67,0.2-1.34,0.62-2.05
		c0.17-0.27-0.32-0.36-0.69-0.36c0.27-0.21,0.44-0.48,0.27-0.92c-0.12-0.41-0.2-0.99-0.2-1.48c0.08-0.31,0.2-0.61,0.2-0.89
		c0.1-0.4-0.12-0.67-0.46-0.7c0-0.68-0.12-1.21-0.23-1.78c-0.11-0.5-0.44-0.68-0.98-0.68c-0.17-0.86-0.48-1.69-0.97-2.57
		c-0.45-1.09-0.86-0.82-0.57-1.9c0.12-0.79,0.45-1.92,0.12-2.68c-0.82-2.33-2.3-3.36-4.39-4.5c-0.18-0.06-0.26-0.17-0.47-0.2
		c-1.64-5.79-3.78-11.45-6.84-16.7c-0.54-0.91-1.86-0.96-3.06-0.68c-0.51-0.23-1.11-0.42-1.79-0.46c-0.37,0-0.98,0.03-1.51,0.19
		c-0.13-0.15-0.3-0.33-0.38-0.4c0.29-0.3,0.63-0.57,0.53-0.93c-0.16-1.61-1.7-1.74-3.25-1.45c-0.8-0.62-1.32-1.26-1.83-1.76
		c-0.93-2.8-2.46-5.39-3.41-8.14c0.07-0.37,0.19-0.76,0.19-1.16c-0.11-0.78-0.39-1.52-0.44-2.32c0-1.23-1.87-1.25-3-1.12
		c0-0.35-0.19-0.73-0.31-1.18v-0.13v-0.11c0.42-1.28,0.54-2.53,0.54-3.96c0-0.38-0.88-0.44-2.05-0.3c-0.7-2.07-1.21-2.77-1.21-2.77
		c-0.67-1.2-1.01-1.73-1.81-2.63c-0.26-1.18-0.76-2.33-0.87-3.55c-0.17-0.62-1.48-0.51-2.85-0.27c-0.17-0.25-0.46-0.44-0.72-0.73
		c-2.89-2.72-6.35-6.05-10.27-8.66c-0.41-0.55-0.83-1.07-1.31-1.55l0,0c-0.27-0.53-0.5-1.15-0.67-1.68
		c-0.31-1.08-2.72-0.53-2.93,0.54c-0.12-0.19-0.28-0.19-0.5-0.24c0.09,0,0.16,0,0.16,0c0.41-0.42,0.32-1.08-0.3-1.11
		c-0.52-0.14-1.09-0.44-1.55-0.74c-0.97-0.42-3.36,0.77-2.47,1.43c-0.22,0.09-0.38,0.12-0.72,0.17c0.33-0.17,0.5-0.59,0.4-0.83
		c-0.06-0.37-0.24-0.77-0.38-1.13c-0.33-1.12-3.2-0.35-2.91,0.76l0.07,0.07c-0.07,0.12-0.11,0.12-0.19,0.2
		c-0.1,0.17-0.17,0.35-0.3,0.55h-0.12c0,0-0.96,0.96-0.46,1.3c-0.2,0.45,0,0.87,0.37,1.08c-0.19,0.05-0.37,0.21-0.46,0.4
		c-0.12,0.29-0.2,0.54-0.41,0.78c0,0.04,0.13,0.04,0.13,0.07c-0.13,0.14-0.23,0.23-0.23,0.36h-0.2c-0.9,0.1-1.63,0.47-1.97,1.4
		c-0.07,0.55,0.39,0.7,1.08,0.67c-0.07,0.32-0.4,0.95-0.57,1.56c-0.3,0-0.58,0-0.83,0.11c-0.94-0.11-2.37,0.31-2.37,1.09
		c0,0.37,0,0.7,0,1.16c0,0.38,0.43,0.63,0.89,0.7c-0.46,0.18-0.89,0.46-0.89,0.76c0,0.19,0,0.26,0,0.38c0,0.41,0.32,0.63,0.68,0.69
		c-0.37,0.05-0.68,0.24-0.85,0.37l-0.05,0.08c-0.16,0.89,0.05,1.78-0.52,1.97c-0.63,0.2-0.88,1.61-0.51,2.19l-0.12,0.35
		c0-0.09,0-0.09,0.12-0.14c-0.21,0.4-0.54,0.88-0.79,1.36c-0.82,0.05-1.93,0.37-1.97,0.87c-0.33,0.17-0.57,0.33-0.8,0.66
		c-0.09,0.12-0.18,0.23-0.21,0.23c-0.76,0.25-1.34,0.93-1.07,1.25c-0.39,0.2-0.57,0.4-0.57,0.77c0,0.24,0,0.47,0,0.7
		c0,0.68,0.67,0.76,1.37,0.76c-0.49,0.73-0.95,1.43-1.24,2.09c-0.64,0.21-1.1,0.52-1.3,0.91c0,0.19-0.29,0.57-0.29,0.77
		c-0.17,0.26,0,0.5,0.16,0.56c-0.16,0.35-0.49,0.64-0.62,0.94c-0.29,0.33-0.71,0.88-1.35,1.47c-0.12,0-0.3-0.08-0.34-0.07
		c-0.73,0-1.5,0.33-1.91,0.7c-0.28,0.36-0.56,0.55-0.8,0.85c-0.47,0.48,0.52,0.72,0.8,0.72c0.12,0,0.12-0.05,0.28-0.05
		c-0.84,0.85-1.68,1.93-2.64,3.24c-0.67,0-1.36,0.19-1.98,0.56c-0.37,0.3-0.37,0.57,0.23,0.57c0.03,0,0.2,0,0.4,0
		c0.14,0,0.45-0.01,0.69-0.08c-0.13,0.26-0.38,0.55-0.54,0.82c-0.37,0.02-0.77,0.21-1.01,0.42c-1.03,0.32-1.51,1.24-0.97,1.69
		c0,0-0.37,0.71,0.13,1.14c0,0.16-0.13,0.34-0.2,0.56c-0.86-0.21-2.04,0.27-2.04,1.08c0,0.15,0,0.29,0,0.37
		c0,0.61,0.38,0.89,0.93,0.96c-1.72,4.24-3.47,9.73-4.79,17.03c-0.29,0.1-0.58,0.26-0.9,0.45c-0.36,0.6-0.47,1.16-0.87,1.75
		c-0.27,0.58,0,0.85,0.51,1.01c-0.32,0.23-0.51,0.44-0.51,0.82c0,0.23,0,0.5,0,0.69c0,0.2,0,0.27,0,0.4c0,0.06,0,0.21,0,0.3
		c0,0.21,0,0.33,0,0.4c0,0.58,0.4,0.87,0.87,0.89c-0.17,0.68-0.25,1.46-0.35,2.13c-0.78,0-1.7,0.48-1.7,1.21c0,0,0,0.22,0,0.38
		c0,0.64,0.63,0.84,1.19,0.84c-0.47,0.27-0.77,0.59-0.77,0.99c0,0.16,0,0.31,0,0.37c0,0.59,0.38,0.9,0.96,0.94
		c-0.19,0.45-0.19,0.85-0.19,1.29c0,0,0.19,1.46,0,3.46c-0.77,0.16-1.48,0.55-1.48,0.97c0,0.25,0,0.54,0,0.82
		c0,0.28,0.53,0.43,1.21,0.24c-0.12,0.52-0.2,0.92-0.28,1.47c-0.39,0.11-0.6,0.28-0.82,0.47c-0.2,0.1-0.39,0.25-0.45,0.46
		c-0.46,0.25-0.88,0.58-0.88,0.88c0,0.33,0,0.56,0,0.77c0,0.54,0.45,0.75,1.05,0.75c-0.43,0.96-0.88,1.85-1.39,2.71
		c-1.47,2.24-1.97,4.79-2.18,7.37c-0.45-0.04-1.37,0.09-1.7,0.47c-0.39,0.38-0.56,0.66-0.56,1.27c-0.07,0.4,0.17,0.63,0.71,0.68
		c-0.16,0.07-0.3,0.21-0.3,0.31c-0.91-0.67-2.89-0.19-2.74,0.8c0,0.9,0.17,1.25,0.94,1.57c0.32,0.13,0.79,0.1,1.14-0.04
		c0,0.35,0,0.69,0.17,1.07c-0.85,0-1.87,0.41-1.87,0.87c-0.2,0.23-0.37,0.38-0.37,0.59c0,0.48,0,1,0,1.53c0,0.38,0.78,0.39,1.4,0.24
		c0.17,0.35,0.33,0.64,0.54,1.02c-0.3,0.19-0.45,0.43-0.45,0.7c0,0.57,0.09,0.86,0.51,1.27c0,0,0.03,0,0.08,0.13
		c-0.31,0.17-0.6,0.47-0.6,0.89c-0.09,0.9-0.33,1.72-0.33,2.66c0,0.47,0.24,0.75,0.67,0.93v0.05c0,0.26,0.21,0.32,0.26,0.37
		c0,0.11,0,0.14,0,0.2c-0.68,0.23-1.3,0.52-1.3,1.02c0,0.26,0,0.48,0,0.68c0,0.32,0.37,0.39,0.95,0.32c0,0.13-0.1,0.4-0.1,0.55
		c-0.23,0.22-0.48,0.64-0.7,0.85c-0.46,0.05-0.87,0.14-1.12,0.29c-0.71,0.37-1.01,0.84-1.6,1.45c-0.42,0.54,0.3,0.76,0.67,0.76
		c-0.49,0.61-0.99,1.31-1.36,1.84c-0.62,0.26-0.95,0.55-0.95,0.92c0,0.19,0,0.28,0,0.45c-0.54,0.11-1.13,0.55-1.13,1.03
		c0,0.31,0,0.61,0,0.89c0,0,0,0.02-0.07,0.03c-0.1-0.03-0.1-0.05-0.1-0.19c-0.7-0.76-3.56,0.39-2.75,1.24
		c0.66,0.64,1.08,1.36,1.46,2.13c0,0.08,0,0.23,0,0.39c-0.8,0.18-1.46,0.49-1.46,1.06c0,0.14,0,0.27,0,0.41
		c0,0.29,0.41,0.41,0.95,0.34c-0.17,0.13-0.37,0.28-0.29,0.46c0.42,0.54,0.42,1.15,0.42,1.85c0,0.16,0.38,0.16,0.97,0.16
		c-0.51,1.64-0.46,3.15,0.14,4.77c0.02,0.1,0.02,0.11,0.19,0.15c-0.33,0.26-0.55,0.57-0.55,0.96c0.05,1.19,0.38,2.28,0.7,3.44
		c0.23,0.42,0.78,0.6,1.37,0.58c0,0.07,0,0.27,0,0.4c-0.67,0.06-1.37,0.53-1.37,1.04c0,0.2,0,0.43,0,0.76c0,0.04,0,0.18,0.17,0.22
		c-0.17,0.07-0.17,0.1-0.17,0.1c0,0.24,0,0.43,0,0.56c-0.86,0.27-1.68,0.71-1.86,1.41c0,0.35,0.42,0.42,0.92,0.42
		c0,0-0.05,0.05-0.05,0.11c-0.2,0.55-0.45,1.08-0.58,1.74c-0.54,0.19-0.95,0.48-0.95,0.96c0,0.73,0,1.48,0,2.27
		c0,0.21,0.26,0.38,0.66,0.38c0,0.17,0,0.22,0,0.32c0.12,0.51,0.67,0.56,1.38,0.51c0,0,0,0,0,0.04c-0.97,0.02-2.04,0.45-2.04,0.98
		c0,0.51,0,1.02,0,1.57c0,0.24,0.66,0.24,1.46,0.05c0,0.15-0.13,0.28-0.13,0.31c-0.55,0.15-1.11,0.47-1.33,0.91
		c-0.64,0.15-1.31,0.56-1.23,0.94c0.3,1.38,0.42,2.76-0.25,3.99c-0.43,0.58,0.84,0.54,1.16,0.46c0.06-0.08,0.06-0.08,0.32-0.08
		c-0.26,0.39-0.32,0.78-0.57,1.09c-0.66,0.09-1.59,0.42-1.77,0.82c-0.32,1.33-0.69,2.6-1.5,3.78c-0.27,0.51,1.18,0.44,1.22,0.44
		c0.08-0.02,0.24-0.11,0.28-0.22c-0.03,0.28-0.11,0.5-0.2,0.72c-0.49,0-1.13,0.13-1.47,0.45c-0.1,0.18-0.33,0.38-0.63,0.57
		c-0.04,0-0.13,0-0.13,0.09c0-0.09,0-0.13,0-0.19c0.43-0.73-2.47-0.43-2.84,0.43c-0.71,1.42-1.26,2.93-2.11,4.35
		c-0.66,1.04,2.18,0.61,2.65-0.11v-0.01c0.26,0.01,0.42,0.01,0.64,0.01c-0.25,0.46-0.64,0.82-0.7,1.31
		c-0.78-0.59-3.34,0.43-2.6,1.23c0.22,0.31,0.47,0.62,0.76,0.95c-0.05,0.09-0.11,0.18-0.16,0.18c-0.38,1.38-0.3,2.47,1.08,3.08
		c0,0,0.26,0.02,0.5,0c0,0.23,0,0.37,0.21,0.5c-0.53,0.1-1,0.48-1.04,0.88c-0.08,0.67-0.42,1.16-0.64,1.67
		c-0.18,0.18-0.18,0.28-0.18,0.46c-0.21,0.19-0.22,0.24-0.21,0.36c-0.66,0.18-1.2,0.53-1.2,0.97c0,0.3,0,0.6,0,0.93
		c-0.17,0.48-0.45,0.93-0.76,1.44c-0.11,0.28,0.38,0.43,1.06,0.29c0,0.14,0,0.14,0,0.22c0.11,0.18,0.24,0.29,0.42,0.37v0.02
		c0.07,0.22,0.37,0.74,0.17,1.07v0.03c-0.38,0.21-0.67,0.58-0.58,0.8c0.28,0.9,0.77,1.71,0.79,2.68c0.09,0.19,0.31,0.29,0.71,0.29
		c-0.46,0.16-0.92,0.46-1.02,0.72c-0.66,0.32-1.17,0.88-0.66,1.45c0.37,0.39,0.87,0.87,0.66,1.48c-0.57,1.53,2.39,1.45,2.74,0.31
		c0-0.1,0-0.2,0.15-0.29c0.1,0.29,0.24,0.56,0.39,0.81c0.1,0.14,0.1,0.29,0.1,0.43c-0.25,0.02-0.64,0.18-0.83,0.27
		c-0.06,0-0.15-0.04-0.27-0.04c-1.1-0.04-3,1.68-1.04,1.83c0.38,0,0.54,0.59,0.72,0.85c0.08,0.17,0.24,0.2,0.32,0.3
		c-0.2,0.25-0.24,0.56,0,0.77c0.41,0.51,0.62,0.78,0.73,1.32c0,0.2,0,0.28,0.13,0.34c-0.24,0.29-0.24,0.57,0.16,0.8
		c0.51,0.29,0.67,0.55,0.67,1.18c0.13,0.31,0.46,0.45,0.8,0.46c-0.34,0.24-0.8,0.55-0.59,0.76c0.3,0.38,0.59,0.85,0.68,1.39
		c0,0.31,0.96,0.25,1.75,0c0.3,1.05,0.61,2.12,0.83,3.17c-0.59,0.27-1.16,0.57-1.16,1.04c0,0.42,0.09,0.73-0.13,1.18
		c-0.44,0.45,0.24,0.71,0.7,0.71c0.35,0,0.69-0.06,1.06-0.21c0,0.21,0.11,0.47,0.11,0.67c-0.8,0.15-1.73,0.45-1.73,1.02
		c-0.13,0.05-0.34,0.2-0.53,0.29c-1.03,0.66-1.33,1.53-0.9,2.73c0.2,0.36,0.63,0.5,1.09,0.5c-0.8,0.26-1.47,0.75-0.98,1.2
		c0.37,0.42,0.75,0.81,1.02,1.42c0.17,0.03,0.17,0.14,0.3,0.19c0.24,0.7,0.5,1.3,0.94,1.88c0.22,0.2,0.69,0.35,1.11,0.32
		c-0.5,0.81-1.11,1.68-1.81,2.25c-0.98,0.73-0.37,1.21,0.26,1.37c0,0.05,0,0.1,0,0.1c0,0.17,0,0.28,0,0.41c0,0.07,0,0.07,0,0.12
		c-0.63,0.24-1.3,0.69-1.24,0.83c0.11,0.07,0.17,0.12,0.17,0.15c0,0.16-0.17,0.2-0.17,0.24c0,0.79,0,1.49,0,2.3
		c0,0.09,0.17,0.09,0.4,0.12c-0.4,0.19-0.8,0.38-0.8,0.59c0,0.16,0,0.25,0,0.4c0,0.23,1.09,0.19,1.96,0c0,0.23,0.06,0.43,0,0.74
		c-0.52-0.12-0.95-0.14-1.39-0.14c-0.65-0.09-1.53,0.14-1.9,0.83c-0.42,0.6,0.16,1.01,0.82,1.05c1.52,0,2.59,0.52,3.39,1.9
		c0,0.08,0.11,0.13,0.11,0.17c-0.65,0.24-1.1,0.63-0.9,0.85c0.22,0.15,0.25,0.37,0.25,0.66c0,0.21,0.3,0.21,0.65,0.21v0.04
		c-0.65,0.14-1.28,0.5-1.34,0.93c-0.5,1.77-0.81,3.26-0.81,5.02c0,0.48,0.3,0.77,0.81,0.85c-0.5,0.18-0.81,0.49-0.81,0.89
		c0,0.72,0.6,0.82,1.18,0.85c-0.06,2-0.25,4.14-0.13,6.45c-0.63,0.19-1.05,0.59-1.05,1.13v0.07c-0.27,0.17-0.43,0.34-0.43,0.59
		c0.17,0.34,0.27,0.58,0.61,0.88c0,0.2,0.13,0.37,0.43,0.53c-0.3,0.06-0.43,0.33-0.6,0.59c-0.27,0.92-0.43,1.77-0.43,2.67
		c0,0.17,0.11,0.33,0.17,0.4c-0.75,0.42-1.28,1.2-0.57,1.88c0.51,0.35,1.01,0.65,1.43,0.84c-0.34,0.19-0.6,0.48-0.6,0.89
		c0,0.78,0.63,0.9,1.24,0.9c0.25,0.07,0.61,0,0.9-0.09c0.12,0.27,0.21,0.61,0.21,0.9c-0.97,0.19-2.36,0.89-1.76,1.13
		c0.21,0.06,0.21,0.13,0.21,0.21c0,0.11,0.12,0.11,0.37,0.19c-0.41,0.31-0.63,0.76-0.31,1.13c0.37,0.53,0.69,1.08,1.17,1.53
		c0,0.05,0,0.05,0,0.05c-0.11,0.22-0.19,0.37-0.19,0.55c0,0.19,0,0.28,0,0.44c0,0.32,0.19,0.63,0.5,0.77
		c-0.32,0.18-0.5,0.45-0.5,0.66c0,0.24,0,0.45,0,0.74c-0.06,0.28,0,0.6,0.42,0.85c0.45,0.25,0.45,0.81,0.86,1.22
		c0.07,0.25,0.38,0.32,0.56,0.32c-0.42,0.17-0.66,0.29-0.78,0.56c-0.38,0.46-0.3,1.26,0.29,1.4c0.38,0.12,0.86,0.32,1.22,0.38
		c0.08,0.05,0.2,0,0.37,0c-0.48,0.32-0.73,0.71-0.54,1.1c0.54,1.01,0.54,1.93,0.25,3.02c-0.08,0.64,0.87,0.71,1.84,0.48
		c0,0.08,0.02,0.17,0.02,0.23c-0.7,0.23-1.19,0.72-1.06,1.39c0.29,0.97,0.36,1.79,0.36,2.72c0,0.82,0.7,1.12,1.48,0.97
		c0,0.09,0,0.09,0,0.18c-0.78,0.12-1.48,0.48-1.48,1.02c0,0.67,0,1.26,0,1.92c0,0.42,1.09,0.42,1.89,0.08
		c0.11,0.56,0.18,0.98,0.18,1.54c0,0,0,1.04,0.2,2.93c-0.87,0.13-1.72,0.6-1.57,1.11c0.7,1.93,1.19,3.89,0.52,5.86
		c-0.2,0.38,0.18,0.5,0.67,0.5v0.07c0,0.21,0,0.24,0,0.44c-0.49,0-0.99,0.22-1.29,0.58c-0.3,0.49-0.38,1.06-0.76,1.55
		c-0.71,0.97,0.16,1.57,1.09,1.57c0.1,0.64,0.3,1.31,0.56,1.92c0,0.13,0.2,0.21,0.41,0.32c0.18,0.18,0.33,0.53,0.33,0.85
		c0.13,0.43,0.84,0.59,1.6,0.37c0,0.05,0,0.22,0,0.33c-0.84,0-1.93,0.49-1.93,1.18c0,0.12,0,0.29,0,0.39c0,0.52,1.18,0.52,2.16,0.04
		c0,0.15,0,0.19,0,0.39c-0.64-0.1-1.57,0.09-1.85,0.42c-0.12,0.17-0.3,0.25-0.41,0.4c-0.54,0.5-0.38,0.73,0.1,0.87
		c-0.41,0.87-0.41,1.55,0,2.45c0.33,0.79,1.97,0.49,2.6-0.11c0.05,0.43,0.15,0.82,0.15,1.14c-0.97,0-2.29,0.64-2.08,1.2
		c0.72,1.29,0.84,2.59,0.42,4c0,0.31,0.3,0.52,0.84,0.52l0,0c0.34,0.61,0.63,1.18,0.67,1.92c0,0.17,0.15,0.23,0.26,0.35
		c-0.3,0.21-0.59,0.48-0.59,0.86c0,0.11-0.11,0.14-0.11,0.22c-1.07,1.15,0.82,1.65,1.97,1.15c0,0.19,0,0.34,0,0.42
		c-0.99,0.15-2.2,0.79-1.82,1.33c0.04,0.05,0.25,0.25,0.33,0.31c-0.38,0.22-0.72,0.48-0.72,0.84c0,0.4,0,0.78,0,1.08
		c0,1.02,2.1,0.75,2.68,0c0.09,0.43,0.09,0.81,0.09,1.21c0.22,0.71,0.25,1.52,0.46,2.4l-0.21,0.06c-0.71,0.31-1.19,0.71-1.19,1.62
		c0,0.72,0.78,0.91,1.49,0.83c-0.55,0.26-0.96,0.65-0.63,1.11c0.55,0.94,0.92,1.82,0.97,2.89c0,0.33,0.5,0.47,0.91,0.39
		c0.18,0.68,0.3,1.37,0.47,2c-0.78,0.18-1.48,0.65-1.38,0.97c0.26,0.57,0.5,1.26,0.91,1.87c0,0.33,0.72,0.33,1.39,0.2
		c0.09,0.37,0.25,0.72,0.4,1.15c-1.07,0.18-2.21,1.13-1.21,1.76c0.81,0.38,0.97,1.05,1.26,1.71c0.21,0.46,0.82,0.58,1.43,0.43
		c0.09,0.25,0.3,0.51,0.42,0.71c-0.96,0.31-1.64,1.11-0.88,1.67c0.9,0.64,1.8,1.31,2.68,2c-0.5-0.1-0.96,0.03-1.35,0.35
		c-0.43,0.34-0.87,1.2-0.25,1.5c0.25,0.06,0.47,0.19,0.64,0.28c-0.04,0.1,0.07,0.23,0.62,0.27c0.34,0.19,0.72,0.33,1.14,0.57
		c0.22,0.1,0.38,0.1,0.77,0.1c0,0.54,0,0.98,0,1.38c0,0.69,0.4,1,0.99,1.05c0.2,0.22,0.29,0.27,0.5,0.5
		c-0.37,0.12-1.08,0.59-0.67,0.78c1.27,0.68,2.15,1.44,2.53,2.9c0.11,0.27,0.48,0.33,0.91,0.33c0,0.08,0,0.18,0.07,0.21
		c0.23,0.11,0.31,0.14,0.51,0.19c-0.51,0.27-0.92,0.55-0.76,0.82c0.47,0.76,1.01,1.44,1.55,2.27c0.3,0.56,1.35,0.37,2.1,0
		c0,0.1,0,0.1,0.13,0.1c-0.72,0.22-0.2,0.87-0.2,0.87l0.2,0.2c0.29,0.7,0.71,1.38,0.83,2.15c0.17,0.3,0.55-0.3,0.63-0.37
		c0.03-0.07,0.03-0.15,0.03-0.18c0.09,0.11,0.2,0.25,0.2,0.31c-0.2,0.24-0.37,0.54-0.37,0.79c0,0.15,0,0.34,0,0.46
		c0,0-0.03,0.12-0.03,0.2c-0.14-0.13-0.14-0.13-0.14-0.2c0-0.43-1.04,0.87-0.87,1.33c0.32,0.83,0.72,1.7,0.87,2.61
		c0.14,0.6,1.1-0.73,1.01-1.14h-0.1c0.19-0.16,0.32-0.17,0.32-0.31c0,0.31,0.09,0.62,0.17,0.85c-0.49,0.09-1.05,1.49-0.55,1.49
		c0.25,0.01,0.47,0.01,0.8,0.01c0,0.15,0,0.16,0,0.16c0.33,0.7,0.77,1.14,1.53,0.84c0,0,0.1-0.12,0.2-0.2
		c0.08,0.06,0.08,0.06,0.21,0.06c-0.13,0.23-0.13,0.54,0,0.73c0.2,0.29,0.28,0.6,0.39,0.95c0,0.14,0,0.14,0.11,0.22
		c0,0.2,0,0.25,0.02,0.25c-0.13,0.36-0.32,0.7-0.13,0.91c0.16,0.09,0.28,0.21,0.4,0.34c0.08,0.3,0.17,0.55,0.17,0.83
		c0.13,0.25,0.42,0,0.71-0.28c0,0,0,0,0,0.07c0.1,0.01,0.18,0.01,0.29-0.07l0,0c0.12,0.08,0.44,0.16,0.48,0.33c0,0,0,0,0,0.11
		c-0.04,0.21-0.04,0.42,0.14,0.45c0.34,0.26,0.81,0.42,1.21,0.72c0.14,0.1,0.33,0,0.43-0.12c-0.1,0.29-0.1,0.6-0.1,0.7
		c-0.14,0.48-0.14,0.8,0.27,0.8c0.33,0,0.63,0,0.83,0.33c0.38,0.88,1.39-0.35,1.15-0.96c0,0-0.05-0.15-0.05-0.17
		c0.05,0.02,0.29,0.17,0.39,0.17c0.16,0,0.16,0.09,0.29,0.09v0.52c0,0.03,0,0.03,0,0.03c0.18,0.71,0.28,1.11,0,1.83
		c-0.23,0.45,1.71,0.28,2.51-0.29v0.14c0,0.37,0.14,0.66,0.21,0.9c-0.21,0.22-0.28,0.41-0.05,0.64c0.38,0.43,0.77,0.82,1.14,1.12
		c0.43,0.32,0.97,0.25,1.67,0.1l0,0c4.3,6.17,5.24,11.41,12.82,12.79c0,0,3.83,1.3,12.76-4.47c0.88-0.3,1.81-0.6,2.69-0.99
		c0.46,0.25,1.14,0.17,1.62,0.09c0.43-0.16,0.93-0.35,1.43-0.48c0.51-0.16,1.63-0.47,1.44-1.24c0.4,0.03,0.73,0.03,1.19,0.03
		c0.76,0.1,1.81-0.03,2.26-0.78c0.21-0.33,0.1-0.57-0.11-0.81c0.11,0,0.11,0,0.21-0.04c0.65-0.41,1.08-0.86,1.3-1.62
		c0.08-0.07,0.29-0.12,0.43-0.16c0.44-0.28,0.87-0.53,1.33-0.78c0.19-0.05,0.3-0.16,0.42-0.28c0.95,0.28,2.53-0.08,2.77-1.17
		c0-0.27,0-0.67,0.12-0.97c0-0.08,0-0.11,0-0.11c0.33-0.18,0.73-0.23,0.9-0.4c0.14-0.07,0.14-0.09,0.17-0.16
		c1.04,0.37,2.79-0.29,2.79-1.42c-0.08-0.67-0.18-1.17-0.5-1.73c0.59,0.23,0.2-0.37,0.84-0.67c0.38-0.37,0.98-0.68,1.41-0.94
		c0.58-0.32,0.82-0.71,0.82-1.07c0.34-0.16-0.06-0.91-0.28-0.99c0-0.14-0.1-0.14-0.14-0.19c0.42,0,0.69-0.04,1.11-0.26
		c0.54-0.28,0.77-0.77,0.7-1.26c0.06-0.03,0.08-0.05,0.2-0.22c0.09,0,0.29-0.09,0.38-0.09c0.19,0,0.34,0.09,0.4,0.09
		c0.22,0.09,0.44,0,0.61-0.09c1.04,0.26,1.98-0.79,1.98-1.73c0.03-0.35,0.03-0.66,0.03-0.97c0.68-0.17,0.76-0.9,0.76-1.37
		c0-0.11,0-0.29,0-0.37c0-0.06,0-0.15-0.13-0.15c0.13-0.09,0.23-0.24,0.29-0.37c0-0.28,0-0.47,0-0.7c0.59,0.11,1.23,0.23,1.82,0.29
		c0.5,0.06,0.37-0.29,0.85-0.66c0.48,0.09,1.47,0.49,2.06,0.2c0.39-0.35,0.84-1.29,0.18-1.73c-0.32-0.18-0.32-0.84-0.67-1.13
		c0.08-0.03,0.21-0.16,0.35-0.18c0.43-0.03,0.9,0,1.14-0.15c0.05,0.04,0.26,0.15,0.57,0.29c0.55,0.15,1.41-0.14,2.06-0.36
		c0.21-0.08,0.82-0.48,0.32-0.65c-0.17-0.18-0.32-0.44-0.5-0.63l-0.09-0.1c1.18-0.12,4.08,0.66,4.9-0.24
		c0.41-0.41,0.6-0.88,1.1-1.07c0.57-0.32,0.57-0.75,0.57-0.97c0,0,0-0.03,0.17-0.03c0.17,0.25,0.52,0.51,0.91,0.68
		c1.3,0.54,3.01,0.6,4.02-0.53c0-0.05,0.6,0.37,0.66,0.24c0.17,0.09,1.4,0.64,1.53,0.64c0.92,0,2.1-0.2,2.77-0.66
		c1.55-0.99-0.43-1.75-1.5-1.34c0-0.1,0.19-0.21,0.19-0.38c0.21-0.02,0.31-0.02,0.58-0.17c0.22,0,0.44-0.03,0.73-0.03
		c0.98,0.17,2.36-0.51,2.23-1.24c0.97-0.78,2.16-1.24,2.86-2.36c0.8,0.37,2.55-0.18,2.55-1.13c-0.05-0.77-0.59-1-1.19-1.03
		c0.05-0.03,0.14-0.16,0.14-0.32c0.38-0.06,0.71-0.06,1,0c0.64-0.06,1.56-0.17,2.14-0.64c0.86,0.26,1.6-0.26,1.67-1.07
		c0-0.27,0.47-0.48,0.47-0.72c0-0.67-0.36-0.44-0.97-0.49c0.3-0.06,0.49-0.15,0.78-0.18c0.43-0.1,3.7-1.88,2.86-2.88
		c-0.4-0.5-0.97-0.71-0.97-1.5c0.1,0.02,0.18,0.18,0.26,0.22c0.22,0.1,0.3-0.27,0.3-0.76c0.8-0.47,1.41-1.04,1.41-1.73
		c0.27-0.1,0.6-0.21,0.93-0.44c0.17-0.07,0.22-0.5,0.31-0.55c0.1,0.26,0.2,0.55,0.41,0.84c1.54,2.1,5.99-1.43,4.52-3.68
		c0.78-0.15,1.49-0.5,2.06-1.04c0.37-0.55,0.8-1.06,1.04-1.78c0.08-0.39,0-0.66-0.17-0.88c0,0,6.1-2.1,6.63-5.38
		c0.26-1.13,0-2.27-0.34-3.33v-0.11c0.17-0.17,0.34-0.39,0.42-0.57c0.8-0.74,1.65-1.2,2.77-1.67c0.37-0.23,1.02-0.75,1.15-1.23
		c0.47-0.34,0.9-0.66,0.9-1.17c0-0.7,0.29-1.3,0.61-1.91c0.57,0.15,1.17,0.19,1.65,0.35c1.33,0.45,3.14-0.1,4.1-1.11
		c0.8-0.69,0.63-1.48,0-2.03c0.92-0.34,1.48-0.69,1.48-1.21c0-1.53,0-3.09,0-4.6c0.79-0.43,1.34-1.07,1.34-1.86
		c0-0.41,0-0.89,0-1.37c0-1.08-0.72-1.57-1.6-1.82c0.1-0.41,0.17-0.83,0.26-1.33c0.63-0.23,0.9-0.69,0.9-1.06
		c0.1-0.67,0.1-1.5,0.81-1.86c0.87-0.59,0.54-1.2-0.22-1.37c1.41-0.53,2.57-1.41,2.66-2.91c0.09-0.59-0.3-0.97-0.88-1.13
		c0.8-0.43,1.34-1,1.34-1.89c0-0.77,0-1.59,0-2.37c0-0.3,0-0.43-0.16-0.78C420.27,338.92,420.85,336.72,421.05,334.4z"/>
</g>
</svg>
