<svg width="111" height="48" viewBox="0 0 111 48" fill="none" xmlns="http://www.w3.org/2000/svg">
<g clip-path="url(#clip0_384_476)">
<path d="M5.28907 4.25415C4.01969 4.25415 2.75032 4.32505 2.04511 4.32505H1.97459V14.5348H2.04511H2.53875C3.24396 14.5348 3.94917 14.6057 4.79543 14.6057C8.32147 14.6057 10.3666 12.6205 10.3666 9.28812C10.3666 5.95578 8.67408 4.25415 5.28907 4.25415ZM4.01969 6.02668C4.30178 6.02668 4.7249 6.02668 5.14803 6.02668C7.26366 6.02668 8.25095 7.09019 8.25095 9.42993C8.25095 11.6279 7.0521 12.8332 5.00699 12.8332C4.65438 12.8332 4.30178 12.7623 4.01969 12.7623V6.02668Z" fill="#00592D"/>
<path d="M15.0915 6.8064C12.8348 6.8064 11.2834 8.50802 11.2834 10.8478C11.2834 13.1875 12.4822 14.6764 14.8094 14.6764C16.925 14.6764 18.6175 12.9748 18.6175 10.8478C18.6175 10.7769 18.6175 10.706 18.6175 10.6351C18.6175 8.22442 17.3482 6.8773 15.0915 6.8064ZM14.9504 12.9748C13.8926 12.9748 13.3285 12.1949 13.3285 10.706C13.3285 9.21703 14.1747 8.57892 14.9504 8.57892C16.0083 8.57892 16.5019 9.28793 16.5019 10.706C16.5019 12.124 15.9377 12.9039 14.9504 12.9748Z" fill="#00592D"/>
<path d="M31.8755 6.87744C29.3367 6.87744 27.7853 8.50817 27.7853 11.2024C27.7853 13.4712 28.7726 14.7475 30.6061 14.7475C31.4524 14.7475 32.2986 14.3221 32.7217 13.5421C32.7217 13.8257 32.7217 14.1093 32.7217 14.393V14.5348C32.7217 15.811 32.087 16.3073 30.6766 16.3073C29.9009 16.3073 29.1957 16.1655 28.4905 15.8819H28.42L28.2084 17.7253H28.2789C29.0546 17.938 29.7598 18.0089 30.5356 18.0089C33.9206 18.0089 34.6963 16.0946 34.6963 14.4639V7.09014H34.6258C33.709 6.94834 32.7923 6.87744 31.8755 6.87744ZM31.0997 12.9749C30.2535 12.9749 29.9009 12.2659 29.9009 10.9188C29.9009 9.28808 30.5356 8.43726 31.7344 8.43726C32.087 8.43726 32.3691 8.43726 32.6512 8.50817V10.4934C32.6512 11.7696 32.1576 12.9749 31.0997 12.9749Z" fill="#00592D"/>
<path d="M44.2872 9.92623C44.0756 10.6352 43.9346 11.2733 43.7935 11.9115C43.6525 11.2024 43.4409 10.4934 43.2294 9.85533L42.3126 7.01929H40.4085L39.5623 9.92623C39.3507 10.5643 39.2097 11.2024 39.0686 11.8406C38.9276 11.3443 38.7865 10.8479 38.6455 10.3516C38.575 10.2098 38.575 9.99713 38.5044 9.85533L37.7287 7.01929H35.5426L37.7992 14.5348V14.6057H39.8443L40.7611 11.4861C40.9022 10.9897 41.0432 10.4934 41.2548 9.78443C41.3958 10.2807 41.4663 10.777 41.6074 11.2733L42.6652 14.6057H44.7808L47.249 7.01929H45.2039L44.2872 9.92623Z" fill="#00592D"/>
<path d="M52.4676 6.80647C51.4803 6.73557 50.5635 7.23188 50.0699 8.01179C50.0699 7.58638 50.0699 7.16097 50.0699 6.73557V3.47412H48.0953V14.5347H50.0699V10.9187C50.0699 9.64251 50.8456 8.50809 51.7624 8.50809C52.3971 8.50809 52.6792 8.8626 52.6792 9.71341V14.5347H54.6538V9.28801C54.7243 8.15359 54.3011 6.80647 52.4676 6.80647Z" fill="#00592D"/>
<path d="M59.0966 6.8064C58.1093 6.8064 57.1925 6.9482 56.2757 7.3027H56.2052L56.4168 9.00433L56.4873 8.93343C57.1925 8.57892 57.9682 8.36622 58.744 8.36622C59.8018 8.36622 60.2249 8.72072 60.2249 9.50064V9.78424C57.4746 9.78424 55.7116 10.9187 55.7116 12.6203C55.7116 13.8965 56.5578 14.6055 57.9682 14.6055C58.9555 14.6764 59.8723 14.1801 60.4365 13.4002C60.4365 13.7547 60.3659 14.0383 60.3659 14.3928V14.4637H62.3405V9.42973C62.4111 7.58631 61.4238 6.8064 59.0966 6.8064ZM58.6734 13.1166C58.1093 13.1166 57.8272 12.833 57.8272 12.4076C57.8272 11.6986 58.6734 11.2732 60.2954 11.2732V11.3441C60.2954 12.2658 59.5902 13.0457 58.6734 13.1166Z" fill="#00592D"/>
<path d="M24.3297 6.8064C23.3424 6.8064 22.3551 7.2318 21.791 8.08261C21.8615 7.72811 21.8615 7.3736 21.8615 6.9482H21.2268C20.5216 6.9482 19.8164 6.9482 19.1817 7.0191H19.1112V8.36622H19.1817C19.4638 8.36622 19.7459 8.43712 19.9574 8.43712V14.3928H21.932V10.7769C21.932 9.50064 22.7078 8.43712 23.6245 8.43712C24.2592 8.43712 24.5413 8.79163 24.5413 9.64244V14.4637H26.5159V9.21703C26.5864 8.15352 26.1633 6.8064 24.3297 6.8064Z" fill="#00592D"/>
<path d="M111 22.3337H1.97459V23.0428H111V22.3337Z" fill="#DCDBDB"/>
<path d="M17.2071 37.7903V39.9883H0V37.7903H7.26366V36.2305H2.11563V29.6367H15.162V31.8347H4.79543V34.0326H15.3031V36.2305H10.014V37.7903H17.2071ZM15.162 44.455C15.162 46.7239 12.6938 48.0001 8.53304 48.0001C4.3723 48.0001 1.90407 46.7239 1.90407 44.455C1.90407 42.1862 4.3723 40.91 8.53304 40.91C12.6938 40.91 15.162 42.1862 15.162 44.455ZM12.4117 44.455C12.4117 43.4624 11.0718 42.9661 8.53304 42.9661C5.99428 42.9661 4.65438 43.4624 4.65438 44.455C4.65438 45.4477 5.99428 45.8731 8.53304 45.8731C11.0718 45.8731 12.4117 45.4477 12.4117 44.455Z" fill="#43883D"/>
<path d="M25.317 42.3989C26.798 42.328 28.2789 42.1862 29.6188 41.9735L29.8304 43.9587C26.0222 44.5968 22.2141 44.8804 18.3355 44.7386L17.9828 42.5407C19.3227 42.5407 20.9447 42.5407 22.5667 42.4698V40.8391C20.5921 40.4137 19.2522 39.1374 19.2522 37.3649C19.2522 35.2379 21.1563 33.749 23.9066 33.749C26.6569 33.749 28.561 35.2379 28.561 37.3649C28.561 39.1374 27.2916 40.4137 25.2465 40.8391L25.317 42.3989ZM29.5483 33.04H18.3355V30.9129H22.5667V28.8568H25.317V30.842H29.5483V33.04ZM23.9771 38.9956C25.2465 38.9956 26.0222 38.4284 26.0222 37.4358C26.0222 36.4432 25.176 35.876 23.9771 35.876C22.7783 35.876 21.8615 36.4432 21.8615 37.3649C21.8615 38.2866 22.7078 38.9956 23.9771 38.9956ZM35.7541 38.8538H33.3564V47.9292H30.6061V28.7859H33.3564V36.585H35.7541V38.8538Z" fill="#43883D"/>
<path d="M43.3704 33.9617C43.3704 36.8686 44.8513 40.2719 48.0248 41.6899L46.5438 43.8878C44.4282 42.8243 42.8062 40.9809 42.101 38.712C41.3958 41.1227 39.7738 43.1788 37.5172 44.3841L35.9657 42.1862C39.0686 40.6973 40.6201 37.1522 40.6201 33.9617V32.8982H36.6709V30.6293H47.1785V32.8982H43.3704V33.9617ZM54.0896 38.3575H51.3393V47.9292H48.5889V28.7859H51.3393V36.0887H54.0896V38.3575Z" fill="#43883D"/>
<path d="M63.6099 38.2866C62.6226 39.2792 61.2827 39.8465 59.8723 39.8465C57.122 39.8465 54.9358 37.6485 54.9358 34.8834C54.9358 32.1182 57.122 29.9203 59.8723 29.9203C61.2827 29.9203 62.6226 30.4166 63.5394 31.4092H67.7707V28.7859H70.521V42.8243H67.8412V38.2866H63.6099ZM59.8723 37.4358C61.2122 37.5067 62.27 36.4432 62.3405 35.167C62.3405 35.0961 62.3405 34.9543 62.3405 34.8834C62.4111 33.5363 61.3532 32.4018 60.0133 32.3309C58.6734 32.26 57.5451 33.3236 57.4746 34.6707C57.4746 34.7416 57.4746 34.8125 57.4746 34.9543C57.3335 36.2305 58.3208 37.4358 59.6607 37.5067C59.6607 37.4358 59.8018 37.4358 59.8723 37.4358ZM70.9441 45.4476V47.6456H57.9682V41.4772H60.7186V45.4476H70.9441ZM64.7383 33.6072C64.8088 34.0326 64.8793 34.458 64.8793 34.8834C64.8793 35.3088 64.8088 35.7342 64.7383 36.0887H67.7707V33.6072H64.7383Z" fill="#43883D"/>
<path d="M73.4123 30.6293H82.5095V43.3206H73.4123V30.6293ZM76.0921 41.1227H79.8297V32.7563H76.0921V41.1227ZM90.4784 38.2866H87.7281V47.9292H84.9778V28.7859H87.7281V36.0178H90.4784V38.2866Z" fill="#43883D"/>
<path d="M108.25 42.4696H100.916V47.9999H98.1652V42.4696H90.972V40.2717H108.25V42.4696ZM103.525 31.5509H93.0171V29.4238H106.275V35.1668H95.838V36.7266H106.769V38.8537H93.0171V33.0398H103.525V31.5509Z" fill="#43883D"/>
<path d="M65.1889 10.8771V10.8856C65.1898 10.8892 65.1915 10.8924 65.1939 10.8951C65.1962 10.8979 65.1992 10.8999 65.2026 10.9012C65.1961 10.9106 65.1914 10.9212 65.1889 10.9324C65.1875 10.9423 65.1875 10.9523 65.1889 10.9622H65.1985C65.1687 10.9796 65.1407 11 65.1149 11.0232C65.1169 11.0287 65.1169 11.0347 65.1149 11.0402C65.1053 11.0785 65.0752 11.0969 65.0724 11.1338V11.1423C65.0574 11.1594 65.0464 11.1792 65.0546 11.1934C65.0628 11.2076 65.0546 11.2076 65.0464 11.2133C65.0382 11.2189 65.0587 11.2274 65.0752 11.2218C65.0759 11.2231 65.0763 11.2245 65.0763 11.226C65.0763 11.2275 65.0759 11.229 65.0752 11.2303C65.0587 11.2388 65.045 11.253 65.0546 11.2629C65.0551 11.2762 65.0583 11.2893 65.0642 11.3012C65.0639 11.3138 65.0683 11.326 65.0765 11.3352C65.0775 11.3436 65.0808 11.3515 65.0861 11.3579C65.0841 11.3613 65.083 11.3653 65.083 11.3693C65.083 11.3733 65.0841 11.3772 65.0861 11.3806V11.3948C65.0875 11.4009 65.0875 11.4072 65.0861 11.4132C65.0821 11.4118 65.0778 11.4118 65.0738 11.4132C65.0546 11.4218 65.0491 11.4246 65.045 11.4459C65.0444 11.448 65.0442 11.4503 65.0444 11.4525C65.0446 11.4547 65.0452 11.4569 65.0462 11.4589C65.0473 11.4608 65.0487 11.4626 65.0503 11.464C65.052 11.4654 65.0539 11.4665 65.056 11.4671V11.4771C65.0515 11.4862 65.0479 11.4957 65.045 11.5054H65.0656L65.0738 11.5154C65.0738 11.5154 65.0738 11.5281 65.0738 11.531C65.0642 11.531 65.0615 11.5437 65.0642 11.5494C65.0704 11.5623 65.0758 11.5756 65.0807 11.5891C65.0832 11.5917 65.0867 11.5932 65.0902 11.5932C65.0938 11.5932 65.0973 11.5917 65.0998 11.5891C65.0893 11.5934 65.0805 11.6015 65.0752 11.6118C65.0601 11.6218 65.0533 11.6359 65.0628 11.6473C65.0724 11.6586 65.0861 11.6629 65.0848 11.6785C65.0834 11.6941 65.1286 11.7026 65.1437 11.6785C65.1451 11.6849 65.1474 11.6911 65.1505 11.6969C65.1259 11.6969 65.0875 11.7452 65.1313 11.7409C65.1409 11.7409 65.1464 11.7508 65.1491 11.7579H65.1615L65.1574 11.7721C65.1574 11.7849 65.1711 11.7891 65.182 11.7849C65.1834 11.7895 65.1834 11.7944 65.182 11.7991V11.8076C65.182 11.8076 65.182 11.8203 65.182 11.8246C65.182 11.8288 65.1985 11.8246 65.2012 11.8459C65.2029 11.8495 65.2057 11.8524 65.2092 11.8542C65.2126 11.8559 65.2166 11.8565 65.2204 11.8558C65.2108 11.8558 65.2026 11.8714 65.2067 11.8742C65.2162 11.8816 65.2229 11.8921 65.2259 11.904L65.2779 11.9622C65.2773 11.9637 65.2769 11.9654 65.2769 11.9671C65.2769 11.9688 65.2773 11.9705 65.2779 11.9721C65.2779 11.9721 65.2779 11.9806 65.2902 11.9806C65.2883 11.9838 65.2873 11.9875 65.2873 11.9912C65.2873 11.995 65.2883 11.9987 65.2902 12.0019C65.2902 12.0132 65.308 12.0132 65.319 12.0019C65.3314 12.0445 65.3465 12.0862 65.3642 12.1267C65.3591 12.1301 65.3551 12.1351 65.3529 12.1409C65.3507 12.1468 65.3503 12.1532 65.3519 12.1593V12.1735C65.3561 12.1805 65.3623 12.186 65.3697 12.1891C65.3725 12.1905 65.3755 12.1912 65.3786 12.1912C65.3817 12.1912 65.3847 12.1905 65.3875 12.1891C65.3816 12.1941 65.3776 12.2012 65.3765 12.209C65.3777 12.2286 65.3823 12.2478 65.3902 12.2657H65.408C65.408 12.2657 65.3902 12.3026 65.408 12.3097H65.4437C65.4409 12.3175 65.4409 12.326 65.4437 12.3338C65.4437 12.348 65.4642 12.348 65.4793 12.3338L65.4957 12.3253L65.5094 12.3409C65.4889 12.3537 65.4642 12.3806 65.4793 12.3792H65.4889C65.4857 12.3826 65.4839 12.3872 65.4839 12.392C65.4839 12.3967 65.4857 12.4013 65.4889 12.4047C65.5026 12.4047 65.5135 12.4189 65.5259 12.4232C65.5245 12.4268 65.5245 12.4309 65.5259 12.4345C65.5271 12.4382 65.5295 12.4414 65.5328 12.4435C65.536 12.4456 65.5399 12.4464 65.5437 12.4458C65.5295 12.455 65.5162 12.4654 65.5039 12.4771V12.4941C65.5039 12.4941 65.5039 12.5068 65.5163 12.5097C65.5286 12.5125 65.5341 12.5253 65.5437 12.5324C65.5481 12.5338 65.5529 12.5338 65.5574 12.5324C65.5574 12.5324 65.545 12.5437 65.5423 12.5494C65.5408 12.551 65.5395 12.5529 65.5387 12.5549C65.5379 12.557 65.5375 12.5592 65.5375 12.5615C65.5375 12.5637 65.5379 12.5659 65.5387 12.568C65.5395 12.57 65.5408 12.5719 65.5423 12.5735C65.5444 12.5745 65.5468 12.5751 65.5491 12.5751C65.5515 12.5751 65.5538 12.5745 65.556 12.5735C65.5651 12.5721 65.5743 12.5721 65.5834 12.5735H65.5957C65.5957 12.5735 65.5779 12.5948 65.5875 12.6019C65.5961 12.6094 65.6028 12.6191 65.6069 12.63C65.6109 12.6409 65.6123 12.6527 65.6108 12.6643C65.6108 12.6799 65.6354 12.6756 65.6546 12.6643C65.6382 12.6728 65.63 12.6884 65.6368 12.7026C65.648 12.7189 65.6564 12.7372 65.6615 12.7565C65.6615 12.7735 65.6861 12.7749 65.7026 12.7678C65.6848 12.7763 65.6683 12.7905 65.6724 12.8019L65.6848 12.8416C65.6848 12.8529 65.7108 12.8416 65.7272 12.8317C65.7291 12.8424 65.7333 12.8526 65.7396 12.8614C65.7364 12.8865 65.7397 12.9119 65.7491 12.9352C65.73 12.9451 65.7135 12.9607 65.7217 12.9707C65.7493 13.0048 65.7639 13.0482 65.7628 13.0926C65.7628 13.1012 65.7628 13.1012 65.7834 13.0926H65.819C65.8184 13.0942 65.818 13.0959 65.818 13.0976C65.818 13.0993 65.8184 13.101 65.819 13.1026C65.813 13.1037 65.8073 13.1062 65.8023 13.1098C65.7973 13.1135 65.7932 13.1183 65.7902 13.1238C65.7883 13.1369 65.7851 13.1498 65.7807 13.1621C65.7724 13.1877 65.7944 13.1934 65.8163 13.1877C65.8191 13.2027 65.8274 13.2159 65.8396 13.2246H65.8491C65.8587 13.2246 65.8574 13.2345 65.8628 13.2402C65.8683 13.2458 65.8861 13.2402 65.8998 13.2402C65.8998 13.2402 65.8574 13.2643 65.8628 13.2785C65.879 13.2786 65.895 13.2747 65.9094 13.2671C65.9094 13.2671 65.9245 13.2558 65.9094 13.2671C65.8935 13.2703 65.8787 13.2782 65.867 13.2898V13.2997C65.867 13.3097 65.867 13.3168 65.867 13.3168C65.8653 13.3354 65.8702 13.354 65.8807 13.3692C65.893 13.3848 65.9313 13.3692 65.9423 13.3494C65.9417 13.3539 65.9422 13.3586 65.9439 13.3628C65.9456 13.367 65.9483 13.3707 65.9519 13.3735C65.9286 13.3735 65.9039 13.4033 65.9122 13.4118C65.9223 13.4226 65.9303 13.4355 65.9355 13.4497C65.9406 13.4638 65.943 13.4789 65.9423 13.4941C65.9423 13.5026 65.9519 13.504 65.9642 13.4941C65.9744 13.5046 65.9831 13.5165 65.9902 13.5295H65.9985C65.9951 13.5322 65.9924 13.5357 65.9905 13.5396C65.9886 13.5435 65.9876 13.5478 65.9875 13.5522C65.9697 13.5877 66.0163 13.5848 66.0368 13.5664C66.0574 13.548 66.0368 13.5664 66.0368 13.5749C66.0149 13.5848 65.9889 13.6075 66.0012 13.616C66.0135 13.6245 66.0012 13.616 66.0108 13.616C66.0204 13.616 65.9957 13.6316 65.9971 13.6401V13.6614C65.9971 13.687 66.0505 13.6614 66.0601 13.6458C66.0646 13.6534 66.0682 13.6615 66.0711 13.6699C66.0711 13.6841 66.0848 13.7011 66.093 13.7167C66.0856 13.7209 66.0797 13.7274 66.0762 13.7354C66.0727 13.7433 66.0719 13.7522 66.0738 13.7607C66.0738 13.7763 66.0971 13.7749 66.1122 13.7607C66.1012 13.7721 66.0971 13.7834 66.1053 13.7905C66.1222 13.8044 66.1354 13.8224 66.1437 13.843H66.167C66.1739 13.857 66.1821 13.8703 66.1916 13.8827C66.1724 13.8926 66.1574 13.9068 66.1642 13.9111C66.1745 13.9224 66.1836 13.9348 66.1916 13.9479C66.2012 13.9607 66.2135 13.9479 66.2272 13.9479L66.2409 13.9692C66.2176 13.9806 66.2012 14.0089 66.2245 14.0146C66.2401 14.0192 66.2536 14.0292 66.2628 14.043C66.2682 14.047 66.2747 14.0492 66.2813 14.0492C66.288 14.0492 66.2945 14.047 66.2998 14.043L66.3122 14.0586C66.2944 14.0699 66.2807 14.0912 66.3026 14.0969C66.3268 14.1039 66.3506 14.1124 66.3738 14.1224C66.3682 14.1225 66.3626 14.1239 66.3576 14.1266C66.3526 14.1293 66.3483 14.1332 66.345 14.138C66.3368 14.1479 66.3313 14.1692 66.345 14.1721H66.4204C66.4242 14.1822 66.4274 14.1927 66.43 14.2033C66.43 14.216 66.4464 14.2203 66.4587 14.2174C66.4711 14.2146 66.4697 14.2174 66.4697 14.2174C66.4697 14.2174 66.4519 14.2359 66.4628 14.2387C66.4775 14.2395 66.4917 14.2439 66.5043 14.2516C66.5169 14.2592 66.5276 14.2699 66.5354 14.2827H66.5697C66.5587 14.2898 66.5519 14.3011 66.5587 14.3054L66.5957 14.3465C66.6039 14.3564 66.6286 14.3465 66.6464 14.3366C66.6426 14.3372 66.6391 14.3387 66.6359 14.3409C66.6327 14.3431 66.6301 14.346 66.6281 14.3493C66.6262 14.3527 66.6249 14.3565 66.6246 14.3604C66.6242 14.3644 66.6246 14.3683 66.6259 14.372C66.6273 14.3763 66.6303 14.3798 66.6341 14.382C66.6341 14.382 66.6259 14.3962 66.6341 14.399C66.6437 14.403 66.6525 14.4088 66.6601 14.416C66.6601 14.416 66.6533 14.4274 66.6601 14.4345C66.645 14.4345 66.6313 14.4543 66.6368 14.4628C66.6423 14.4713 66.6861 14.4416 66.6944 14.4515C66.6765 14.46 66.6656 14.4713 66.6752 14.4798C66.6852 14.4887 66.6924 14.5006 66.6957 14.5139C66.6957 14.5238 66.7135 14.5238 66.7286 14.5139C66.7108 14.5238 66.6971 14.5352 66.7039 14.5366C66.7153 14.5419 66.7273 14.5457 66.7396 14.5479C66.7544 14.5465 66.7688 14.5422 66.782 14.5352H66.7902C66.7896 14.5367 66.7893 14.5384 66.7893 14.5401C66.7893 14.5418 66.7896 14.5435 66.7902 14.5451C66.7724 14.555 66.7587 14.5692 66.7642 14.5735C66.7714 14.584 66.7761 14.5961 66.7779 14.6089C66.7889 14.6231 66.8519 14.5933 66.8437 14.5791H66.8683L66.8601 14.5962C66.8464 14.6061 66.8354 14.616 66.8437 14.6217C66.8519 14.6274 66.8437 14.6217 66.8354 14.6217C66.8272 14.6217 66.819 14.643 66.8354 14.6472C66.8521 14.647 66.8684 14.6416 66.882 14.6316C66.8916 14.6316 66.8656 14.6728 66.882 14.6713H66.9149C66.9149 14.6855 66.9245 14.6983 66.9491 14.694C66.9615 14.6993 66.973 14.7065 66.9834 14.7153C66.967 14.7309 66.9533 14.7522 66.9615 14.7593C66.9783 14.7693 66.9943 14.7807 67.0094 14.7933C67.017 14.7937 67.0245 14.7922 67.0314 14.789C67.0383 14.7858 67.0444 14.781 67.0491 14.7749L67.0752 14.7976C67.0505 14.8188 67.0327 14.8586 67.0752 14.86C67.0971 14.8616 67.1182 14.87 67.1354 14.8841C67.1502 14.8856 67.165 14.881 67.1765 14.8713L67.1985 14.8855C67.1793 14.9068 67.1683 14.9366 67.1985 14.938C67.2307 14.9389 67.2628 14.9427 67.2944 14.9493L67.3039 14.9366C67.3967 14.9862 67.5013 15.0074 67.6053 14.9976C67.7861 14.9196 67.8272 14.7139 67.9245 14.5323C67.9975 14.3889 68.1033 14.2662 68.2327 14.1749C68.3012 14.1252 68.3697 14.0444 68.3779 14.043C68.3944 14.0413 68.4096 14.0332 68.4204 14.0203C68.4204 14.0203 68.4396 14.0004 68.4204 14.0033C68.4159 13.9991 68.4108 13.9958 68.4053 13.9933C68.437 13.9815 68.4643 13.9596 68.4834 13.9309C68.4834 13.9309 68.4902 13.9125 68.4957 13.9011C68.5012 13.8898 68.5081 13.8813 68.4957 13.8784C68.4834 13.8756 68.4957 13.8784 68.5026 13.8784C68.5096 13.8813 68.5174 13.8813 68.5245 13.8784C68.5615 13.8784 68.6012 13.5352 68.6163 13.5026C68.6178 13.5032 68.6194 13.5036 68.6211 13.5036C68.6227 13.5036 68.6243 13.5032 68.6259 13.5026C68.6429 13.4937 68.6582 13.4817 68.6711 13.4671C68.6944 13.4316 68.645 13.4345 68.6245 13.4558V13.616L68.6368 13.6075L68.6533 13.599C68.6752 13.599 68.6998 13.565 68.6889 13.5508C68.7044 13.527 68.7142 13.4998 68.7176 13.4714C68.7368 13.4714 68.7711 13.4416 68.7628 13.4231C68.7546 13.4047 68.7409 13.4089 68.7272 13.4132C68.7334 13.4079 68.7404 13.4036 68.7478 13.4004C68.7626 13.3924 68.7756 13.3813 68.7861 13.3678C68.8094 13.3678 68.8327 13.3423 68.8245 13.3253C68.8232 13.3202 68.8232 13.3148 68.8245 13.3097C68.8245 13.2969 68.8067 13.2955 68.7944 13.2983L68.8094 13.2898C68.819 13.2898 68.8916 13.2302 68.8656 13.2189C68.8495 13.2146 68.8357 13.2039 68.8272 13.1891H68.8327C68.8475 13.1877 68.8619 13.1834 68.8752 13.1763C68.8901 13.171 68.9027 13.1605 68.9108 13.1465L68.93 13.1579C68.9793 13.182 69.0793 13.0912 69.03 13.06C69.0445 13.05 69.0562 13.0363 69.0642 13.0203C69.0669 13.0043 69.0669 12.988 69.0642 12.9721C69.0642 12.9721 69.0642 12.9593 69.056 12.9579C69.0823 12.9465 69.1057 12.9291 69.1245 12.9068C69.1314 12.9011 69.137 12.8938 69.1409 12.8856C69.1689 12.8314 69.1914 12.7743 69.2081 12.7153C69.2437 12.6997 69.2724 12.6671 69.2615 12.6388C69.2594 12.6326 69.2561 12.6269 69.2519 12.622C69.2477 12.6171 69.2425 12.6132 69.2368 12.6104V12.5948C69.2491 12.5724 69.2644 12.5519 69.282 12.5338C69.2847 12.4821 69.282 12.4303 69.2738 12.3792C69.2834 12.3664 69.2902 12.3551 69.2861 12.3451C69.2834 12.3301 69.2834 12.3148 69.2861 12.2998C69.2996 12.2983 69.3129 12.2954 69.3259 12.2912C69.3601 12.2912 69.3724 12.2912 69.3834 12.2572C69.3944 12.2232 69.3834 12.2189 69.3697 12.2146C69.3848 12.2005 69.3944 12.1863 69.3902 12.1749L69.4012 12.0558C69.408 12.0494 69.4131 12.0414 69.4162 12.0325C69.4193 12.0236 69.4203 12.0141 69.419 12.0047C69.419 11.9962 69.4327 11.9636 69.43 11.9522C69.4242 11.9439 69.4162 11.9376 69.4069 11.934C69.3976 11.9305 69.3875 11.9299 69.3779 11.9324C69.356 11.9324 69.3779 11.9125 69.3779 11.9012C69.3779 11.8898 69.393 11.8785 69.3902 11.87C69.3857 11.8636 69.3832 11.8559 69.3832 11.848C69.3832 11.8401 69.3857 11.8324 69.3902 11.826C69.4067 11.8061 69.3902 11.7948 69.3752 11.7991C69.3887 11.7905 69.3994 11.778 69.406 11.7631C69.4126 11.7482 69.4148 11.7315 69.4122 11.7154C69.41 11.7096 69.4059 11.7048 69.4006 11.702C69.3953 11.6991 69.3892 11.6983 69.3834 11.6998C69.3898 11.6928 69.3945 11.6845 69.3974 11.6755C69.4002 11.6664 69.4011 11.6568 69.3998 11.6473C69.3998 11.6303 69.3861 11.6161 69.3807 11.6005C69.3799 11.5975 69.3785 11.5946 69.3766 11.5922C69.3747 11.5898 69.3724 11.5877 69.3697 11.5863C69.3725 11.5351 69.3669 11.4838 69.3533 11.4345C69.358 11.43 69.3613 11.424 69.3628 11.4175V11.4033C69.3682 11.3973 69.3728 11.3906 69.3765 11.3835C69.3861 11.3448 69.3861 11.3044 69.3765 11.2657C69.3753 11.265 69.3739 11.2646 69.3724 11.2646C69.371 11.2646 69.3696 11.265 69.3683 11.2657L69.3779 11.253C69.3916 11.2359 69.3711 11.2331 69.3574 11.2359C69.3573 11.2285 69.3543 11.2213 69.3491 11.2161C69.3155 11.1842 69.2888 11.1454 69.2706 11.1022C69.2524 11.0589 69.2433 11.0122 69.2437 10.965C69.2437 10.9423 69.2176 10.9381 69.1916 10.948C69.1705 10.9124 69.1436 10.8807 69.1122 10.8544L69.0848 10.8289C69.1039 10.8133 69.1176 10.7962 69.1122 10.7821C69.1047 10.7648 69.0945 10.749 69.082 10.7352C69.0711 10.7211 69.0396 10.7267 69.0135 10.7438L68.9697 10.6643C68.9773 10.6593 68.9838 10.6526 68.9887 10.6448C68.9937 10.637 68.997 10.6282 68.9985 10.6189H69.0053L68.9944 10.6104V10.5906C68.9944 10.5906 68.982 10.5806 68.9697 10.5821C68.9544 10.5677 68.9379 10.5549 68.9204 10.5438C68.9218 10.5391 68.9218 10.5342 68.9204 10.5296V10.5211C68.9478 10.5026 68.9409 10.4714 68.9204 10.4714C68.9282 10.4684 68.9348 10.4629 68.9396 10.4558C68.9396 10.4416 68.9478 10.4303 68.9491 10.4175C68.9524 10.4163 68.9552 10.4142 68.9574 10.4115C68.9595 10.4087 68.961 10.4054 68.9615 10.4019V10.3835H68.9423C68.9423 10.3835 68.9505 10.375 68.9505 10.3721V10.3452V10.3296L68.9368 10.314C68.934 10.3126 68.931 10.3119 68.9279 10.3119C68.9248 10.3119 68.9218 10.3126 68.919 10.314C68.9137 10.3064 68.9091 10.2984 68.9053 10.2899C68.9053 10.2686 68.8738 10.2714 68.856 10.2899C68.8409 10.2558 68.8286 10.2246 68.8163 10.1948C68.8039 10.165 68.7944 10.1948 68.7738 10.1948L68.7464 10.1594H68.7396C68.7396 10.1594 68.7601 10.1197 68.7313 10.1111L68.6971 10.097C68.7081 10.087 68.7122 10.0785 68.7081 10.0672C68.701 10.0566 68.6916 10.0478 68.6807 10.0416H68.6574C68.6478 10.0416 68.6574 10.0416 68.6574 10.0331C68.6574 10.0246 68.6807 10.0104 68.6711 9.99909C68.665 9.98736 68.6577 9.97641 68.6491 9.96647V9.95087C68.6491 9.95087 68.6491 9.98917 68.6491 9.98775C68.6491 9.98633 68.6491 9.98775 68.6491 9.97782L68.6382 9.9608C68.6382 9.9608 68.6382 9.95229 68.6231 9.95229C68.618 9.94524 68.6147 9.93694 68.6135 9.92817C68.6139 9.92658 68.614 9.92492 68.6137 9.92329C68.6134 9.92167 68.6128 9.92013 68.6119 9.91878C68.611 9.91743 68.6098 9.91631 68.6084 9.91548C68.6071 9.91465 68.6055 9.91414 68.6039 9.91399V9.88846C68.6039 9.88846 68.5944 9.88846 68.582 9.88846C68.5863 9.88543 68.5901 9.88158 68.593 9.87711C68.5916 9.86866 68.5916 9.86003 68.593 9.85158H68.5861C68.5875 9.84921 68.5882 9.84652 68.5882 9.84378C68.5882 9.84104 68.5875 9.83835 68.5861 9.83598C68.5861 9.83598 68.5587 9.78633 68.5491 9.78633C68.5472 9.78339 68.5445 9.78104 68.5414 9.77954C68.5382 9.77805 68.5348 9.77745 68.5313 9.77782C68.5252 9.77167 68.5209 9.76378 68.519 9.75513C68.519 9.73243 68.4861 9.73385 68.467 9.7452C68.4478 9.75655 68.467 9.73102 68.4574 9.72251C68.4588 9.71891 68.4589 9.71487 68.4577 9.7112C68.4564 9.70752 68.4539 9.70447 68.4505 9.70265C68.4505 9.68421 68.4354 9.66719 68.4313 9.65017C68.4272 9.63315 68.4313 9.65017 68.4218 9.65017C68.4178 9.64112 68.4117 9.6333 68.4039 9.62747H68.382V9.61754C68.3852 9.61705 68.3883 9.61586 68.3911 9.61406C68.3938 9.61225 68.3962 9.60987 68.398 9.60706C68.3998 9.60426 68.401 9.60109 68.4016 9.59776C68.4021 9.59444 68.402 9.59103 68.4012 9.58776C68.4012 9.57499 68.3875 9.56364 68.382 9.55088C68.3765 9.53811 68.382 9.53953 68.382 9.53811C68.3631 9.51993 68.3479 9.49801 68.3373 9.47365C68.3268 9.44929 68.321 9.42298 68.3204 9.39627C68.3204 9.37358 68.2793 9.39627 68.2752 9.40478C68.2779 9.39313 68.2779 9.38097 68.2752 9.36932C68.2998 9.3523 68.3081 9.31968 68.3204 9.30691C68.3574 9.26294 68.3354 9.26294 68.3204 9.24025C68.3053 9.21755 68.3697 9.1594 68.3697 9.1594C68.3653 9.14493 68.3565 9.1323 68.3447 9.12337C68.3329 9.11443 68.3186 9.10966 68.3039 9.10975C68.3094 9.08981 68.3094 9.0687 68.3039 9.04876H68.2957C68.2975 9.04748 68.2997 9.0468 68.3019 9.0468C68.3041 9.0468 68.3062 9.04748 68.3081 9.04876C68.3382 9.04876 68.3546 9.00479 68.3081 9.00905H68.2848C68.2917 9.0077 68.2982 9.0048 68.3039 9.00054C68.3096 9.00064 68.3152 8.9991 68.32 8.99609C68.3248 8.99308 68.3288 8.98873 68.3313 8.98351C68.3396 8.96664 68.3492 8.9505 68.3601 8.93529H68.367C68.367 8.92678 68.367 8.92252 68.3601 8.92252C68.3575 8.91917 68.3541 8.91652 68.3503 8.9148C68.3465 8.91307 68.3423 8.91231 68.3382 8.91259C68.3412 8.90937 68.3436 8.9055 68.345 8.90125C68.345 8.89132 68.345 8.88706 68.3382 8.88423C68.3546 8.88423 68.3697 8.87004 68.3683 8.86437C68.3682 8.85604 68.3653 8.848 68.3601 8.84167C68.3519 8.83316 68.3697 8.83316 68.3697 8.82749V8.79345C68.3697 8.78068 68.3587 8.77643 68.3478 8.77643V8.74522H68.3163C68.3157 8.73767 68.3157 8.73008 68.3163 8.72253C68.3163 8.70267 68.2752 8.70409 68.2464 8.72253C68.2612 8.71637 68.2743 8.70664 68.2848 8.69416C68.2916 8.68281 68.2738 8.67998 68.2697 8.68139C68.2583 8.68169 68.2473 8.68566 68.2382 8.69274H68.2286C68.2345 8.69295 68.2402 8.69111 68.245 8.6875C68.2497 8.6839 68.2531 8.67875 68.2546 8.67288V8.66437C68.2546 8.66437 68.2861 8.64168 68.2724 8.63033C68.2641 8.62123 68.2544 8.61356 68.2437 8.60764C68.2396 8.60552 68.2352 8.60441 68.2307 8.60441C68.2261 8.60441 68.2217 8.60552 68.2176 8.60764C68.2176 8.59913 68.2012 8.59771 68.1916 8.60764C68.1804 8.60099 68.1684 8.59575 68.156 8.59203H68.1327C68.1437 8.58211 68.1505 8.5665 68.1327 8.55799C68.1195 8.55083 68.1057 8.54467 68.0916 8.53955H68.0998C68.1108 8.52537 68.082 8.52821 68.0752 8.52537C68.0683 8.52253 68.0752 8.51544 68.0656 8.51118L68.0368 8.49558C68.0286 8.49558 68.0478 8.46154 68.0368 8.44452C68.0328 8.43911 68.0277 8.43474 68.0217 8.43175H67.9998C67.9998 8.43175 68.0163 8.40197 68.0108 8.38636C68.0053 8.37076 67.9998 8.38636 67.9957 8.3736C67.9916 8.36083 67.9957 8.35941 67.9957 8.35232C67.9957 8.34523 67.9889 8.35232 67.9848 8.35232C67.9807 8.35232 67.9848 8.33246 67.9779 8.32963H67.9683C67.9566 8.31274 67.9433 8.29706 67.9286 8.28282H67.9204V8.27147C67.9164 8.26471 67.9102 8.25969 67.9028 8.25734C67.8955 8.25499 67.8876 8.25548 67.8807 8.25871H67.8738C67.866 8.26176 67.859 8.26661 67.8533 8.27289C67.8298 8.23059 67.8012 8.19152 67.7683 8.15658C67.7519 8.13956 67.7327 8.14382 67.7122 8.15658V8.14098C67.7341 8.1268 67.7491 8.10268 67.7382 8.08424C67.7324 8.07616 67.7283 8.06701 67.7259 8.05729L67.7163 8.04737C67.7145 8.03981 67.7107 8.03292 67.7053 8.02751C67.73 8.00765 67.7519 7.98212 67.7409 7.95091C67.73 7.91971 67.7217 7.94098 67.7053 7.95091C67.7042 7.92608 67.701 7.9014 67.6957 7.87716C67.7024 7.86752 67.7066 7.8563 67.7081 7.84453C67.7166 7.83208 67.7214 7.81726 67.7217 7.80198C67.7217 7.7878 67.7217 7.75943 67.7354 7.75375C67.7491 7.74808 67.7574 7.75375 67.7683 7.75375C67.7808 7.74892 67.7921 7.74116 67.8012 7.73106V7.71404C67.8039 7.71043 67.8058 7.7063 67.8069 7.7019C67.808 7.69751 67.8082 7.69293 67.8076 7.68843C67.807 7.68394 67.8055 7.67962 67.8032 7.67574C67.8009 7.67185 67.7979 7.66848 67.7944 7.66581C67.7806 7.65616 67.7678 7.64524 67.756 7.63319C67.7554 7.63162 67.755 7.62993 67.755 7.62823C67.755 7.62652 67.7554 7.62483 67.756 7.62326V7.60057C67.756 7.60057 67.7368 7.52397 67.7368 7.51688C67.7323 7.50344 67.7264 7.49059 67.719 7.47858C67.7011 7.45898 67.6797 7.4431 67.656 7.43178H67.6464C67.6198 7.31773 67.5784 7.20797 67.5231 7.10554C67.5167 7.0957 67.5069 7.08875 67.4957 7.08612C67.4845 7.08348 67.4728 7.08536 67.4628 7.09136C67.4515 7.08923 67.4399 7.08923 67.4286 7.09136C67.4183 7.08853 67.4074 7.08853 67.3971 7.09136C67.3971 7.09136 67.4094 7.07859 67.4094 7.0715C67.4094 7.03888 67.3752 7.03888 67.3464 7.04455L67.3135 7.01335C67.2957 6.95661 67.2683 6.90696 67.2491 6.85306C67.2505 6.84557 67.2505 6.83787 67.2491 6.83037C67.2504 6.81475 67.2476 6.79906 67.2409 6.78498C67.2343 6.77657 67.2255 6.77025 67.2156 6.76674C67.2057 6.76323 67.195 6.76267 67.1848 6.76512C67.1841 6.75691 67.1813 6.74905 67.1765 6.74243C67.183 6.71692 67.1866 6.69076 67.1875 6.66442C67.1875 6.65591 67.1711 6.65591 67.1491 6.66442C67.1433 6.64632 67.1359 6.62877 67.1272 6.61194C67.1179 6.59386 67.1069 6.57676 67.0944 6.56087C67.0862 6.538 67.0806 6.51419 67.0779 6.48995C67.0779 6.48002 67.0491 6.48144 67.0231 6.48995C67.0231 6.48995 67.0231 6.48144 67.0094 6.47577C66.9513 6.41364 66.887 6.35801 66.8176 6.30981C66.8108 6.30494 66.8027 6.30232 66.7944 6.30232C66.786 6.30232 66.7779 6.30494 66.7711 6.30981C66.7711 6.3013 66.7491 6.30981 66.7245 6.30981C66.7139 6.29007 66.702 6.27111 66.6889 6.25308C66.6765 6.23245 66.6613 6.21381 66.6437 6.19776C66.6341 6.17365 66.6245 6.14953 66.6163 6.12258C66.6093 6.11212 66.5994 6.10417 66.5878 6.09985C66.5763 6.09552 66.5637 6.09504 66.5519 6.09847C66.5437 6.09847 66.5382 6.0772 66.5313 6.07152C66.5245 6.06585 66.4683 6.02471 66.4464 6.03464C66.4245 6.04457 66.3738 6.02046 66.33 6.01337C66.2861 6.00628 66.2642 6.01337 66.2615 6.03181H66.2491C66.2509 6.03001 66.2522 6.02773 66.2529 6.02523C66.2535 6.02272 66.2535 6.02009 66.2528 6.0176C66.2521 6.01512 66.2507 6.01288 66.2489 6.01114C66.247 6.00939 66.2447 6.0082 66.2423 6.00769C66.2282 6.00592 66.2143 6.0021 66.2012 5.99635C66.182 5.98784 66.1245 6.01904 66.1478 6.03181H66.1313C66.1313 6.03181 66.1423 6.02046 66.1313 6.01195C66.1371 6.00419 66.1409 5.99505 66.1423 5.98538C66.1437 5.97571 66.1428 5.96582 66.1396 5.95663C66.1327 5.93394 66.067 5.95663 66.0724 5.98074L66.0642 5.99493C66.0437 5.99493 65.9902 6.03039 66.0368 6.02613H66.0533C66.0526 6.0308 66.0534 6.03555 66.0557 6.03966C66.0579 6.04377 66.0614 6.04699 66.0656 6.04883L66.056 6.05876C66.0519 6.06415 66.0491 6.07047 66.0478 6.0772C66.0377 6.07795 66.0281 6.0817 66.0201 6.08799C66.0121 6.09429 66.006 6.10285 66.0026 6.11266C66.0026 6.124 66.0026 6.12684 66.0272 6.124C66.0242 6.13555 66.0205 6.14692 66.0163 6.15804C66.0095 6.15683 66.0025 6.15683 65.9957 6.15804C65.9752 6.15804 65.945 6.16939 65.945 6.18499V6.21053C65.9451 6.2215 65.949 6.23208 65.956 6.24031C65.951 6.24065 65.9463 6.24285 65.9428 6.2465C65.9393 6.25015 65.9371 6.25501 65.9368 6.26017C65.9368 6.26868 65.9368 6.27152 65.9519 6.27435C65.9445 6.27618 65.9375 6.27956 65.9313 6.28428C65.9239 6.28426 65.9167 6.28638 65.9104 6.29039C65.9041 6.29439 65.899 6.30014 65.8957 6.30698C65.884 6.30828 65.8725 6.31114 65.8615 6.31549L65.845 6.32542C65.8354 6.32542 65.8176 6.34386 65.83 6.3552C65.834 6.35732 65.8385 6.35843 65.843 6.35843C65.8475 6.35843 65.852 6.35732 65.856 6.3552V6.36371C65.8525 6.36784 65.8506 6.37313 65.8506 6.37861C65.8506 6.38408 65.8525 6.38937 65.856 6.3935H65.8642C65.8731 6.39621 65.8825 6.39659 65.8916 6.39461C65.9007 6.39263 65.9092 6.38835 65.9163 6.38215C65.9108 6.39239 65.9049 6.40234 65.8985 6.41194C65.8902 6.41226 65.8821 6.41445 65.8748 6.41838C65.8674 6.4223 65.861 6.42785 65.856 6.43463C65.8493 6.43828 65.8436 6.44366 65.8396 6.45024H65.8327C65.8327 6.45024 65.8026 6.47293 65.8122 6.48144C65.8082 6.4823 65.8047 6.4844 65.802 6.48745C65.7993 6.4905 65.7976 6.49435 65.7971 6.49846C65.7958 6.50357 65.7958 6.50896 65.7971 6.51407C65.7971 6.52825 65.8149 6.53109 65.8313 6.52683L65.8039 6.57789C65.7978 6.57809 65.7918 6.58043 65.7871 6.58455C65.7824 6.58867 65.7791 6.59432 65.7779 6.60059C65.7742 6.60594 65.771 6.61164 65.7683 6.61761V6.62896C65.7697 6.64215 65.7697 6.65547 65.7683 6.66867C65.759 6.68114 65.7489 6.69299 65.7382 6.70413H65.7231C65.708 6.70413 65.7135 6.76087 65.7039 6.77647C65.6928 6.79772 65.6794 6.81769 65.6642 6.83604C65.6656 6.84592 65.6656 6.85595 65.6642 6.86583C65.6672 6.88986 65.6613 6.91416 65.6478 6.93391C65.6272 6.95661 65.5779 6.97789 65.5807 7.01902C65.5683 7.02895 65.5902 7.0332 65.5998 7.0332C65.5796 7.05751 65.5608 7.08309 65.5437 7.1098C65.5277 7.11245 65.5123 7.11822 65.4985 7.12682C65.4966 7.12682 65.4949 7.12757 65.4936 7.1289C65.4923 7.13023 65.4916 7.13203 65.4916 7.13391C65.4916 7.13579 65.4923 7.13759 65.4936 7.13892C65.4949 7.14025 65.4966 7.141 65.4985 7.141H65.519C65.515 7.14666 65.5118 7.15287 65.5094 7.15944C65.5 7.16114 65.4911 7.16502 65.4834 7.17079C65.4628 7.18072 65.4519 7.20058 65.467 7.20909C65.467 7.20909 65.4313 7.23036 65.4505 7.22043C65.4697 7.2105 65.4204 7.23462 65.4313 7.24029C65.4423 7.24596 65.4642 7.24029 65.4752 7.24029C65.4861 7.24029 65.4752 7.24029 65.4752 7.25164C65.4533 7.25164 65.4259 7.2644 65.4259 7.28142V7.28994C65.4259 7.3027 65.4368 7.30837 65.4491 7.30979C65.4109 7.41354 65.3874 7.52246 65.3793 7.63319C65.3706 7.63503 65.3628 7.64007 65.3574 7.64737C65.3491 7.6592 65.3435 7.67276 65.3409 7.68709C65.3409 7.69844 65.3409 7.70553 65.3505 7.70695C65.3475 7.7089 65.3451 7.71163 65.3434 7.71486C65.3417 7.71809 65.3409 7.72172 65.3409 7.72539V7.76652C65.3409 7.77929 65.3505 7.78354 65.3628 7.78354C65.3752 7.78354 65.3628 7.81616 65.3628 7.83177C65.3628 7.84737 65.3231 7.84595 65.3231 7.86013C65.3231 7.87716 65.3478 7.95517 65.3587 7.95375C65.3545 7.95578 65.3508 7.95896 65.3482 7.96295C65.3455 7.96695 65.344 7.97161 65.3437 7.97644V7.98496C65.3437 7.99772 65.3574 8.00198 65.3683 8.00339V8.03318C65.3711 8.05816 65.3711 8.08338 65.3683 8.10836C65.3519 8.10836 65.3354 8.12396 65.3368 8.13531V8.15091H65.3656C65.3642 8.16126 65.3642 8.17176 65.3656 8.18211C65.3591 8.18414 65.3534 8.18809 65.3491 8.19346C65.3436 8.1965 65.3389 8.20088 65.3354 8.20623C65.3272 8.20623 65.319 8.21899 65.319 8.2275V8.24594C65.319 8.25587 65.3327 8.26013 65.345 8.25871C65.3368 8.27971 65.3272 8.30009 65.3163 8.3197C65.2875 8.36946 65.2719 8.42622 65.2711 8.48423C65.2565 8.48478 65.2424 8.48917 65.23 8.497C65.2231 8.50693 65.2163 8.5126 65.2163 8.52537C65.2166 8.5278 65.2174 8.53014 65.2186 8.53225C65.2198 8.53436 65.2215 8.5362 65.2234 8.53765C65.2253 8.5391 65.2275 8.54015 65.2298 8.54072C65.2321 8.54129 65.2345 8.54137 65.2368 8.54097C65.2349 8.54094 65.2329 8.54164 65.2314 8.54294C65.2299 8.54424 65.2289 8.54606 65.2286 8.54806C65.2286 8.54806 65.1642 8.54806 65.167 8.57218C65.1666 8.57609 65.167 8.58004 65.1681 8.58381C65.1692 8.58757 65.171 8.59107 65.1734 8.59411C65.1758 8.59714 65.1788 8.59965 65.1822 8.60148C65.1855 8.60332 65.1892 8.60444 65.193 8.6048C65.2019 8.60764 65.2115 8.60764 65.2204 8.6048V8.62608C65.2204 8.62608 65.1779 8.64168 65.1779 8.65303C65.1756 8.65424 65.1736 8.65605 65.1722 8.65829C65.1707 8.66053 65.1699 8.66311 65.1697 8.66579C65.1684 8.6771 65.1684 8.68853 65.1697 8.69983H65.2026C65.2079 8.70553 65.2121 8.71229 65.2149 8.71969C65.2122 8.72189 65.2101 8.7247 65.2087 8.72791C65.2073 8.73111 65.2066 8.73461 65.2067 8.73813C65.2065 8.74362 65.2079 8.74905 65.2105 8.75381C65.2132 8.75856 65.2171 8.76246 65.2217 8.76508C65.2173 8.7665 65.2133 8.76929 65.2103 8.77308C65.2074 8.77688 65.2057 8.78151 65.2053 8.78636C65.2039 8.80571 65.2039 8.82515 65.2053 8.84451C65.2051 8.84693 65.2054 8.84937 65.2061 8.85168C65.2069 8.85399 65.208 8.85613 65.2095 8.85798C65.2111 8.85982 65.2129 8.86134 65.215 8.86244C65.2171 8.86353 65.2194 8.86419 65.2217 8.86437C65.2146 8.86425 65.2077 8.86674 65.2022 8.87142C65.1966 8.87609 65.1929 8.88264 65.1916 8.8899V8.9055H65.2163C65.2286 8.9055 65.2163 8.91401 65.2163 8.91827C65.212 8.92548 65.207 8.93214 65.2012 8.93813C65.195 8.9465 65.1906 8.95614 65.1882 8.9664C65.1859 8.97667 65.1856 8.98733 65.1875 8.9977C65.193 9.02769 65.193 9.05848 65.1875 9.08848C65.1875 9.11685 65.1533 9.12961 65.1478 9.1438C65.1409 9.17367 65.1298 9.20234 65.1149 9.2289C65.108 9.24025 65.1396 9.23599 65.1423 9.23599C65.1437 9.24061 65.1437 9.24555 65.1423 9.25018C65.1305 9.2514 65.1191 9.2558 65.1094 9.26294L65.0943 9.27713C65.0943 9.27713 65.0341 9.27712 65.0259 9.29131C65.0111 9.3248 64.9946 9.35746 64.9765 9.38918C64.9642 9.41187 65.03 9.40053 65.0409 9.38918H65.0889C65.0809 9.39711 65.0748 9.40681 65.0711 9.41755C65.0533 9.4062 64.9943 9.43173 65.0122 9.44875C65.0188 9.45467 65.0248 9.46133 65.03 9.46861C65.03 9.50123 65.03 9.52677 65.0574 9.53811H65.0724C65.0724 9.53811 65.0491 9.55371 65.0491 9.56081C65.047 9.5746 65.0419 9.58771 65.0341 9.5991V9.60761C65.0341 9.60761 65.0259 9.61612 65.0272 9.61896C65.0286 9.6218 65.0122 9.64449 65.0135 9.64449C65.0143 9.65157 65.0143 9.6587 65.0135 9.66577C65.0085 9.67699 65.002 9.68748 64.9943 9.69697C64.9985 9.70009 65.0036 9.70177 65.0087 9.70177C65.0139 9.70177 65.0189 9.70009 65.0231 9.69697C65.024 9.69867 65.0251 9.70017 65.0265 9.70139C65.0279 9.7026 65.0296 9.70352 65.0313 9.70407C65.0313 9.70407 65.0437 9.72109 65.0313 9.72534C65.0295 9.72564 65.0278 9.72635 65.0263 9.72742C65.0248 9.72849 65.0236 9.72988 65.0227 9.73151C65.0217 9.73314 65.0212 9.73495 65.021 9.73683C65.0209 9.73871 65.0211 9.7406 65.0217 9.74236C65.0302 9.76097 65.0366 9.78047 65.0409 9.80052H65.0587C65.0489 9.80399 65.0403 9.81041 65.0341 9.81896C65.019 9.82747 65.0053 9.83881 65.019 9.85158C65.0327 9.86435 65.0409 9.8686 65.0368 9.88279C65.0259 9.91966 65.093 9.91115 65.1012 9.88279L65.1108 9.89697C65.1122 9.90062 65.1122 9.90467 65.1108 9.90832H65.093C65.0642 9.90832 65.0217 9.94661 65.0683 9.94945C65.0765 9.94945 65.0834 9.96222 65.0861 9.96647C65.0889 9.97073 65.0861 9.96647 65.0971 9.96647C65.1194 9.97202 65.1414 9.97913 65.1628 9.98775C65.1712 9.99487 65.1766 10.005 65.1779 10.0161C65.1697 10.0161 65.1697 10.0275 65.1779 10.0317C65.1834 10.034 65.1884 10.0376 65.1922 10.0423C65.196 10.047 65.1986 10.0526 65.1998 10.0587C65.1998 10.0743 65.208 10.0672 65.219 10.0686C65.208 10.0686 65.1971 10.0799 65.2012 10.0842C65.2107 10.0916 65.2174 10.1021 65.2204 10.114C65.2204 10.1225 65.2423 10.114 65.2587 10.114C65.2602 10.1357 65.2658 10.1569 65.2752 10.1764H65.2711C65.2711 10.1764 65.2574 10.1877 65.2574 10.1934C65.2601 10.2017 65.2601 10.2107 65.2574 10.2189C65.2464 10.2317 65.267 10.2346 65.2752 10.2331H65.2848C65.2834 10.2382 65.2834 10.2436 65.2848 10.2487C65.279 10.2487 65.2735 10.2508 65.2692 10.2548C65.2649 10.2587 65.2621 10.2641 65.2615 10.27H65.256C65.2327 10.287 65.23 10.4119 65.2423 10.4374C65.246 10.4412 65.2506 10.4439 65.2556 10.4454C65.2607 10.4469 65.266 10.4471 65.2711 10.4459C65.2519 10.4544 65.2382 10.4658 65.2478 10.4743C65.2565 10.4801 65.2644 10.4873 65.2711 10.4955C65.2706 10.4998 65.2706 10.5041 65.2711 10.5083V10.5239C65.2628 10.5239 65.2519 10.5409 65.2546 10.5494C65.256 10.5669 65.256 10.5845 65.2546 10.6019H65.2711V10.6374C65.2711 10.6374 65.2601 10.6487 65.2615 10.6558V10.6672C65.2533 10.6828 65.2464 10.6955 65.2615 10.6984C65.2692 10.697 65.2771 10.697 65.2848 10.6984C65.2841 10.6999 65.2838 10.7016 65.2838 10.7033C65.2838 10.705 65.2841 10.7067 65.2848 10.7083C65.2782 10.7109 65.2725 10.7153 65.2683 10.7211H65.2711C65.2671 10.7247 65.2639 10.729 65.2615 10.7338C65.26 10.7381 65.2577 10.742 65.2546 10.7452C65.2502 10.7438 65.2454 10.7438 65.2409 10.7452C65.2275 10.7485 65.2152 10.7556 65.2053 10.7655C65.1954 10.7755 65.1883 10.7881 65.1848 10.8019" fill="#43883D"/>
<path d="M75.4574 10.5438C75.4586 10.5289 75.4541 10.514 75.4449 10.5024C75.4357 10.4907 75.4225 10.4832 75.4081 10.4814C75.4057 10.4337 75.4103 10.3859 75.4218 10.3396C75.4424 10.3311 75.4547 10.3197 75.4519 10.3155C75.4204 10.2717 75.3942 10.2241 75.3739 10.1736C75.3629 10.1467 75.3287 10.0786 75.3492 10.0474C75.3698 10.0162 75.3396 10.0318 75.3177 10.0318C75.2925 9.89387 75.2742 9.75468 75.2629 9.61479C75.2767 9.6074 75.2881 9.59608 75.2958 9.58217C75.3081 9.5538 75.3136 9.52118 75.3259 9.49139C75.3272 9.48687 75.3268 9.482 75.3248 9.47778C75.3228 9.47356 75.3192 9.47031 75.315 9.4687C75.3256 9.46364 75.334 9.45448 75.3382 9.44316V9.42331C75.3485 9.41726 75.3573 9.40904 75.3643 9.39919C75.3874 9.34835 75.3974 9.29212 75.393 9.23608C75.3931 9.2335 75.3923 9.23097 75.3909 9.22891C75.3894 9.22685 75.3872 9.22537 75.3848 9.22473L75.3985 9.20913C75.4232 9.18927 75.3985 9.17934 75.3752 9.17792C75.378 9.1682 75.378 9.15786 75.3752 9.14814C75.3029 9.03439 75.2736 8.89702 75.293 8.76233C75.293 8.72829 75.2656 8.71694 75.2287 8.71836C75.2066 8.66161 75.1781 8.6078 75.1437 8.55808C75.1316 8.54391 75.1206 8.52873 75.1108 8.51269C75.1437 8.4985 75.1656 8.48006 75.1615 8.45737C75.1572 8.42622 75.148 8.39602 75.1341 8.36801C75.1204 8.34248 75.078 8.34248 75.0355 8.35241C75.0177 8.30986 75.004 8.26588 74.9917 8.22617C75.0232 8.21199 75.0451 8.19213 75.0451 8.16943V8.12688C75.0451 8.10419 75.0067 8.10135 74.9656 8.10702C74.9635 8.07446 74.9585 8.04217 74.9506 8.01057C74.9519 8.00643 74.9519 8.00195 74.9506 7.99781C74.9971 7.98078 74.993 7.93256 74.9643 7.92547C74.9742 7.9215 74.9831 7.91519 74.9903 7.90703C74.9973 7.89062 75.0065 7.87533 75.0177 7.86164C75.023 7.86052 75.0278 7.85774 75.0315 7.85367C75.0351 7.84961 75.0375 7.84446 75.0382 7.83894V7.81483H75.0081C75.0081 7.81483 75.0204 7.80632 75.0218 7.80065C75.0232 7.79497 75.03 7.77653 75.0328 7.76377C75.0355 7.751 75.0328 7.76377 75.0245 7.76377C75.0285 7.76171 75.0317 7.75838 75.0336 7.7543C75.0356 7.75021 75.0363 7.74557 75.0355 7.74107C75.0355 7.73256 75.0245 7.72405 75.0218 7.71696C75.0195 7.71277 75.0161 7.70935 75.0119 7.70709C75.0078 7.70483 75.0032 7.70382 74.9985 7.7042C74.9928 7.69166 74.9891 7.67825 74.9876 7.66448C74.9876 7.63186 74.9478 7.62618 74.9177 7.63895C74.9067 7.58647 74.8971 7.5354 74.8903 7.4886C74.8903 7.47016 74.8341 7.47299 74.7876 7.4886C74.7766 7.47158 74.7643 7.45597 74.7519 7.44037C74.8054 7.4191 74.8465 7.37654 74.7971 7.34676C74.7786 7.33562 74.7608 7.32331 74.7437 7.30988C74.7481 7.30935 74.7522 7.30794 74.756 7.30572C74.7598 7.30351 74.7632 7.30053 74.7659 7.29697C74.7685 7.2934 74.7705 7.28932 74.7716 7.28496C74.7728 7.28061 74.7731 7.27606 74.7725 7.27158C74.7676 7.25377 74.7576 7.23793 74.7437 7.22619C74.7341 7.21931 74.7224 7.21628 74.7108 7.21768C74.7122 7.21558 74.7129 7.21311 74.7129 7.21059C74.7129 7.20806 74.7122 7.2056 74.7108 7.2035C74.7328 7.2035 74.7492 7.17938 74.7424 7.15953C74.7355 7.13967 74.7095 7.08719 74.6944 7.04889C74.6793 7.01059 74.6547 7.02478 74.63 7.03471C74.63 7.02478 74.6204 7.01627 74.6177 7.00492C74.615 6.99357 74.5862 6.98081 74.5533 6.98364C74.5504 6.97752 74.5462 6.97218 74.541 6.96804C74.5256 6.96529 74.5098 6.96529 74.4944 6.96804C74.4749 6.94618 74.4543 6.92535 74.4328 6.90563V6.8645L74.4232 6.85173C74.4396 6.84322 74.4506 6.83046 74.4396 6.82194C74.4211 6.80365 74.4099 6.77886 74.4081 6.75244C74.4081 6.74393 74.3971 6.73968 74.3834 6.73968C74.3697 6.73968 74.3834 6.73259 74.3834 6.72691C74.3776 6.70675 74.3688 6.68762 74.3574 6.67018C74.3396 6.6489 74.2834 6.66308 74.2697 6.6872C74.2655 6.67579 74.2628 6.66387 74.2615 6.65174C74.2715 6.64972 74.2812 6.64639 74.2903 6.64181C74.3026 6.6333 74.3177 6.60918 74.2903 6.60067C74.2835 6.59599 74.2778 6.58967 74.2739 6.58223C74.2694 6.57811 74.2643 6.57476 74.2588 6.57231V6.54819C74.2834 6.54819 74.3177 6.53259 74.3191 6.51273V6.4872C74.3279 6.4839 74.3358 6.47856 74.3424 6.4716C74.3504 6.4646 74.357 6.45595 74.3618 6.44618C74.3665 6.43642 74.3692 6.42576 74.3697 6.41486V6.39217C74.3704 6.3906 74.3707 6.38891 74.3707 6.3872C74.3707 6.3855 74.3704 6.38381 74.3697 6.38224C74.3807 6.37373 74.3697 6.36238 74.3697 6.35954C74.3862 6.39217 74.4602 6.37373 74.4602 6.3411V6.28862C74.46 6.285 74.4591 6.28146 74.4574 6.27827C74.4557 6.27508 74.4534 6.27231 74.4506 6.27018C74.4697 6.26167 74.4834 6.24323 74.4697 6.22338L74.4492 6.2021C74.467 6.19359 74.478 6.18082 74.4615 6.17373C74.4542 6.16803 74.4481 6.16078 74.4437 6.15246C74.4341 6.14253 74.4163 6.14395 74.3971 6.15246H74.3862C74.3999 6.14536 74.4122 6.13827 74.4122 6.12692V6.09856C74.4122 6.08579 74.3903 6.08437 74.3697 6.09005C74.3697 5.96239 74.441 5.91416 74.4629 5.77941C74.4632 5.76911 74.4601 5.759 74.4542 5.75075C74.4482 5.7425 74.4397 5.7366 74.43 5.73403C74.4944 5.717 74.4944 5.66736 74.4807 5.60353C74.4804 5.60115 74.4792 5.59898 74.4775 5.59741C74.4757 5.59585 74.4734 5.595 74.4711 5.59502C74.4739 5.59233 74.4776 5.59083 74.4814 5.59083C74.4852 5.59083 74.4889 5.59233 74.4917 5.59502C74.541 5.59502 74.5643 5.52268 74.5013 5.52694C74.4877 5.52411 74.4737 5.52411 74.4602 5.52694C74.4714 5.52431 74.4821 5.51949 74.4917 5.51275C74.5013 5.51325 74.5109 5.51116 74.5196 5.50669C74.5282 5.50221 74.5356 5.49551 74.541 5.48722C74.552 5.45837 74.5668 5.43117 74.5848 5.40637H74.5958C74.5958 5.40637 74.5958 5.38652 74.5834 5.3851V5.37517C74.5834 5.3624 74.5697 5.35673 74.5478 5.35673C74.5478 5.35673 74.5574 5.3468 74.5574 5.33971C74.5603 5.33613 74.5619 5.33161 74.5619 5.32694C74.5619 5.32227 74.5603 5.31775 74.5574 5.31418C74.5834 5.30708 74.6081 5.2929 74.6054 5.28581C74.5976 5.27386 74.5911 5.261 74.5862 5.24751C74.5903 5.24474 74.5937 5.24096 74.5961 5.23651C74.5985 5.23206 74.5998 5.22707 74.5999 5.22198V5.19787C74.5999 5.17375 74.5821 5.16524 74.5615 5.16524C74.541 5.16524 74.5533 5.12978 74.5506 5.11134C74.5478 5.09291 74.5245 5.10425 74.4985 5.11134C74.4966 5.09827 74.4934 5.08543 74.4889 5.07305C74.4889 5.03901 74.4204 5.03901 74.3711 5.05886V5.04893C74.3946 5.04178 74.4161 5.02916 74.4341 5.01206C74.4519 4.99645 74.4204 4.99078 74.4122 4.99078C74.3949 4.99127 74.3782 4.99721 74.3643 5.0078C74.3589 5.00636 74.3532 5.00636 74.3478 5.0078H74.3369C74.3574 5.00071 74.378 4.9922 74.378 4.9766C74.378 4.96099 74.378 4.96809 74.3876 4.96241C74.4136 4.9539 74.4355 4.92837 74.4136 4.90851C74.3917 4.88865 74.3807 4.8844 74.3656 4.87021C74.3596 4.86601 74.3524 4.86376 74.3451 4.86376C74.3378 4.86376 74.3306 4.86601 74.3245 4.87021C74.3245 4.85745 74.2958 4.85461 74.2766 4.86029C74.2583 4.84715 74.2379 4.83754 74.2163 4.83192H74.1752C74.1958 4.8149 74.204 4.78937 74.1752 4.7766C74.1519 4.76678 74.1295 4.75491 74.1081 4.74114H74.1204C74.1204 4.74114 74.1067 4.71986 74.0971 4.71986H74.0711C74.0614 4.68291 74.0466 4.64757 74.0273 4.6149H74.0163C74.0087 4.51371 73.9681 4.4182 73.9013 4.34399C73.9273 4.32838 73.9451 4.31136 73.9328 4.2986C73.9076 4.2676 73.8852 4.23437 73.8656 4.19931C73.8614 4.19353 73.8557 4.1891 73.8492 4.18654C73.8518 4.18154 73.8532 4.17593 73.8532 4.17023C73.8532 4.16453 73.8518 4.15892 73.8492 4.15392C73.8396 4.12555 73.83 4.0986 73.8191 4.07307C73.8369 4.06172 73.8478 4.04612 73.83 4.03194C73.8451 4.02059 73.8588 4.0064 73.8478 3.98655C73.819 3.93285 73.7781 3.88712 73.7287 3.85322C73.7216 3.83174 73.7179 3.80924 73.7177 3.78655C73.7177 3.775 73.7139 3.76381 73.7069 3.75479C73.6999 3.74578 73.6902 3.73947 73.6793 3.73691V3.72556L73.6917 3.71421C73.6976 3.6823 73.6928 3.64926 73.678 3.6206C73.678 3.60925 73.6533 3.60925 73.6314 3.6206V3.52415C73.6338 3.50089 73.6403 3.47829 73.6506 3.45748C73.6506 3.44755 73.6396 3.44471 73.6287 3.44471C73.6332 3.44184 73.6367 3.43753 73.6387 3.43242C73.6407 3.4273 73.641 3.42167 73.6396 3.41635C73.6343 3.40031 73.6311 3.38361 73.63 3.3667C73.6344 3.35724 73.6377 3.34723 73.6396 3.33692C73.6404 3.33148 73.6392 3.32592 73.6361 3.32143C73.633 3.31693 73.6284 3.31384 73.6232 3.3128C73.6219 3.29323 73.6191 3.27379 73.615 3.25465C73.615 3.24046 73.5999 3.23479 73.5848 3.23479C73.5779 3.20507 73.5683 3.1761 73.556 3.14827C73.5382 3.11281 73.5259 3.12274 73.5355 3.08728C73.5437 3.05761 73.5437 3.02616 73.5355 2.9965C73.5234 2.96433 73.505 2.93512 73.4814 2.9107C73.4578 2.88629 73.4296 2.8672 73.3985 2.85466H73.3821C73.3339 2.66274 73.2616 2.47819 73.167 2.30573C73.1552 2.29175 73.1395 2.28192 73.1221 2.2776C73.1047 2.27328 73.0864 2.27468 73.0697 2.28162C73.0515 2.27342 73.032 2.26861 73.0122 2.26744C72.9964 2.26452 72.9801 2.26452 72.9643 2.26744L72.9424 2.25467C72.9533 2.24616 72.9615 2.23623 72.9602 2.2263C72.9602 2.17098 72.9054 2.16815 72.8588 2.17808C72.8396 2.15805 72.8218 2.13673 72.8054 2.11425C72.7739 2.02205 72.7287 1.93695 72.6944 1.84475C72.7009 1.83366 72.7043 1.82086 72.704 1.80787C72.704 1.78092 72.6917 1.75681 72.6903 1.73128C72.6889 1.70575 72.6273 1.69014 72.5944 1.69582C72.5917 1.68214 72.5876 1.66882 72.5821 1.6561C72.593 1.61353 72.5985 1.56966 72.5985 1.52561C72.5985 1.51284 72.5697 1.51 72.5341 1.51426C72.523 1.481 72.5093 1.44874 72.493 1.41781C72.4785 1.38671 72.4596 1.35802 72.4369 1.3327C72.4249 1.29353 72.4149 1.25377 72.4067 1.21356C72.4067 1.19512 72.3615 1.19654 72.3177 1.21356C72.3177 1.20505 72.3026 1.19937 72.2944 1.18944C72.1937 1.08546 72.0846 0.990555 71.9684 0.905763L71.9259 0.850445L71.9054 0.793709C71.8944 0.758248 71.8191 0.778106 71.8136 0.81073H71.7971C71.7992 0.808866 71.8008 0.806574 71.8019 0.804006C71.8031 0.801439 71.8036 0.798654 71.8036 0.795836C71.8036 0.793019 71.8031 0.790234 71.8019 0.787666C71.8008 0.785098 71.7992 0.782806 71.7971 0.780943C71.7936 0.779839 71.7898 0.779839 71.7862 0.780943C71.7679 0.776585 71.7504 0.769413 71.7341 0.759667C71.7054 0.745483 71.6287 0.78378 71.6588 0.805056H71.6355C71.64 0.802085 71.6436 0.797817 71.6458 0.792778C71.6479 0.787738 71.6487 0.782146 71.6478 0.776688L71.641 0.734135C71.6314 0.697257 71.5396 0.72137 71.5492 0.759667L71.5355 0.786617C71.5355 0.786617 71.5054 0.817822 71.5191 0.82775C71.519 0.832331 71.5201 0.836854 71.5222 0.840847C71.5244 0.84484 71.5276 0.848155 71.5314 0.850445C71.5314 0.850445 71.5177 0.858955 71.5177 0.866047C71.5123 0.873289 71.5081 0.881447 71.5054 0.89016C71.5051 0.892861 71.5041 0.895416 71.5024 0.897457C71.5006 0.899497 71.4983 0.900916 71.4958 0.901508C71.4816 0.902014 71.468 0.906872 71.4565 0.915461C71.445 0.92405 71.4363 0.935982 71.4314 0.949734C71.4314 0.966754 71.4437 0.97101 71.4656 0.969591C71.4588 0.983775 71.4547 1.00221 71.4465 1.01924H71.4204C71.393 1.01924 71.3478 1.02916 71.3478 1.05328V1.10576C71.3478 1.11852 71.3588 1.12703 71.3739 1.12987C71.3673 1.13018 71.361 1.13293 71.3562 1.13762C71.3515 1.14231 71.3485 1.14862 71.3478 1.1554V1.16391C71.3478 1.17952 71.356 1.18519 71.3684 1.18944C71.358 1.18982 71.3481 1.19441 71.341 1.20221C71.341 1.22916 71.341 1.25895 71.3218 1.26604C71.3118 1.2746 71.305 1.28649 71.3025 1.29967C71.3 1.31286 71.302 1.32654 71.3081 1.33838V1.34972C71.3081 1.36391 71.2917 1.37809 71.2834 1.3937C71.2752 1.4093 71.2259 1.40646 71.2218 1.42206C71.2112 1.42637 71.2025 1.43441 71.1971 1.44476L71.1876 1.45327C71.1643 1.45327 71.1451 1.48164 71.156 1.49157C71.1451 1.50008 71.1355 1.50717 71.1355 1.51852V1.54263C71.1355 1.5639 71.1574 1.56958 71.1807 1.56674C71.167 1.59085 71.1506 1.61355 71.1382 1.63624C71.1301 1.63839 71.1225 1.64227 71.1159 1.64765C71.1093 1.65302 71.1038 1.65977 71.0999 1.66745L71.0876 1.69156V1.71C71.0811 1.7196 71.0752 1.72955 71.0697 1.73979L71.0245 1.78659H71.0136C70.9908 1.78632 70.9688 1.79493 70.9519 1.81071L70.9314 1.84333C70.9163 1.85893 70.9451 1.86603 70.956 1.86603H70.9656C70.9356 1.89971 70.9081 1.93575 70.8834 1.97382C70.8612 1.97352 70.8393 1.97993 70.8204 1.99226C70.8054 2.00077 70.8067 2.0107 70.8204 2.0107H70.8574L70.841 2.03765C70.8283 2.03909 70.8162 2.04346 70.8054 2.05042C70.7766 2.06035 70.7629 2.09155 70.7793 2.10715C70.7754 2.11219 70.7733 2.11844 70.7733 2.12488C70.7733 2.13133 70.7754 2.13758 70.7793 2.14262L70.7711 2.16105C70.7437 2.16105 70.704 2.17098 70.704 2.19793V2.2107C70.7042 2.21498 70.7052 2.21919 70.7069 2.22308C70.7087 2.22697 70.7111 2.23046 70.7142 2.23336C70.7172 2.23626 70.7208 2.23851 70.7247 2.23997C70.7286 2.24144 70.7327 2.24209 70.7369 2.2419C70.6657 2.42205 70.6147 2.61003 70.5848 2.80218C70.5752 2.8049 70.5664 2.80974 70.5588 2.81636C70.5456 2.83431 70.5354 2.85446 70.5286 2.87593C70.5191 2.89437 70.5286 2.9043 70.5437 2.90714C70.5314 2.91423 70.5259 2.92132 70.5259 2.93267V2.9582C70.5246 2.96234 70.5246 2.96683 70.5259 2.97097C70.5245 2.97461 70.5245 2.97866 70.5259 2.98231C70.5259 3.00075 70.5369 3.00784 70.5533 3.0121C70.5697 3.01636 70.5533 3.05891 70.5451 3.08018C70.5191 3.08018 70.4876 3.0972 70.4876 3.12132V3.13125C70.4876 3.15394 70.5067 3.16103 70.5259 3.16103C70.5191 3.1637 70.5132 3.16832 70.5088 3.17435C70.5044 3.18037 70.5018 3.18756 70.5013 3.19507V3.205C70.5011 3.2091 70.5017 3.2132 70.503 3.21706C70.5044 3.22092 70.5064 3.22446 70.5091 3.22749C70.5118 3.23052 70.515 3.23298 70.5186 3.23472C70.5222 3.23646 70.5261 3.23744 70.53 3.23763V3.28018C70.5328 3.31795 70.5328 3.35588 70.53 3.39365C70.5067 3.39365 70.4821 3.41067 70.4821 3.42628V3.45181C70.4821 3.46174 70.5013 3.46457 70.5204 3.46032C70.5396 3.45606 70.5204 3.49152 70.5204 3.50854C70.5109 3.51033 70.5023 3.51532 70.4958 3.52273C70.4912 3.5249 70.4871 3.52804 70.4838 3.53195C70.4805 3.53586 70.4781 3.54045 70.4766 3.54542C70.4629 3.55251 70.4519 3.56244 70.4519 3.57521V3.59932C70.4519 3.61634 70.4643 3.62202 70.4848 3.62343C70.4725 3.65463 70.4574 3.68454 70.4396 3.71279C70.3973 3.78635 70.3738 3.8698 70.3711 3.95534C70.3615 3.95371 70.3517 3.95413 70.3423 3.95657C70.3329 3.95901 70.324 3.96342 70.3163 3.96953C70.3103 3.97444 70.3055 3.9807 70.3022 3.98782C70.2989 3.99494 70.2971 4.00275 70.2971 4.01066C70.2971 4.02484 70.3067 4.03335 70.3232 4.03335C70.3174 4.03528 70.3122 4.0387 70.3081 4.04328C70.2848 4.02201 70.2232 4.04328 70.2245 4.07165C70.2231 4.08302 70.2256 4.09454 70.2316 4.10416C70.2377 4.11378 70.2468 4.12086 70.2574 4.12413C70.2689 4.12835 70.2815 4.12835 70.293 4.12413V4.15817C70.2656 4.15817 70.2369 4.17519 70.2341 4.18938C70.2314 4.20356 70.2232 4.20073 70.2232 4.20924V4.25463C70.2232 4.26597 70.2437 4.26739 70.267 4.26172L70.2834 4.29292C70.2739 4.30143 70.2684 4.30853 70.2711 4.31987C70.2705 4.32712 70.2715 4.33441 70.2738 4.34126C70.2762 4.34811 70.2799 4.35436 70.2848 4.35959C70.2795 4.36222 70.275 4.36622 70.2717 4.37118C70.2683 4.37615 70.2662 4.38192 70.2656 4.38796C70.2601 4.41703 70.256 4.44639 70.2533 4.4759C70.2528 4.48277 70.2548 4.48959 70.2588 4.49507C70.2629 4.50055 70.2687 4.50432 70.2752 4.50568C70.2752 4.50568 70.2752 4.51419 70.2862 4.51561C70.2762 4.51529 70.2665 4.51848 70.2585 4.52467C70.2505 4.53086 70.2448 4.53967 70.2423 4.54965V4.57519C70.2423 4.5837 70.2547 4.58653 70.2739 4.5837C70.2752 4.58928 70.2752 4.59514 70.2739 4.60072L70.2519 4.62909C70.2402 4.63038 70.2287 4.63325 70.2177 4.6376C70.1979 4.65072 70.1808 4.66756 70.167 4.68724C70.1533 4.70426 70.1752 4.70993 70.1876 4.70993C70.1707 4.72859 70.1564 4.7496 70.1451 4.77234C70.1273 4.77944 70.1136 4.79078 70.1136 4.80355V4.82199C70.1044 4.82256 70.0957 4.8264 70.089 4.83287C70.0822 4.83933 70.0778 4.84802 70.0766 4.85745V4.88582V4.87873C70.0519 4.85319 69.9629 4.89007 69.9903 4.91986C70.0085 4.94015 70.0237 4.96309 70.0355 4.98794V5.00071C70.0122 5.00071 69.9876 5.01915 69.9876 5.03617V5.04893C69.9876 5.06028 70.0013 5.06312 70.0204 5.0617C70.0122 5.0617 70.0081 5.07021 70.0108 5.07305C70.0208 5.09211 70.0242 5.11413 70.0204 5.13546C70.0204 5.14397 70.0355 5.14397 70.0519 5.14397C70.0369 5.19432 70.0369 5.24822 70.0519 5.29857C70.047 5.3018 70.0428 5.30616 70.0397 5.31132C70.0366 5.31649 70.0347 5.32232 70.0341 5.32836C70.0385 5.36685 70.0463 5.40484 70.0574 5.44183C70.0643 5.45744 70.0821 5.46169 70.1026 5.45744V5.46878C70.0807 5.47729 70.0588 5.49006 70.0588 5.50708V5.53119V5.55105C70.03 5.55956 70.0067 5.57091 70.0013 5.59644C69.9958 5.62197 70.0136 5.61062 70.03 5.60921L70.0095 5.66736C70.0026 5.6858 69.9793 5.6858 69.9793 5.7014V5.77516C69.9793 5.78367 69.9889 5.78793 69.9999 5.78793C70.0013 5.79157 70.0013 5.79562 69.9999 5.79927C69.9999 5.81487 70.0218 5.81771 70.0423 5.81488C70.015 5.81488 69.978 5.82764 69.978 5.84608V5.89714C69.978 5.90565 70.0026 5.90565 70.0259 5.89714V5.90707C70.0259 5.917 69.9889 5.92267 69.9848 5.93686C69.9807 5.95104 69.9423 5.9553 69.9451 5.96806C69.951 5.98984 69.9526 6.01262 69.9498 6.03505C69.9469 6.05748 69.9398 6.07908 69.9286 6.09856C69.9177 6.117 69.9615 6.11558 69.9656 6.11558H69.9766C69.9701 6.12647 69.9654 6.13848 69.9629 6.15104C69.9396 6.15104 69.9081 6.16238 69.9054 6.17799C69.8933 6.22089 69.8777 6.26265 69.8588 6.30281C69.8465 6.31841 69.8903 6.31557 69.8944 6.31557H69.9054C69.9067 6.32307 69.9067 6.33077 69.9054 6.33827C69.8894 6.33744 69.8735 6.34191 69.8602 6.35103C69.8602 6.35103 69.8478 6.36664 69.8396 6.37373H69.8328C69.8437 6.35103 69.7533 6.35954 69.7382 6.38791C69.7232 6.41628 69.6985 6.48578 69.6739 6.52975C69.6492 6.57372 69.741 6.55103 69.756 6.52975C69.7633 6.53117 69.7707 6.53117 69.778 6.52975C69.767 6.54179 69.7582 6.55571 69.7519 6.57089C69.7286 6.55245 69.6478 6.58365 69.6725 6.6106C69.679 6.62203 69.6863 6.63293 69.6944 6.64323C69.6821 6.6872 69.6834 6.72266 69.7273 6.74251H69.741C69.7434 6.74777 69.7466 6.75257 69.7506 6.7567C69.7425 6.75725 69.7348 6.76064 69.7288 6.76631C69.7228 6.77199 69.7189 6.7796 69.7177 6.7879C69.7152 6.80735 69.7082 6.82586 69.6971 6.8418C69.6958 6.84642 69.6958 6.85137 69.6971 6.85599C69.6954 6.85581 69.6937 6.85611 69.6922 6.85684C69.6906 6.85758 69.6893 6.85873 69.6883 6.86017C69.6874 6.86162 69.6868 6.8633 69.6866 6.86506C69.6865 6.86682 69.6868 6.86858 69.6876 6.87017C69.667 6.87017 69.6492 6.88577 69.6492 6.89996V6.93116C69.6423 6.94676 69.6341 6.96237 69.6259 6.97797C69.6177 6.99357 69.6382 6.99074 69.6602 6.9879C69.6601 6.99122 69.6612 6.99445 69.6632 6.99705C69.6652 6.99964 69.668 7.00142 69.6711 7.00208C69.6711 7.00208 69.6834 7.02761 69.6793 7.03471C69.6764 7.03506 69.6737 7.036 69.6711 7.03748C69.6686 7.03895 69.6664 7.04094 69.6646 7.04331C69.6628 7.04569 69.6615 7.04841 69.6607 7.05132C69.66 7.05422 69.6598 7.05725 69.6602 7.06024C69.6727 7.08748 69.6805 7.11675 69.6834 7.14676C69.6834 7.15527 69.6958 7.15669 69.7081 7.15669C69.694 7.16134 69.6819 7.17086 69.6739 7.18364C69.6519 7.19357 69.6369 7.21059 69.6519 7.22903C69.667 7.24747 69.6807 7.25881 69.6739 7.27867C69.6574 7.33115 69.7506 7.32548 69.7629 7.28718V7.28009C69.7629 7.28718 69.7711 7.29569 69.7752 7.3042V7.31981L69.7478 7.32974C69.7081 7.32974 69.6478 7.38363 69.7122 7.38931C69.7232 7.38931 69.73 7.40775 69.7355 7.41626C69.7387 7.42063 69.7429 7.42406 69.7478 7.42619C69.7446 7.42962 69.7429 7.43419 69.7429 7.43895C69.7429 7.44371 69.7446 7.44829 69.7478 7.45172C69.7588 7.46317 69.7656 7.47821 69.767 7.49427C69.7664 7.49584 69.766 7.49753 69.766 7.49924C69.766 7.50094 69.7664 7.50263 69.767 7.5042C69.765 7.50579 69.7634 7.50783 69.7623 7.51017C69.7612 7.5125 69.7606 7.51507 69.7606 7.51767C69.7606 7.52028 69.7612 7.52285 69.7623 7.52518C69.7634 7.52752 69.765 7.52956 69.767 7.53115C69.7747 7.53316 69.7815 7.53801 69.786 7.54479C69.7906 7.55157 69.7926 7.55983 69.7917 7.56803C69.7917 7.57938 69.804 7.58363 69.8191 7.58505C69.8013 7.59356 69.7917 7.60349 69.7958 7.61058C69.8079 7.62281 69.8161 7.63868 69.8191 7.65597C69.8191 7.6659 69.8506 7.65597 69.8739 7.65597C69.8834 7.69143 69.893 7.72547 69.8999 7.76093C69.8915 7.76116 69.8836 7.76441 69.8773 7.77011C69.871 7.77581 69.8669 7.78361 69.8656 7.79214C69.8674 7.80571 69.8639 7.81945 69.856 7.83043C69.8465 7.84178 69.8697 7.85455 69.8821 7.85455C69.8929 7.85737 69.9042 7.85737 69.9149 7.85455C69.9136 7.86204 69.9136 7.86974 69.9149 7.87724C69.8903 7.87724 69.8615 7.89143 69.8615 7.90986C69.8547 7.91115 69.8485 7.91463 69.8437 7.91979C69.8287 7.92717 69.8171 7.94041 69.8114 7.95662C69.8058 7.97283 69.8066 7.9907 69.8136 8.00632C69.8136 8.01766 69.83 8.0205 69.8451 8.0205C69.8245 8.03043 69.8026 8.04745 69.8163 8.06163C69.8288 8.07536 69.8403 8.09006 69.8506 8.10561C69.8506 8.10672 69.8508 8.10783 69.8512 8.10886C69.8516 8.10989 69.8522 8.11083 69.853 8.11162C69.8537 8.11241 69.8546 8.11304 69.8556 8.11347C69.8566 8.11389 69.8577 8.11412 69.8588 8.11412C69.8632 8.13693 69.8736 8.15804 69.8889 8.17511C69.8936 8.17932 69.899 8.18251 69.9049 8.18446C69.9108 8.18641 69.917 8.18709 69.9232 8.18645C69.9083 8.21471 69.8888 8.24013 69.8656 8.26163C69.8355 8.28574 69.8506 8.30135 69.8739 8.30702V8.36801C69.8506 8.36801 69.8328 8.38787 69.8355 8.39354V8.47155C69.837 8.47222 69.8386 8.47256 69.8403 8.47256C69.8419 8.47256 69.8436 8.47222 69.8451 8.47155C69.8401 8.4723 69.8355 8.47461 69.8318 8.47815C69.8281 8.4817 69.8256 8.48633 69.8245 8.49141V8.50985H69.8821V8.53396C69.8675 8.53255 69.8528 8.53255 69.8382 8.53396C69.827 8.53189 69.8154 8.53351 69.8051 8.5386C69.7948 8.54368 69.7862 8.55198 69.7807 8.56233C69.7684 8.58077 69.7807 8.59496 69.8054 8.59496C69.8269 8.59343 69.8484 8.59854 69.8672 8.60964C69.886 8.62075 69.9012 8.63735 69.9108 8.65737C69.893 8.66588 69.8766 8.67864 69.8834 8.68573C69.8867 8.68814 69.8892 8.69136 69.8909 8.69508C69.8926 8.69881 69.8933 8.70291 69.893 8.70701C69.893 8.70701 69.893 8.7141 69.9108 8.7141C69.9014 8.71555 69.8924 8.71943 69.8848 8.72537C69.8771 8.73132 69.871 8.73914 69.867 8.74814C69.8547 8.80067 69.8478 8.8544 69.8465 8.90842C69.846 8.91551 69.8482 8.92249 69.8525 8.92801C69.8568 8.93352 69.863 8.93716 69.8697 8.93821C69.8635 8.94034 69.858 8.94429 69.8539 8.94957C69.8498 8.95485 69.8472 8.96124 69.8465 8.968C69.8465 8.99069 69.8629 8.99353 69.8807 8.99495V9.20771C69.8726 9.20978 69.8653 9.21446 69.8599 9.22108C69.8544 9.22771 69.8512 9.23593 69.8506 9.24459C69.8461 9.24529 69.842 9.24774 69.8392 9.25143C69.8364 9.25512 69.8351 9.25977 69.8355 9.26444C69.8391 9.27461 69.8442 9.28417 69.8506 9.29281C69.8539 9.3 69.8598 9.30558 69.867 9.30842C69.8588 9.30842 69.8506 9.3226 69.8506 9.32969C69.8395 9.35755 69.8344 9.38754 69.8355 9.41763C69.8341 9.42225 69.8341 9.4272 69.8355 9.43182C69.8122 9.44316 69.7944 9.47011 69.8204 9.49139C69.8326 9.50372 69.847 9.51337 69.8629 9.51976C69.8576 9.52252 69.8533 9.52681 69.8504 9.5321C69.8474 9.5374 69.8461 9.54346 69.8465 9.54955C69.8465 9.57366 69.8643 9.57933 69.8848 9.57933C69.8933 9.58215 69.9024 9.58215 69.9108 9.57933C69.9101 9.58462 69.9105 9.58999 69.9119 9.59512C69.9133 9.60025 69.9158 9.60502 69.9191 9.60912C69.8889 9.60912 69.8465 9.6389 69.8643 9.646H69.8766C69.8889 9.646 69.8574 9.67011 69.8766 9.68429L69.9108 9.73536C69.9085 9.73889 69.9069 9.74288 69.906 9.74707C69.9051 9.75127 69.9051 9.7556 69.9059 9.75982C69.9066 9.76403 69.9082 9.76805 69.9104 9.77164C69.9127 9.77523 69.9156 9.77833 69.9191 9.78075L69.9286 9.78642C69.928 9.79182 69.929 9.79728 69.9315 9.80209C69.9339 9.8069 69.9377 9.81083 69.9423 9.81337C69.9383 9.81547 69.9348 9.8187 69.9324 9.82271C69.93 9.82672 69.9287 9.83134 69.9286 9.83606V9.86018C69.9273 9.86493 69.9276 9.87 69.9293 9.87461C69.931 9.87922 69.9342 9.88311 69.9382 9.88571C69.9547 9.89705 69.9574 9.91408 69.9684 9.92968C69.9728 9.93554 69.9791 9.93956 69.9862 9.94103C69.981 9.94159 69.9761 9.94328 69.9716 9.94596C69.9671 9.94865 69.9632 9.95228 69.9602 9.95663C69.9577 9.95913 69.9558 9.96212 69.9544 9.9654C69.9531 9.96869 69.9524 9.97222 69.9524 9.97578C69.9524 9.97934 69.9531 9.98286 69.9544 9.98615C69.9558 9.98944 69.9577 9.99242 69.9602 9.99493H69.9725L70.0081 10.0091H70.0218C70.0054 10.0176 69.9971 10.0304 70.0026 10.0446C70.0112 10.0593 70.0166 10.0759 70.0182 10.0931C70.0199 10.1103 70.0178 10.1276 70.0122 10.1439C70.0122 10.1651 70.0396 10.168 70.0684 10.1595C70.063 10.1595 70.0578 10.1608 70.053 10.1633C70.0482 10.1657 70.044 10.1693 70.0407 10.1736C70.0374 10.178 70.0351 10.1831 70.034 10.1885C70.0328 10.1939 70.0329 10.1995 70.0341 10.2048C70.0419 10.2344 70.0456 10.265 70.0451 10.2956C70.0451 10.324 70.0684 10.3325 70.0958 10.3283C70.0739 10.3283 70.0451 10.3439 70.0451 10.3623V10.4233C70.0451 10.4389 70.0793 10.4389 70.1081 10.4233V10.5651C70.0821 10.5651 70.0533 10.5864 70.0588 10.602C70.0729 10.6336 70.0807 10.6679 70.0819 10.7027C70.0831 10.7375 70.0776 10.7723 70.0656 10.8048C70.0656 10.8162 70.0752 10.8219 70.0917 10.8219V10.8375C70.0836 10.8374 70.0757 10.8392 70.0683 10.8426C70.061 10.846 70.0545 10.8511 70.0492 10.8573C70.0382 10.8729 70.0355 10.8914 70.0232 10.907C70.0108 10.9226 70.0232 10.9566 70.0588 10.9566C70.0598 10.9795 70.0659 11.0018 70.0766 11.0219C70.0801 11.0233 70.084 11.0233 70.0876 11.0219C70.0931 11.0316 70.0972 11.0421 70.0999 11.0531C70.0999 11.0687 70.1273 11.0715 70.1478 11.0658C70.1472 11.0674 70.1469 11.0691 70.1469 11.0708C70.1469 11.0725 70.1472 11.0742 70.1478 11.0758C70.1204 11.0758 70.0876 11.0928 70.0876 11.114V11.1268C70.0876 11.1438 70.1245 11.1438 70.1547 11.1268V11.1353C70.1334 11.1327 70.112 11.1383 70.0944 11.1509C70.0917 11.1565 70.0874 11.1609 70.0821 11.1637C70.067 11.1793 70.0725 11.1892 70.0821 11.1921C70.0724 11.2176 70.0724 11.246 70.0821 11.2715C70.0889 11.2984 70.1423 11.2899 70.1656 11.2715C70.1643 11.2837 70.1643 11.2961 70.1656 11.3084C70.1328 11.3084 70.0917 11.3296 70.1013 11.3481C70.1212 11.3889 70.1251 11.4362 70.1122 11.48C70.1122 11.4913 70.1204 11.4956 70.1355 11.497C70.1479 11.5158 70.1563 11.5371 70.1602 11.5594C70.1602 11.5594 70.1602 11.5694 70.1684 11.5708C70.1631 11.5735 70.1584 11.5775 70.1549 11.5825C70.1513 11.5874 70.1489 11.5931 70.1478 11.5991V11.6077C70.1122 11.6445 70.1725 11.6616 70.2108 11.6445C70.2094 11.6501 70.2094 11.656 70.2108 11.6616C70.1752 11.6616 70.1355 11.6857 70.1519 11.7013L70.1615 11.7126C70.1549 11.7129 70.1487 11.7157 70.1439 11.7204C70.1391 11.7251 70.1361 11.7314 70.1355 11.7381V11.7722C70.1355 11.8077 70.2067 11.7963 70.2232 11.7722C70.2245 11.7854 70.2245 11.7987 70.2232 11.8119C70.2288 11.8376 70.2325 11.8637 70.2341 11.8899C70.2233 11.8938 70.2139 11.901 70.2073 11.9107C70.2006 11.9204 70.1971 11.932 70.1971 11.9438C70.1971 11.9679 70.2177 11.9736 70.2451 11.9708C70.2259 11.9793 70.2136 11.9935 70.2232 12.0076C70.2424 12.0349 70.2534 12.0675 70.2547 12.1013C70.2547 12.1126 70.2684 12.1183 70.2821 12.1169C70.2848 12.1399 70.2908 12.1623 70.2999 12.1835C70.2752 12.1835 70.2519 12.2034 70.2547 12.2147C70.2643 12.2349 70.2725 12.2558 70.2793 12.2771C70.2793 12.2871 70.3067 12.2857 70.3273 12.2771C70.331 12.2898 70.3356 12.3021 70.341 12.314C70.3054 12.314 70.2684 12.3523 70.3026 12.3736C70.3215 12.3875 70.3355 12.4074 70.3423 12.4303C70.3423 12.4445 70.3697 12.4459 70.3876 12.4431C70.3929 12.4516 70.3975 12.4606 70.4013 12.47C70.3725 12.4786 70.3478 12.5041 70.3739 12.5211C70.4027 12.5413 70.4302 12.5636 70.456 12.5878C70.4489 12.5865 70.4416 12.5868 70.4345 12.5885C70.4275 12.5902 70.4208 12.5933 70.415 12.5977C70.4013 12.6091 70.3876 12.6388 70.415 12.6488L70.4328 12.6573C70.4328 12.6573 70.4328 12.6658 70.4519 12.6672L70.4876 12.6856C70.4955 12.6885 70.5042 12.6885 70.5122 12.6856V12.731C70.512 12.7353 70.5127 12.7396 70.5141 12.7436C70.5155 12.7477 70.5177 12.7514 70.5205 12.7545C70.5233 12.7577 70.5266 12.7602 70.5304 12.7621C70.5341 12.7639 70.5382 12.7649 70.5423 12.7651C70.5467 12.7705 70.5518 12.7753 70.5574 12.7793C70.5451 12.7793 70.5232 12.8005 70.5355 12.8076C70.555 12.8164 70.5724 12.8295 70.5866 12.8459C70.6008 12.8623 70.6114 12.8816 70.6177 12.9027C70.6177 12.9112 70.6314 12.9126 70.6465 12.9126C70.6615 12.9126 70.6465 12.9126 70.6465 12.9211H70.6602C70.6437 12.9211 70.6328 12.9395 70.6382 12.9481C70.6534 12.974 70.6699 12.9991 70.6876 13.0232C70.6958 13.0402 70.7314 13.0346 70.756 13.0232C70.7328 13.0232 70.756 13.0516 70.756 13.0516C70.767 13.0741 70.7766 13.0973 70.7848 13.1211C70.7848 13.1324 70.8026 13.1126 70.804 13.1112V13.1197C70.7976 13.1262 70.7933 13.1346 70.7917 13.1438C70.793 13.1499 70.793 13.1562 70.7917 13.1622C70.7917 13.148 70.7574 13.1892 70.7615 13.2062C70.7727 13.2329 70.7818 13.2604 70.7889 13.2885C70.7889 13.3097 70.8232 13.2686 70.8204 13.2516H70.83V13.28C70.815 13.28 70.7958 13.3268 70.815 13.3296H70.8355C70.8478 13.3523 70.8615 13.3665 70.8862 13.3566C70.8835 13.3648 70.8835 13.3738 70.8862 13.3821C70.8901 13.3862 70.8932 13.3911 70.8954 13.3964C70.8975 13.4018 70.8985 13.4075 70.8985 13.4133V13.4218C70.8985 13.4218 70.8889 13.4459 70.8985 13.4516L70.9108 13.4615C70.9097 13.4715 70.9121 13.4816 70.9177 13.4899C70.9177 13.4984 70.9273 13.4899 70.9355 13.4785H70.9451C70.9451 13.4785 70.9574 13.4785 70.9574 13.487V13.5041C70.972 13.5104 70.9858 13.5185 70.9985 13.5282H71.0245C71.0369 13.5282 71.0245 13.548 71.0245 13.5509C71.0245 13.5537 71.0245 13.5778 71.0355 13.5807C71.0465 13.5835 71.0547 13.5807 71.0602 13.5892C71.0656 13.5977 71.1054 13.5764 71.0971 13.558H71.1108V13.5736C71.1155 13.583 71.118 13.5935 71.118 13.6041C71.118 13.6147 71.1155 13.6251 71.1108 13.6346C71.1108 13.6473 71.1684 13.6431 71.1958 13.6261C71.1944 13.6369 71.1944 13.6478 71.1958 13.6587C71.1958 13.6587 71.1848 13.6714 71.1958 13.6785C71.2074 13.692 71.2198 13.7048 71.2328 13.7168C71.2411 13.7217 71.2506 13.7242 71.2602 13.7242C71.2697 13.7242 71.2792 13.7217 71.2876 13.7168C71.4245 13.9197 71.4478 14.0927 71.6985 14.1424C71.6985 14.1424 71.8218 14.1849 72.1095 14.0005L72.1944 13.9693C72.2106 13.9736 72.2275 13.9736 72.2437 13.9693L72.2903 13.9551C72.3054 13.9551 72.3424 13.9381 72.3382 13.914H72.3752C72.3879 13.9165 72.4011 13.9153 72.4132 13.9106C72.4253 13.9058 72.4358 13.8977 72.4437 13.887C72.4464 13.8834 72.4478 13.8789 72.4478 13.8743C72.4478 13.8697 72.4464 13.8652 72.4437 13.8615C72.4542 13.8569 72.4634 13.8497 72.4705 13.8405C72.4777 13.8314 72.4826 13.8206 72.4848 13.809H72.4999L72.541 13.7863C72.5461 13.7834 72.5507 13.7795 72.5547 13.775C72.5848 13.7863 72.6355 13.775 72.6396 13.7367V13.7069C72.65 13.7026 72.6601 13.6973 72.6697 13.6913C72.7026 13.7041 72.7602 13.6814 72.7602 13.6445C72.7599 13.6246 72.7537 13.6053 72.7424 13.5892C72.7629 13.5892 72.7424 13.575 72.767 13.5636C72.7822 13.5524 72.7982 13.5424 72.815 13.5339C72.8219 13.531 72.828 13.5263 72.8328 13.5204C72.8376 13.5145 72.8409 13.5074 72.8424 13.4998C72.8492 13.4998 72.8424 13.4686 72.8314 13.4644C72.8423 13.4657 72.8533 13.4657 72.8643 13.4644C72.8807 13.453 72.8917 13.4374 72.8876 13.4218C72.8882 13.4202 72.8885 13.4185 72.8885 13.4168C72.8885 13.4151 72.8882 13.4134 72.8876 13.4119H72.9122C72.9152 13.4133 72.9185 13.414 72.9218 13.414C72.9251 13.414 72.9284 13.4133 72.9314 13.4119C72.9643 13.4218 72.9917 13.3863 72.993 13.3551C72.9903 13.3454 72.9903 13.3351 72.993 13.3253C73.0122 13.3253 73.0136 13.2927 73.0136 13.28V13.2672C73.0136 13.2672 73.0218 13.2672 73.0218 13.2544V13.2332L73.0766 13.2431C73.0944 13.2431 73.0862 13.2332 73.104 13.219C73.1218 13.2048 73.1533 13.236 73.1684 13.219C73.1834 13.2019 73.1985 13.1764 73.1684 13.1637C73.1382 13.1509 73.1574 13.1339 73.1465 13.1239H73.1958C73.2005 13.1282 73.2061 13.1311 73.2122 13.1324C73.234 13.1376 73.2568 13.1346 73.2766 13.1239C73.2766 13.1239 73.3081 13.1069 73.2889 13.1012L73.2752 13.08C73.3095 13.08 73.4013 13.1027 73.4273 13.0715C73.4533 13.0402 73.4465 13.0445 73.4602 13.0388C73.4739 13.0332 73.4834 13.0147 73.478 13.0062H73.4862C73.4928 13.016 73.5018 13.0238 73.5122 13.0289C73.5339 13.0407 73.5584 13.0457 73.5828 13.0432C73.6071 13.0406 73.6302 13.0307 73.6492 13.0147C73.6492 13.0147 73.667 13.0246 73.6684 13.0147C73.6697 13.0048 73.7136 13.0346 73.7191 13.0346C73.7497 13.0348 73.7798 13.027 73.8067 13.0119C73.8533 12.9793 73.793 12.9537 73.7574 12.9693V12.9566H73.8026C73.8328 12.9566 73.8793 12.9424 73.8697 12.9168C73.9026 12.8913 73.9437 12.8757 73.9643 12.8388C73.9876 12.8502 74.0451 12.8388 74.0451 12.7991C74.0451 12.7594 74.0245 12.7693 74.0067 12.7679C73.9889 12.7665 74.0067 12.7679 74.0067 12.7566H74.0382C74.0619 12.7561 74.085 12.7492 74.1054 12.7367C74.1104 12.7387 74.1158 12.7396 74.1211 12.7394C74.1265 12.7392 74.1318 12.7379 74.1367 12.7355C74.1416 12.7331 74.1459 12.7297 74.1495 12.7256C74.153 12.7214 74.1557 12.7165 74.1574 12.7112C74.158 12.7079 74.158 12.7045 74.1574 12.7013C74.1574 12.6913 74.1711 12.6842 74.1711 12.6771C74.1711 12.67 74.1588 12.6615 74.1382 12.6587C74.1469 12.6601 74.1556 12.6601 74.1643 12.6587C74.178 12.6587 74.2821 12.5977 74.2561 12.5651C74.23 12.5325 74.2232 12.541 74.2245 12.5169C74.2341 12.5169 74.2369 12.5083 74.2369 12.4913C74.2485 12.487 74.2588 12.4794 74.2665 12.4694C74.2743 12.4593 74.2792 12.4473 74.2807 12.4346C74.2921 12.4331 74.3029 12.4287 74.3122 12.4218C74.3146 12.4151 74.3174 12.4084 74.3204 12.402C74.3236 12.4125 74.3282 12.4226 74.3341 12.4318C74.3834 12.4984 74.5245 12.3835 74.4711 12.3098C74.4946 12.3039 74.5166 12.2928 74.5355 12.2771C74.551 12.2601 74.5627 12.2398 74.5697 12.2176C74.5717 12.2129 74.5728 12.2078 74.5728 12.2027C74.5728 12.1975 74.5717 12.1925 74.5697 12.1878C74.5697 12.1878 74.7615 12.1197 74.7793 12.0105C74.7808 11.9776 74.7756 11.9448 74.7643 11.914L74.7766 11.8942C74.8031 11.8715 74.8326 11.8528 74.8643 11.8389C74.8739 11.8389 74.8958 11.8147 74.8999 11.8006C74.9072 11.7971 74.9135 11.7917 74.9183 11.785C74.9231 11.7783 74.9262 11.7705 74.9273 11.7623C74.93 11.7398 74.9369 11.7181 74.9478 11.6984C74.9666 11.6998 74.9851 11.7041 75.0026 11.7112C75.0265 11.7185 75.0519 11.719 75.0761 11.7125C75.1002 11.706 75.1222 11.6928 75.1396 11.6743C75.1436 11.6702 75.1467 11.6654 75.1489 11.66C75.1511 11.6547 75.1522 11.6489 75.1522 11.6431C75.1522 11.6373 75.1511 11.6316 75.1489 11.6262C75.1467 11.6209 75.1436 11.616 75.1396 11.6119C75.1629 11.6006 75.1848 11.5864 75.1848 11.5708V11.4105C75.1964 11.4054 75.2065 11.3972 75.214 11.3868C75.2214 11.3763 75.226 11.3639 75.2273 11.3509V11.3055C75.2273 11.2701 75.204 11.2531 75.1739 11.246C75.2081 11.2373 75.2409 11.2235 75.2711 11.2048C75.2789 11.2023 75.2858 11.1975 75.2909 11.1909C75.296 11.1844 75.2992 11.1764 75.2999 11.1679C75.2999 11.1467 75.2999 11.1197 75.3245 11.1084C75.3492 11.097 75.3465 11.0687 75.3245 11.063C75.346 11.0572 75.3653 11.0451 75.3804 11.0283C75.3954 11.0114 75.4055 10.9905 75.4095 10.968C75.4103 10.959 75.4078 10.95 75.4024 10.9429C75.3971 10.9358 75.3893 10.9311 75.3807 10.9297C75.3906 10.9225 75.3985 10.9125 75.4033 10.901C75.4081 10.8895 75.4098 10.8768 75.4081 10.8644V10.7878C75.4095 10.7794 75.4095 10.7707 75.4081 10.7623C75.4342 10.6922 75.4508 10.6187 75.4574 10.5438Z" fill="#70B141"/>
</g>
<defs>
<clipPath id="clip0_384_476">
<rect width="111" height="48" fill="white"/>
</clipPath>
</defs>
</svg>
