<?xml version="1.0" encoding="utf-8"?>
<!-- Generator: Adobe Illustrator 25.4.0, SVG Export Plug-In . SVG Version: 6.00 Build 0)  -->
<svg version="1.1" id="icon_tile" xmlns="http://www.w3.org/2000/svg" xmlns:xlink="http://www.w3.org/1999/xlink" x="0px" y="0px"
	 viewBox="0 0 45.9 45.9" style="enable-background:new 0 0 45.9 45.9;" xml:space="preserve">
<style type="text/css">
	.st0{fill:#EAF5E2;}
	.st1{fill:#78C046;enable-background:new    ;}
</style>
<circle id="Ellipse_1_copy" class="st0" cx="23" cy="23" r="23"/>
<path class="st1" d="M36.3,21.9L31,16.7l-1-1L29.3,15L24,9.7c-0.3-0.3-0.7-0.4-1-0.4c-0.4,0-0.8,0.1-1,0.4L16.7,15L15,16.7l-5.3,5.3
	c-0.6,0.6-0.6,1.5,0,2.1l5.3,5.3l0,0l1.7,1.7l0,0l5.3,5.3c0.3,0.3,0.7,0.4,1,0.4c0.4,0,0.8-0.1,1-0.4l5.3-5.3l0,0l1.7-1.7l0,0
	l5.3-5.3C36.8,23.4,36.8,22.5,36.3,21.9z M23,12l4.6,4.6L23,21.3l-4.6-4.6L23,12z M12,23l4.6-4.6l4.6,4.6l-4.6,4.6L12,23z M23,33.9
	l-4.6-4.6l4.6-4.6l4.6,4.6L23,33.9z M29.3,27.6L24.7,23l4.6-4.6l4.6,4.6L29.3,27.6z"/>
</svg>
