<?xml version="1.0" encoding="utf-8"?>
<!-- Generator: Adobe Illustrator 25.4.0, SVG Export Plug-In . SVG Version: 6.00 Build 0)  -->
<svg version="1.1" id="icon_etc" xmlns="http://www.w3.org/2000/svg" xmlns:xlink="http://www.w3.org/1999/xlink" x="0px" y="0px"
	 viewBox="0 0 45.9 45.9" style="enable-background:new 0 0 45.9 45.9;" xml:space="preserve">
<style type="text/css">
	.st0{fill:#EAF5E2;}
	.st1{fill:#78C046;}
</style>
<circle id="Ellipse_1_copy_4" class="st0" cx="23" cy="23" r="23"/>
<g>
	<path class="st1" d="M18.9,25.1c-2.1,0-4.1,0-6.2,0c0,1,0.6,2,1.6,2.4c1.1,0.5,2.5,0.1,3.6-0.5c0.1-0.1,0.2-0.1,0.3-0.1
		c0.1,0,0.3,0,0.3,0.1s0,0.1,0,0.2c0,0.5,0,1,0,1.5c0,0.2,0,0.3-0.1,0.5c-0.1,0.1-0.3,0.2-0.4,0.3c-0.9,0.3-1.9,0.5-2.9,0.6
		c-1,0-2-0.2-2.8-0.7c-1-0.6-1.7-1.6-2.1-2.7s-0.5-2.3-0.3-3.4c0.2-1.4,0.8-2.7,1.7-3.7s2.4-1.5,3.8-1.3c1.2,0.2,2.2,1,2.8,2
		c0.4,0.7,0.7,1.4,0.8,2.2C19,22.8,19.3,25.1,18.9,25.1z M14.8,20.6c-0.1,0-0.1,0-0.2,0c-0.8,0.1-1.3,0.7-1.7,1.4
		c-0.1,0.1-0.3,0.9-0.3,0.9h4.1c0-0.5-0.1-1-0.4-1.4c-0.2-0.3-0.4-0.6-0.8-0.8C15.3,20.6,15.1,20.6,14.8,20.6z"/>
	<path class="st1" d="M26.9,29.6c-0.5,0.5-1.7,0.5-2.2,0.5c-0.8,0-1.7-0.5-2.2-1.2c-0.3-0.5-0.4-1-0.4-1.6C22,25.4,22,23.4,22,21.5
		c0-0.2,0-0.3,0-0.5h-1.4c-0.3,0-0.4-0.1-0.4-0.4v-1.7c0-0.3,0.1-0.4,0.4-0.4H22v-2.7c0-0.3,0.1-0.4,0.4-0.4h1.8
		c0.3,0,0.4,0.1,0.4,0.4v2.7c0,0,1.7,0,1.7,0c0.1,0,0.2,0,0.3,0c0,0,0,0.1,0.1,0.1c0.1,0.3,0.1,0.7,0.1,1c0,0.2,0,0.5,0,0.7
		c0,0.2,0,0.4-0.1,0.6C26.5,21,26.4,21,26.3,21h-1.7c0,0,0,5.5,0,5.9c0,0.3,0,0.6,0.2,0.8c0.4,0.4,1.2,0.1,1.6,0c0.1,0,0.1,0,0.2,0
		c0,0,0.1,0.1,0.1,0.1c0.2,0.4,0.5,1,0.5,1.4C27.1,29.4,27.1,29.5,26.9,29.6z"/>
	<path class="st1" d="M36.2,29.7c-0.2,0.1-0.4,0.1-0.6,0.2c-1.5,0.4-3.2,0.3-4.5-0.4c-0.6-0.3-1.2-0.7-1.6-1.2s-0.8-1.1-1-1.8
		c-0.2-0.7-0.3-1.4-0.3-2.3s0.1-1.6,0.4-2.4c0.6-1.6,1.8-2.9,3.5-3.3c1.3-0.3,3.1-0.3,4.4,0.2c0.1,0,0.1,0,0.1,0.1s0,0.1,0,0.2
		c0,0.5,0,1.3-0.2,1.8c-0.2,0.4-0.5,0.1-0.9,0.1c-0.6-0.1-1.1-0.1-1.7-0.1c-0.9,0-1.6,0.4-2.1,1s-0.8,1.5-0.8,2.5s0.2,1.8,0.7,2.4
		c0.5,0.6,1.2,1,2,1.1c0.7,0.1,1.7,0.1,2.4-0.2c0.2-0.1,0.3-0.1,0.4,0c0,0,0.1,0.1,0.1,0.3l0.1,1.5c0,0.2,0,0.3,0,0.3
		C36.6,29.6,36.3,29.7,36.2,29.7z"/>
</g>
</svg>
