<svg id="Layer_1" data-name="Layer 1" xmlns="http://www.w3.org/2000/svg" viewBox="0 0 1299.97 1223.22"><defs><style>.cls-1{stroke:#000;stroke-miterlimit:10;stroke-width:18px;}.cls-2{fill:none;}</style></defs><path class="cls-1" d="M1211.63,751.8C1105.85,646,934.34,646,828.56,751.8s-105.79,277.3,0,383.08,277.28,105.79,383.07,0S1317.42,857.59,1211.63,751.8ZM852.12,1111.31c-92.41-92.41-92-243.15.38-335.57s242.78-92.41,335.19,0,92.41,242.78,0,335.2S944.53,1203.72,852.12,1111.31Zm303.4-168a16.92,16.92,0,0,0-16.92-16.93H1037V824.84a16.93,16.93,0,1,0-33.86,0V926.41H901.59a16.93,16.93,0,1,0,0,33.86h101.58v101.57a16.93,16.93,0,1,0,33.85,0V960.27H1138.6A16.91,16.91,0,0,0,1155.52,943.34Z"/><path class="cls-2" d="M617.43,674.94a64,64,0,0,1,24-57.8c68.66-54,94.26-171.81,94.26-233.36V223.86C735.65,155.54,620.4,64,511.73,64,404,64,287.6,157,287.6,223.86v159.9c0,62.5,31,179.81,97.46,233.19a64,64,0,0,1-13.3,108L90.72,857.6C83.09,861.14,64,869.1,64,894.54h0v65l624,0a331.4,331.4,0,0,1-2.31-38.93,327.08,327.08,0,0,1,41.71-160.29l-73.1-34.67A64,64,0,0,1,617.43,674.94Z"/><path d="M64,959.49v-65h0c0-25.44,19.09-33.4,26.72-36.94L371.76,725a64,64,0,0,0,13.3-108c-66.48-53.38-97.46-170.69-97.46-233.19V223.86C287.6,157,404,64,511.73,64c108.67,0,223.92,91.54,223.92,159.86V383.78c0,61.55-25.6,179.31-94.26,233.36a64,64,0,0,0,12.88,108.43l73.1,34.67a329.59,329.59,0,0,1,37.45-53.59L681,667.42c88.66-69.77,118.66-206.83,118.66-283.64V223.85C799.65,117.93,653,0,511.73,0S223.6,117.94,223.6,223.85V383.77C223.6,453.65,255.49,595,345,666.86L64,799.49S0,828,0,863.45v96a64,64,0,0,0,64,64H702.13a327,327,0,0,1-14.16-64Z"/></svg>