<?xml version="1.0" encoding="utf-8"?>
<!-- Generator: Adobe Illustrator 25.4.0, SVG Export Plug-In . SVG Version: 6.00 Build 0)  -->
<svg version="1.1" id="icon_door" xmlns="http://www.w3.org/2000/svg" xmlns:xlink="http://www.w3.org/1999/xlink" x="0px" y="0px"
	 viewBox="0 0 45.9 45.9" style="enable-background:new 0 0 45.9 45.9;" xml:space="preserve">
<style type="text/css">
	.st0{fill:#EAF5E2;}
	.st1{enable-background:new    ;}
	.st2{fill:#78C046;}
</style>
<circle id="Ellipse_1_copy_3" class="st0" cx="23" cy="23" r="23"/>
<g>
	<g class="st1">
		<g>
			<path class="st2" d="M32.8,12.8c-0.2-0.2-0.5-0.3-0.8-0.3c0,0,0,0,0,0l-3.5,0v-1.2c0-0.3-0.2-0.7-0.4-0.9c-0.3-0.2-0.6-0.3-1-0.3
				l-13.2,2.3c-0.6,0.1-1,0.6-1,1.2v18.7c0,0.6,0.4,1.1,1,1.2l13.2,2.3c0.1,0,0.1,0,0.2,0c0.3,0,0.5-0.1,0.8-0.3
				c0.3-0.2,0.4-0.5,0.4-0.9v-1.2h3.5c0.6,0,1.2-0.5,1.2-1.2V13.6C33.1,13.3,33,13,32.8,12.8z M26.1,13.6v18.7v0.9l-10.9-1.9V14.6
				l10.9-1.9V13.6z M30.8,31.1h-2.3V14.8l2.3,0L30.8,31.1L30.8,31.1z"/>
		</g>
	</g>
	<g class="st1">
		<g>
			<path class="st2" d="M23.4,22.9c-0.2-0.2-0.5-0.3-0.8-0.3s-0.6,0.1-0.8,0.3c-0.2,0.2-0.3,0.5-0.3,0.8c0,0.3,0.1,0.6,0.3,0.8
				c0.2,0.2,0.5,0.3,0.8,0.3s0.6-0.1,0.8-0.3c0.2-0.2,0.3-0.5,0.3-0.8C23.7,23.4,23.6,23.1,23.4,22.9z"/>
		</g>
	</g>
</g>
</svg>
