<?xml version="1.0" encoding="utf-8"?>
<!-- Generator: Adobe Illustrator 25.4.0, SVG Export Plug-In . SVG Version: 6.00 Build 0)  -->
<svg version="1.1" id="icon_wall_" xmlns="http://www.w3.org/2000/svg" xmlns:xlink="http://www.w3.org/1999/xlink" x="0px" y="0px"
	 viewBox="0 0 45.9 45.9" style="enable-background:new 0 0 45.9 45.9;" xml:space="preserve">
<style type="text/css">
	.st0{fill:#EAF5E2;}
	.st1{clip-path:url(#SVGID_00000060716907704069162060000013604277244635684285_);fill:#78C046;enable-background:new    ;}
</style>
<circle id="Ellipse_1_copy_2" class="st0" cx="23" cy="23" r="23"/>
<g>
	<defs>
		<rect id="SVGID_1_" x="10.8" y="10.8" width="24.2" height="24.2"/>
	</defs>
	<clipPath id="SVGID_00000086684320739683838740000012833277480652632498_">
		<use xlink:href="#SVGID_1_"  style="overflow:visible;"/>
	</clipPath>
	
		<path style="clip-path:url(#SVGID_00000086684320739683838740000012833277480652632498_);fill:#78C046;enable-background:new    ;" d="
		M32.6,28.2l0-16.2c0-0.6-0.5-1.1-1.1-1.1H11.9c-0.6,0-1.1,0.5-1.1,1.1v19.6c0,2,1.6,3.6,3.6,3.6h17.1c2,0,3.6-1.6,3.6-3.6
		C35.1,30,34.1,28.6,32.6,28.2 M30.4,13.1l0,14.9h-2.7l0-14.9H30.4z M25.5,13.1l0,14.9h-2.7l0-14.9H25.5z M20.6,13.1l0,14.9h-2.7
		l0-14.9H20.6z M14.4,32.9c-0.7,0-1.3-0.6-1.3-1.3c0-0.7,0.6-1.3,1.3-1.3c0.7,0,1.3,0.6,1.3,1.3C15.7,32.3,15.1,32.9,14.4,32.9
		 M14.4,28c-0.5,0-0.9,0.1-1.3,0.3V13.1h2.7l0,14.9H14.4z M31.5,32.9H17.7c0.2-0.4,0.3-0.9,0.3-1.3s-0.1-0.9-0.3-1.3h13.9
		c0.7,0,1.3,0.6,1.3,1.3S32.3,32.9,31.5,32.9"/>
</g>
</svg>
