<svg width="24" height="24" viewBox="0 0 24 24" fill="none" xmlns="http://www.w3.org/2000/svg">
<path d="M4.88889 19H19.1111C19.6 19 20 18.6062 20 18.125C20 17.6438 19.6 17.25 19.1111 17.25H4.88889C4.4 17.25 4 17.6438 4 18.125C4 18.6062 4.4 19 4.88889 19ZM4.88889 12.875H19.1111C19.6 12.875 20 12.4812 20 12C20 11.5188 19.6 11.125 19.1111 11.125H4.88889C4.4 11.125 4 11.5188 4 12C4 12.4812 4.4 12.875 4.88889 12.875ZM4 5.875C4 6.35625 4.4 6.75 4.88889 6.75H19.1111C19.6 6.75 20 6.35625 20 5.875C20 5.39375 19.6 5 19.1111 5H12H4.88889C4.4 5 4 5.39375 4 5.875Z" fill="#666666"/>
</svg>
