<svg id="Capa_1" data-name="Capa 1" xmlns="http://www.w3.org/2000/svg" viewBox="0 0 54 54.02"><path d="M1,19H1l-.6.5a.91.91,0,0,0-.4.8V24a.94.94,0,0,0,1,1H4V50H6V25H48V37H40V33H38v5a.94.94,0,0,0,1,1h9v4H39a1,1,0,0,0-1,1v5h2V45h8v5h2V25h3a.94.94,0,0,0,1-1v-3.7a.91.91,0,0,0-.4-.8L27.6.23a.89.89,0,0,0-1.2,0L1,19ZM27,2.22l25,18.6V23H2V21H42V19H4.4Z"/><rect x="8" y="27.02" width="2" height="2"/><rect x="12" y="27.02" width="2" height="2"/><rect x="16" y="27.02" width="2" height="2"/><rect x="20" y="27.02" width="2" height="2"/><rect x="24" y="27.02" width="2" height="2"/><rect x="28" y="27.02" width="2" height="2"/><rect x="32" y="27.02" width="2" height="2"/><rect x="36" y="27.02" width="2" height="2"/><rect x="40" y="27.02" width="2" height="2"/><rect x="44" y="27.02" width="2" height="2"/><path d="M22,38h1a.94.94,0,0,0,1-1V33a1,1,0,0,0-1-1H11a1,1,0,0,0-1,1v4a.94.94,0,0,0,1,1h1v7a.94.94,0,0,0,1,1h3v5h2V46h3a.94.94,0,0,0,1-1ZM12,34H22v2H12Zm8,10H14V38h6Z"/><rect x="16" y="52.02" width="2" height="2"/><rect x="20" y="52.02" width="2" height="2"/><rect x="24" y="52.02" width="2" height="2"/><rect x="28" y="52.02" width="2" height="2"/><rect x="32" y="52.02" width="2" height="2"/><rect x="36" y="52.02" width="2" height="2"/><rect x="40" y="52.02" width="2" height="2"/><rect x="44" y="52.02" width="2" height="2"/><rect x="48" y="52.02" width="2" height="2"/><path d="M34,44a1,1,0,0,0-1-1H28v2h4v4h2Z"/><path d="M34,33H32v4H28v2h5a.94.94,0,0,0,1-1Z"/></svg>