<?xml version="1.0" encoding="utf-8"?>
<!-- Generator: Adobe Illustrator 25.4.0, SVG Export Plug-In . SVG Version: 6.00 Build 0)  -->
<svg version="1.1" id="icon_maru" xmlns="http://www.w3.org/2000/svg" xmlns:xlink="http://www.w3.org/1999/xlink" x="0px" y="0px"
	 viewBox="0 0 45.9 45.9" style="enable-background:new 0 0 45.9 45.9;" xml:space="preserve">
<style type="text/css">
	.st0{fill:#EAF5E2;}
	.st1{clip-path:url(#SVGID_00000160173464745107530950000009892809708343332256_);fill:#000002;}
	.st2{clip-path:url(#SVGID_00000160173464745107530950000009892809708343332256_);fill:#58B21A;}
</style>
<circle class="st0" cx="23" cy="22.9" r="23"/>
<g>
	<defs>
		<rect id="SVGID_1_" x="11" y="10.9" width="24" height="24"/>
	</defs>
	<clipPath id="SVGID_00000176044050610527349130000014669827063372322472_">
		<use xlink:href="#SVGID_1_"  style="overflow:visible;"/>
	</clipPath>
	<path style="clip-path:url(#SVGID_00000176044050610527349130000014669827063372322472_);fill:#000002;" d="M34.2,34.5H11.8
		c-0.2,0-0.4-0.2-0.4-0.4V11.7c0-0.2,0.2-0.4,0.4-0.4h22.4c0.2,0,0.4,0.2,0.4,0.4v22.4C34.6,34.3,34.4,34.5,34.2,34.5 M28.7,33.7h5
		v-5l-4.7,4.7c0,0,0,0,0,0l0,0L28.7,33.7z M22.3,33.7h5.3l0.7-0.7l-2.6-2.6L22.3,33.7z M16.3,33.7h4.8l7.2-7.2l-2.4-2.4l-7.6,7.6
		L16.3,33.7z M12.2,33.7h2.9l2.3-2.3l-2.5-2.5l-2.7,2.7V33.7z M26.2,29.8l2.6,2.6l5-5v-5.3l-4.6,4.6L26.2,29.8z M15.4,28.3l2.5,2.5
		l12.6-12.6l-2.5-2.5l-5,5c0,0,0,0,0,0L15.4,28.3z M12.2,24.9v5.5l2.4-2.4c0,0,0,0,0,0c0,0,0,0,0,0l7.7-7.7l-2.7-2.7L12.2,24.9z
		 M26.5,23.5l2.4,2.4l4.8-4.8c0,0,0,0,0,0v-4.8L26.5,23.5z M12.2,18.1v5.6l3.3-3.2l-2.8-2.8L12.2,18.1z M13.3,17.1l2.8,2.8l7.8-7.7
		h-5.4L13.3,17.1z M20.1,17l2.7,2.7l7.6-7.6h-5.3L20.1,17z M28.7,15.1l2.5,2.5l2.5-2.5v-2.9h-2.1L28.7,15.1z M12.2,12.2V17l0.2-0.1
		c0,0,0,0,0,0c0,0,0,0,0.1,0l4.9-4.6H12.2z"/>
	<path style="clip-path:url(#SVGID_00000176044050610527349130000014669827063372322472_);fill:#58B21A;" d="M34.2,34.9H11.8
		c-0.5,0-0.8-0.4-0.8-0.8V11.7c0-0.5,0.4-0.8,0.8-0.8h22.4c0.5,0,0.8,0.4,0.8,0.8v22.4C35,34.6,34.6,34.9,34.2,34.9z M29.7,33.3h3.6
		v-3.6L29.7,33.3z M23.3,33.3h4.1l0.2-0.2l-2-2L23.3,33.3z M17.3,33.3H21l6.8-6.8l-1.8-1.8L17.3,33.3z M12.6,33.3H15l1.8-1.8l-2-2
		l-2.3,2.3V33.3z M26.7,29.8l2,2l4.5-4.5v-4.1L26.7,29.8z M16,28.3l2,2L30,18.2l-2-2L16,28.3z M12.6,25v4.4l9.1-9.1l-2.1-2.1
		L12.6,25z M27.1,23.5l1.8,1.8l4.4-4.4v-3.7L27.1,23.5z M12.6,18.3v4.4l2.3-2.2L12.6,18.3L12.6,18.3z M13.9,17.1l2.2,2.2l6.8-6.7
		h-4.2L13.9,17.1z M20.7,17l2.1,2.1l6.6-6.6h-4.2L20.7,17z M11.8,17.9L11.8,17.9l0.7-0.6L11.8,17.9z M12.7,17.1L12.7,17.1L12.7,17.1
		L12.7,17.1L12.7,17.1z M29.3,15.1l2,2l2.1-2.1v-2.4h-1.5L29.3,15.1z M12.6,12.6V16l3.7-3.5H12.6z"/>
</g>
</svg>
