<svg width="40" height="40" viewBox="0 0 40 40" fill="none" xmlns="http://www.w3.org/2000/svg">
<mask id="mask0_384_714" style="mask-type:alpha" maskUnits="userSpaceOnUse" x="0" y="0" width="40" height="40">
<rect width="40" height="40" fill="#D9D9D9"/>
</mask>
<g mask="url(#mask0_384_714)">
<path d="M21.6667 38.3333C21.1944 38.3333 20.7989 38.1733 20.48 37.8533C20.16 37.5344 20 37.1388 20 36.6666C20 36.1944 20.16 35.7988 20.48 35.4799C20.7989 35.1599 21.1944 34.9999 21.6667 34.9999H31.6667V33.3333H28.3333C27.4167 33.3333 26.6322 33.0071 25.98 32.3549C25.3267 31.7016 25 30.9166 25 29.9999V23.3333C25 22.4166 25.3267 21.6316 25.98 20.9783C26.6322 20.326 27.4167 19.9999 28.3333 19.9999H31.6667V18.3333C31.6667 15.111 30.5278 12.361 28.25 10.0833C25.9722 7.80547 23.2222 6.66659 20 6.66659C16.7778 6.66659 14.0278 7.80547 11.75 10.0833C9.47222 12.361 8.33333 15.111 8.33333 18.3333V19.9999H11.6667C12.5833 19.9999 13.3678 20.326 14.02 20.9783C14.6733 21.6316 15 22.4166 15 23.3333V29.9999C15 30.9166 14.6733 31.7016 14.02 32.3549C13.3678 33.0071 12.5833 33.3333 11.6667 33.3333H8.33333C7.41667 33.3333 6.63167 33.0071 5.97833 32.3549C5.32611 31.7016 5 30.9166 5 29.9999V18.3333C5 16.2777 5.39556 14.3399 6.18667 12.5199C6.97889 10.701 8.05556 9.11103 9.41667 7.74992C10.7778 6.38881 12.3678 5.31214 14.1867 4.51992C16.0067 3.72881 17.9444 3.33325 20 3.33325C22.0556 3.33325 23.9933 3.72881 25.8133 4.51992C27.6322 5.31214 29.2222 6.38881 30.5833 7.74992C31.9444 9.11103 33.0211 10.701 33.8133 12.5199C34.6044 14.3399 35 16.2777 35 18.3333V34.9999C35 35.9166 34.6739 36.7016 34.0217 37.3549C33.3683 38.0071 32.5833 38.3333 31.6667 38.3333H21.6667ZM8.33333 29.9999H11.6667V23.3333H8.33333V29.9999ZM28.3333 29.9999H31.6667V23.3333H28.3333V29.9999Z" fill="#1C1B1F"/>
</g>
</svg>
